<svg xmlns="http://www.w3.org/2000/svg" version="1.1" width="512px" height="512px" style="shape-rendering:geometricPrecision; text-rendering:geometricPrecision; image-rendering:optimizeQuality; fill-rule:evenodd; clip-rule:evenodd" xmlns:xlink="http://www.w3.org/1999/xlink">
<g><path style="opacity:0.959" fill="#fefffe" d="M 236.5,71.5 C 254.578,70.9248 272.578,71.7581 290.5,74C 299.062,77.2888 302.229,83.4554 300,92.5C 299.117,95.1024 297.617,97.2691 295.5,99C 244.38,112.619 216.713,145.786 212.5,198.5C 215.783,249.273 241.783,281.773 290.5,296C 336.209,303.719 372.042,288.552 398,250.5C 403.904,240.122 408.237,229.122 411,217.5C 413.748,212.708 417.915,210.374 423.5,210.5C 431.132,210.296 435.632,213.963 437,221.5C 447.47,291.44 426.636,349.94 374.5,397C 322.877,437.592 265.211,449.258 201.5,432C 140,411.833 99.1667,371 79,309.5C 59.2013,232.588 78.368,167.422 136.5,114C 165.73,90.2193 199.063,76.0527 236.5,71.5 Z M 228.5,101.5 C 187.524,141.404 175.691,188.737 193,243.5C 211.306,287.468 243.806,314.302 290.5,324C 337.491,330.727 377.158,316.894 409.5,282.5C 397.897,339.603 365.231,379.436 311.5,402C 244.755,423.688 186.922,409.522 138,359.5C 97.3735,309.796 88.3735,254.796 111,194.5C 134.188,143.321 173.355,112.321 228.5,101.5 Z"/></g>
</svg>
