<svg xmlns="http://www.w3.org/2000/svg" version="1.1" width="512px" height="512px" style="shape-rendering:geometricPrecision; text-rendering:geometricPrecision; image-rendering:optimizeQuality; fill-rule:evenodd; clip-rule:evenodd" xmlns:xlink="http://www.w3.org/1999/xlink">
<g><path style="opacity:0.939" fill="#fefffe" d="M 250.5,7.5 C 255.449,6.95886 260.116,7.79219 264.5,10C 266.894,11.9522 268.394,14.4522 269,17.5C 269.667,33.8333 269.667,50.1667 269,66.5C 264.833,76.7798 257.666,79.6132 247.5,75C 244.533,72.8995 242.7,70.0662 242,66.5C 241.333,50.1667 241.333,33.8333 242,17.5C 243.261,12.7452 246.095,9.41184 250.5,7.5 Z"/></g>
<g><path style="opacity:0.948" fill="#fefffe" d="M 86.5,75.5 C 90.4102,75.2628 94.0769,76.0961 97.5,78C 110.065,89.8954 121.898,102.395 133,115.5C 133.582,131.298 126.415,136.465 111.5,131C 100.333,119.833 89.1667,108.667 78,97.5C 73.48,87.216 76.3134,79.8827 86.5,75.5 Z"/></g>
<g><path style="opacity:0.948" fill="#fefffe" d="M 418.5,75.5 C 433.131,76.4364 437.965,83.7697 433,97.5C 421.833,108.667 410.667,119.833 399.5,131C 384.585,136.465 377.418,131.298 378,115.5C 389.102,102.395 400.935,89.8954 413.5,78C 415.315,77.2432 416.981,76.4098 418.5,75.5 Z"/></g>
<g><path style="opacity:0.958" fill="#fefffe" d="M 246.5,113.5 C 311.335,112.903 357.835,141.57 386,199.5C 406.257,253.041 398.923,302.374 364,347.5C 319.484,394.588 266.317,408.088 204.5,388C 146.836,362.801 116.502,318.634 113.5,255.5C 116.281,194.732 144.947,151.232 199.5,125C 214.723,118.777 230.39,114.943 246.5,113.5 Z M 243.5,141.5 C 292.259,139.125 329.426,158.459 355,199.5C 377.166,243.922 373.832,286.256 345,326.5C 312.409,363.806 271.909,376.64 223.5,365C 176.775,348.934 149.608,316.434 142,267.5C 139.139,218.717 158.305,181.55 199.5,156C 213.46,148.624 228.127,143.791 243.5,141.5 Z"/></g>
<g><path style="opacity:0.939" fill="#fefffe" d="M 17.5,241.5 C 33.8367,241.333 50.1701,241.5 66.5,242C 76.7798,246.167 79.6132,253.334 75,263.5C 72.8995,266.467 70.0662,268.3 66.5,269C 50.1667,269.667 33.8333,269.667 17.5,269C 10.6508,267.144 7.31743,262.644 7.5,255.5C 7.43222,248.272 10.7655,243.606 17.5,241.5 Z"/></g>
<g><path style="opacity:0.939" fill="#fefffe" d="M 444.5,241.5 C 460.837,241.333 477.17,241.5 493.5,242C 502.044,245.252 505.211,251.419 503,260.5C 501.402,265.099 498.235,267.932 493.5,269C 477.167,269.667 460.833,269.667 444.5,269C 434.22,264.833 431.387,257.666 436,247.5C 438.322,244.605 441.155,242.605 444.5,241.5 Z"/></g>
<g><path style="opacity:0.948" fill="#fefffe" d="M 115.5,377.5 C 131.279,377.396 136.445,384.729 131,399.5C 119.833,410.667 108.667,421.833 97.5,433C 83.6295,437.986 76.4628,433.153 76,418.5C 76.4709,416.754 77.1376,415.087 78,413.5C 90.0921,400.905 102.592,388.905 115.5,377.5 Z"/></g>
<g><path style="opacity:0.948" fill="#fefffe" d="M 386.5,377.5 C 391.121,376.993 395.454,377.826 399.5,380C 410.667,391.167 421.833,402.333 433,413.5C 437.879,425.409 434.046,432.742 421.5,435.5C 418.676,435.17 416.009,434.336 413.5,433C 400.935,421.105 389.102,408.605 378,395.5C 376.3,387.237 379.133,381.237 386.5,377.5 Z"/></g>
<g><path style="opacity:0.939" fill="#fefffe" d="M 252.5,433.5 C 260.976,432.815 266.476,436.482 269,444.5C 269.667,460.833 269.667,477.167 269,493.5C 267.144,500.349 262.644,503.683 255.5,503.5C 248.356,503.683 243.856,500.349 242,493.5C 241.333,477.167 241.333,460.833 242,444.5C 243.684,438.984 247.184,435.318 252.5,433.5 Z"/></g>
</svg>
