<svg xmlns="http://www.w3.org/2000/svg" version="1.1" width="1168px" height="356px" style="shape-rendering:geometricPrecision; text-rendering:geometricPrecision; image-rendering:optimizeQuality; fill-rule:evenodd; clip-rule:evenodd" xmlns:xlink="http://www.w3.org/1999/xlink">
<g><path style="opacity:0.806" fill="#101010" d="M 218.5,-0.5 C 230.5,-0.5 242.5,-0.5 254.5,-0.5C 255.122,0.626561 255.955,1.62656 257,2.5C 257.667,11.1667 257.667,19.8333 257,28.5C 255.916,29.6651 255.083,30.9984 254.5,32.5C 242.298,35.6011 230.298,35.1011 218.5,31C 217.299,30.0975 216.465,28.9308 216,27.5C 215.333,19.5 215.333,11.5 216,3.5C 216.662,2.01608 217.496,0.682751 218.5,-0.5 Z"/></g>
<g><path style="opacity:0.81" fill="#090909" d="M 499.5,-0.5 C 510.833,-0.5 522.167,-0.5 533.5,-0.5C 534.122,0.626561 534.955,1.62656 536,2.5C 536.667,11.1667 536.667,19.8333 536,28.5C 532.764,31.6149 528.931,33.7816 524.5,35C 529.422,34.6211 533.588,36.1211 537,39.5C 537.667,66.1667 537.667,92.8333 537,119.5C 533.308,123.899 529.975,128.566 527,133.5C 526.782,136.426 526.282,139.26 525.5,142C 520.178,142.493 518.178,139.993 519.5,134.5C 515.399,133.512 511.566,131.846 508,129.5C 507.73,132.224 507.23,134.891 506.5,137.5C 505.167,138.833 503.833,138.833 502.5,137.5C 500.62,133.359 499.453,129.026 499,124.5C 498.385,122.884 497.385,121.551 496,120.5C 495.333,93.5 495.333,66.5 496,39.5C 497.214,37.9512 498.714,36.7845 500.5,36C 513.142,36.0731 513.476,34.7398 501.5,32C 499.714,31.2155 498.214,30.0488 497,28.5C 496.8,21.1174 496.3,13.7841 495.5,6.5C 496.1,3.65103 497.433,1.3177 499.5,-0.5 Z"/></g>
<g><path style="opacity:1" fill="#fbfbfb" d="M 220.5,1.5 C 231.505,1.33349 242.505,1.50015 253.5,2C 254.126,2.75044 254.626,3.58377 255,4.5C 255.667,12.1667 255.667,19.8333 255,27.5C 253.615,28.5505 252.615,29.8839 252,31.5C 250.938,30.9032 249.772,30.5698 248.5,30.5C 238.938,33.5971 229.605,33.0971 220.5,29C 220,28.5 219.5,28 219,27.5C 217.911,18.5716 218.411,9.90489 220.5,1.5 Z"/></g>
<g><path style="opacity:1" fill="#fbfbfb" d="M 500.5,1.5 C 511.172,1.3335 521.839,1.50016 532.5,2C 533.126,2.75044 533.626,3.58377 534,4.5C 534.667,12.1667 534.667,19.8333 534,27.5C 528.779,30.1108 523.446,32.4441 518,34.5C 512.107,32.901 506.274,31.0676 500.5,29C 500,28.5 499.5,28 499,27.5C 498.333,19.5 498.333,11.5 499,3.5C 499.717,2.9558 500.217,2.28913 500.5,1.5 Z"/></g>
<g><path style="opacity:0.755" fill="#0d0d0d" d="M 562.5,5.5 C 573.838,5.33348 585.172,5.50014 596.5,6C 598.049,7.21398 599.215,8.71398 600,10.5C 600.5,18.8267 600.666,27.16 600.5,35.5C 606.842,35.3338 613.175,35.5005 619.5,36C 621.492,36.5743 622.992,37.741 624,39.5C 624.667,47.8333 624.667,56.1667 624,64.5C 622.561,66.2746 621.561,68.2746 621,70.5C 618.315,71.6836 616.148,73.5169 614.5,76C 610.46,73.0156 605.793,70.849 600.5,69.5C 600.334,75.5092 600.501,81.5092 601,87.5C 601.5,88 602,88.5 602.5,89C 608.833,89.3333 615.167,89.6667 621.5,90C 624.581,91.312 626.248,93.6454 626.5,97C 625.182,103.47 625.182,109.97 626.5,116.5C 624.9,119.94 623.067,123.274 621,126.5C 619.989,127.337 618.822,127.67 617.5,127.5C 617.714,129.144 617.38,130.644 616.5,132C 614.026,132.113 612.026,133.113 610.5,135C 609.167,135.667 607.833,135.667 606.5,135C 603.333,131.653 600.666,127.986 598.5,124C 574.47,124.625 560.97,113.125 558,89.5C 557.345,95.4736 554.679,96.8069 550,93.5C 547.807,84.3417 545.307,75.3417 542.5,66.5C 541.335,57.5185 541.168,48.5185 542,39.5C 543.214,37.9512 544.714,36.7845 546.5,36C 550.486,35.5012 554.486,35.3345 558.5,35.5C 558.334,26.8269 558.5,18.1603 559,9.5C 559.69,7.64977 560.856,6.31643 562.5,5.5 Z"/></g>
<g><path style="opacity:0.788" fill="#0f0f0f" d="M -0.5,118.5 C -0.5,83.1667 -0.5,47.8333 -0.5,12.5C 0.218865,10.9087 1.21886,9.40875 2.5,8C 32.5,7.33333 62.5,7.33333 92.5,8C 93,8.5 93.5,9 94,9.5C 95.1198,14.8932 95.6198,20.3932 95.5,26C 95.1667,30.8333 94.8333,35.6667 94.5,40.5C 92.2581,42.5388 89.7581,44.2054 87,45.5C 86.4806,44.4844 85.6473,43.8178 84.5,43.5C 80.4668,44.9001 76.4668,46.4001 72.5,48C 77.8333,48.3333 83.1667,48.6667 88.5,49C 90.7635,50.7795 92.0969,53.1128 92.5,56C 91.199,62.7095 91.199,69.3762 92.5,76C 91.7833,78.7154 90.2833,80.8821 88,82.5C 84.0709,83.886 80.2376,85.386 76.5,87C 81.5,87.3333 86.5,87.6667 91.5,88C 93.0016,88.5831 94.3349,89.4164 95.5,90.5C 96.6415,100.453 96.8082,110.453 96,120.5C 91.1412,125.724 86.6412,131.224 82.5,137C 80.559,138.903 78.2257,139.736 75.5,139.5C 75.6662,145.509 75.4995,151.509 75,157.5C 73,160.167 71,160.167 69,157.5C 69.2196,150.881 68.8862,144.214 68,137.5C 66.7533,134.671 65.2533,132.005 63.5,129.5C 61.5067,131.666 59.6733,133.999 58,136.5C 58.0284,140.723 56.6951,144.389 54,147.5C 50.9082,146.077 48.9082,143.743 48,140.5C 48.2995,146.147 48.2995,151.814 48,157.5C 45.146,160.016 42.4793,159.683 40,156.5C 39.3307,151.194 39.8307,146.027 41.5,141C 39.5,137 37.5,133 35.5,129C 34.2161,128.316 33.0495,128.483 32,129.5C 31.5699,137.188 30.9033,144.854 30,152.5C 27.9783,153.991 26.3117,153.658 25,151.5C 25.1103,144.172 25.1103,136.838 25,129.5C 24,128.5 23,127.5 22,126.5C 20.4549,132.43 19.1216,138.43 18,144.5C 15.5459,146.013 13.8793,145.346 13,142.5C 12.859,138.411 12.6924,134.411 12.5,130.5C 11.6764,133.785 11.1764,137.118 11,140.5C 9.61238,141.554 8.11238,141.72 6.5,141C 4.32032,135.426 3.15366,129.593 3,123.5C 1.37426,122.045 0.207597,120.378 -0.5,118.5 Z M 43.5,44.5 C 53.6969,47.542 53.6969,48.8753 43.5,48.5C 43.5,47.1667 43.5,45.8333 43.5,44.5 Z M 43.5,83.5 C 52.3815,86.3151 52.3815,87.6484 43.5,87.5C 43.5,86.1667 43.5,84.8333 43.5,83.5 Z"/></g>
<g><path style="opacity:1" fill="#fbfbfb" d="M 561.5,92.5 C 561.831,84.1401 561.498,75.8068 560.5,67.5C 559.893,67.6236 559.56,67.9569 559.5,68.5C 558.324,75.8879 556.824,83.2213 555,90.5C 554.577,91.9561 553.744,92.4561 552.5,92C 550.081,83.2436 547.915,74.4103 546,65.5C 545.333,64.8333 544.667,64.1667 544,63.5C 543.333,56.1667 543.333,48.8333 544,41.5C 544.374,40.5838 544.874,39.7504 545.5,39C 550.489,38.5007 555.489,38.3341 560.5,38.5C 560.334,29.1607 560.5,19.8274 561,10.5C 561.833,9.66667 562.667,8.83333 563.5,8C 573.833,7.33333 584.167,7.33333 594.5,8C 595.416,8.37424 596.25,8.87424 597,9.5C 597.5,19.1609 597.666,28.8276 597.5,38.5C 605.174,38.3336 612.841,38.5003 620.5,39C 621,39.5 621.5,40 622,40.5C 622.667,47.8333 622.667,55.1667 622,62.5C 618.872,65.9233 616.039,69.59 613.5,73.5C 612.614,72.675 612.281,71.675 612.5,70.5C 608.019,68.7252 603.353,67.3918 598.5,66.5C 597.336,73.1418 597.169,79.8085 598,86.5C 598.273,88.3289 599.107,89.8289 600.5,91C 607.167,91.3333 613.833,91.6667 620.5,92C 621.667,92.5 622.5,93.3333 623,94.5C 623.667,102.833 623.667,111.167 623,119.5C 621.122,121.043 619.622,122.876 618.5,125C 617.004,125.507 615.837,125.007 615,123.5C 615.053,125.936 614.887,128.269 614.5,130.5C 612.625,129.164 611.292,129.664 610.5,132C 609.167,132.667 607.833,132.667 606.5,132C 604.248,128.832 602.248,125.499 600.5,122C 591.443,121.646 582.776,119.646 574.5,116C 565.952,110.543 561.619,102.71 561.5,92.5 Z"/></g>
<g><path style="opacity:1" fill="#fdfdfd" d="M 40.5,49.5 C 55.4636,51.4841 70.7969,52.1507 86.5,51.5C 87.4959,51.4142 88.3292,51.7476 89,52.5C 89.6667,60.8333 89.6667,69.1667 89,77.5C 88.6258,78.4162 88.1258,79.2496 87.5,80C 80.7319,83.5518 73.5653,85.7184 66,86.5C 62.432,85.8513 58.932,85.8513 55.5,86.5C 51.8696,84.6848 48.2029,82.8515 44.5,81C 43.2068,80.51 41.8734,80.3433 40.5,80.5C 40.2601,83.5788 40.5934,86.5788 41.5,89.5C 58.4902,90.3329 75.4902,90.8329 92.5,91C 93,91.5 93.5,92 94,92.5C 94.6667,101.167 94.6667,109.833 94,118.5C 89.4842,124.675 84.6509,130.508 79.5,136C 77.4787,136.14 75.6453,136.307 74,136.5C 73,163.167 72,163.167 71,136.5C 68.4961,132.157 65.9961,127.824 63.5,123.5C 59.2486,128.746 56.082,135.746 54,144.5C 53.6667,142.167 53.3333,139.833 53,137.5C 52.6667,139.167 52.3333,140.833 52,142.5C 51.3811,139.968 50.3811,137.635 49,135.5C 48,136.5 47,137.5 46,138.5C 45.8317,144.495 45.9983,150.495 46.5,156.5C 45.1667,156.5 43.8333,156.5 42.5,156.5C 42.5289,150.455 42.6955,144.455 43,138.5C 41.1021,134.372 38.9354,130.372 36.5,126.5C 33.4418,124.846 31.1085,125.513 29.5,128.5C 28.8333,129.167 28.1667,129.833 27.5,130.5C 26.4744,127.628 24.8077,125.128 22.5,123C 21.5509,122.383 20.7175,122.549 20,123.5C 18.3895,129.772 17.0562,136.105 16,142.5C 15.4361,137.806 15.6027,133.14 16.5,128.5C 13.6354,128.945 11.1354,128.278 9,126.5C 8.50649,128.134 8.33982,129.801 8.5,131.5C 8.80155,134.059 8.46822,136.393 7.5,138.5C 6.72274,133.916 6.22274,129.25 6,124.5C 5.73984,122.382 4.73984,120.716 3,119.5C 2.33333,83.5 2.33333,47.5 3,11.5C 3.5,11 4,10.5 4.5,10C 33.1667,9.33333 61.8333,9.33333 90.5,10C 91.6667,10.5 92.5,11.3333 93,12.5C 93.6667,21.1667 93.6667,29.8333 93,38.5C 92.0975,39.7014 90.9308,40.5348 89.5,41C 79.5686,43.4646 69.5686,45.6312 59.5,47.5C 57.8333,47.3333 56.1667,47.1667 54.5,47C 50.2486,44.0834 45.5819,42.25 40.5,41.5C 40.5,44.1667 40.5,46.8333 40.5,49.5 Z"/></g>
<g><path style="opacity:0.742" fill="#101010" d="M 162.5,34.5 C 188.095,32.2639 201.928,43.9305 204,69.5C 204.792,86.8648 204.625,104.198 203.5,121.5C 206.518,121.665 209.518,121.498 212.5,121C 213,120.5 213.5,120 214,119.5C 214.017,92.4133 214.684,65.4133 216,38.5C 216.903,37.2986 218.069,36.4652 219.5,36C 230.833,35.3333 242.167,35.3333 253.5,36C 255.286,36.7845 256.786,37.9512 258,39.5C 258.667,67.5 258.667,95.5 258,123.5C 256.967,131.87 253.3,138.87 247,144.5C 245.468,148.762 244.135,153.095 243,157.5C 239.863,157.783 236.696,158.116 233.5,158.5C 232.391,160.385 231.557,162.385 231,164.5C 229.333,165.833 227.667,165.833 226,164.5C 225.667,166.167 225.333,167.833 225,169.5C 221.554,170.761 219.554,169.428 219,165.5C 217.612,166.554 216.112,166.72 214.5,166C 213.359,163.217 211.525,161.05 209,159.5C 208,160.5 207,161.5 206,162.5C 205.667,161.833 205.333,161.167 205,160.5C 204.293,162.081 203.46,163.581 202.5,165C 201.216,165.684 200.049,165.517 199,164.5C 198.667,160.833 198.333,157.167 198,153.5C 196.667,152.833 195.667,151.833 195,150.5C 194.502,147.518 194.335,144.518 194.5,141.5C 192.856,141.714 191.356,141.38 190,140.5C 188.803,137.911 187.803,135.244 187,132.5C 186.17,137.143 185.503,141.81 185,146.5C 181.617,147.519 179.283,146.185 178,142.5C 177.101,137.849 176.268,133.182 175.5,128.5C 174.252,127.96 173.085,127.293 172,126.5C 168.475,128.19 165.475,127.524 163,124.5C 162.581,123.328 161.915,122.328 161,121.5C 160.667,105.5 160.333,89.5 160,73.5C 159.692,72.6919 159.192,72.0253 158.5,71.5C 155.976,73.8676 153.81,76.5343 152,79.5C 150.989,78.6634 149.822,78.33 148.5,78.5C 148.667,92.504 148.5,106.504 148,120.5C 145.901,125.886 141.901,128.553 136,128.5C 133.432,128.049 131.098,127.049 129,125.5C 126.73,128.153 124.063,128.819 121,127.5C 118.453,128.473 116.953,130.307 116.5,133C 114.633,133.711 113.133,133.211 112,131.5C 112.734,126.676 110.901,123.51 106.5,122C 105.809,120.933 105.309,119.766 105,118.5C 104.333,92.8333 104.333,67.1667 105,41.5C 105.5,38.3333 107.333,36.5 110.5,36C 120.833,35.3333 131.167,35.3333 141.5,36C 143.976,37.3088 145.976,39.1421 147.5,41.5C 151.968,37.8165 156.968,35.4831 162.5,34.5 Z"/></g>
<g><path style="opacity:0.77" fill="#0f0f0f" d="M 304.5,34.5 C 356.046,32.2207 374.546,55.8874 360,105.5C 358.093,109.41 355.427,112.744 352,115.5C 351.667,118.167 351.333,120.833 351,123.5C 350.311,124.357 349.478,125.023 348.5,125.5C 347.28,124.289 346.113,124.289 345,125.5C 344.107,129.443 342.941,133.276 341.5,137C 340.101,137.595 338.768,137.428 337.5,136.5C 336.682,133.893 336.182,131.226 336,128.5C 334.237,131.796 332.071,134.796 329.5,137.5C 327.929,138.309 326.262,138.643 324.5,138.5C 324.196,135.478 323.696,132.478 323,129.5C 322.395,131.481 321.395,131.815 320,130.5C 319.749,132.433 319.249,134.266 318.5,136C 317.5,136.667 316.5,136.667 315.5,136C 313.387,132.827 312.387,129.327 312.5,125.5C 295.642,125.984 282.142,119.651 272,106.5C 266.456,92.9475 265.123,78.9475 268,64.5C 270.441,55.0693 275.608,47.5693 283.5,42C 290.302,38.5687 297.302,36.0687 304.5,34.5 Z M 312.5,66.5 C 314.713,67.6053 316.88,67.6053 319,66.5C 320.81,75.7665 320.976,85.0998 319.5,94.5C 316.33,96.331 313.83,95.6643 312,92.5C 309.89,83.7347 310.056,75.068 312.5,66.5 Z"/></g>
<g><path style="opacity:0.739" fill="#111111" d="M 367.5,35.5 C 378.578,35.0688 389.578,35.5688 400.5,37C 402.049,38.214 403.215,39.714 404,41.5C 406.819,51.1271 410.319,60.4604 414.5,69.5C 418.481,60.7305 421.981,51.7305 425,42.5C 425.792,40.4127 426.959,38.5793 428.5,37C 439.427,35.4025 450.427,35.0692 461.5,36C 465.766,37.3656 467.266,40.1989 466,44.5C 449.576,84.1146 432.576,123.448 415,162.5C 413.688,164.658 412.022,164.991 410,163.5C 409.667,161.833 409.333,160.167 409,158.5C 404.255,159.057 399.755,160.39 395.5,162.5C 394.522,162.023 393.689,161.357 393,160.5C 392.689,162.556 392.189,164.556 391.5,166.5C 390.277,167.614 388.944,167.781 387.5,167C 385.85,163.06 385.017,158.893 385,154.5C 383,153.833 381.667,152.5 381,150.5C 380.808,147.053 381.475,143.72 383,140.5C 386.458,132.63 389.624,124.63 392.5,116.5C 382.975,92.4362 373.141,68.4362 363,44.5C 362.377,40.4123 363.877,37.4123 367.5,35.5 Z"/></g>
<g><path style="opacity:1" fill="#fdfdfd" d="M 163.5,36.5 C 183.401,34.6872 195.901,43.3539 201,62.5C 201.667,81.5 201.667,100.5 201,119.5C 199,122.167 197,124.833 195,127.5C 194.895,131.37 194.062,135.037 192.5,138.5C 190.904,136.136 189.738,133.47 189,130.5C 187.49,128.792 185.99,127.126 184.5,125.5C 183.833,131.833 183.167,138.167 182.5,144.5C 181.667,143.5 180.833,142.5 180,141.5C 179.667,135.833 179.333,130.167 179,124.5C 178.333,125.167 177.667,125.833 177,126.5C 174.551,124.387 171.885,124.054 169,125.5C 166.119,124.424 164.119,122.424 163,119.5C 162.667,103.167 162.333,86.8333 162,70.5C 161.385,68.8839 160.385,67.5505 159,66.5C 157.401,68.056 155.901,69.7227 154.5,71.5C 153.914,71.2907 153.414,70.9574 153,70.5C 152.808,72.5767 152.308,74.5767 151.5,76.5C 150.833,73.5 150.167,70.5 149.5,67.5C 148.522,67.9767 147.689,68.6433 147,69.5C 146.667,86.1667 146.333,102.833 146,119.5C 144.32,121.349 142.82,123.349 141.5,125.5C 140.808,124.975 140.308,124.308 140,123.5C 138.874,124.944 137.374,125.61 135.5,125.5C 132.93,124.786 130.43,123.786 128,122.5C 126.013,123.154 124.68,124.487 124,126.5C 122.488,125.743 121.154,124.743 120,123.5C 119.323,125.689 118.156,126.022 116.5,124.5C 115.353,132.421 114.52,132.421 114,124.5C 112.185,122.595 110.185,120.928 108,119.5C 107.333,93.1667 107.333,66.8333 108,40.5C 108.5,40 109,39.5 109.5,39C 120.5,38.3333 131.5,38.3333 142.5,39C 143.956,41.2658 144.79,43.7658 145,46.5C 150.457,41.6906 156.624,38.3573 163.5,36.5 Z"/></g>
<g><path style="opacity:1" fill="#fcfcfc" d="M 306.5,36.5 C 351.998,34.1578 369.832,55.1578 360,99.5C 358.126,105.262 354.793,109.928 350,113.5C 348.873,116.377 348.206,119.377 348,122.5C 347.15,121.576 346.15,121.576 345,122.5C 344.05,121.978 343.216,121.311 342.5,120.5C 341.808,125.048 341.141,129.548 340.5,134C 340.167,134.167 339.833,134.333 339.5,134.5C 338.673,130.541 338.173,126.541 338,122.5C 335.201,124.623 333.201,127.29 332,130.5C 331.505,128.527 331.338,126.527 331.5,124.5C 330.5,124.5 329.5,124.5 328.5,124.5C 328.924,128.703 328.424,132.703 327,136.5C 326.825,132.789 326.325,129.122 325.5,125.5C 324.483,128.028 323.316,128.028 322,125.5C 320.983,128.028 319.816,128.028 318.5,125.5C 317.682,128.107 317.182,130.774 317,133.5C 315.101,130.124 314.268,126.457 314.5,122.5C 298.217,124.43 285.051,119.097 275,106.5C 272.739,102.05 271.072,97.3835 270,92.5C 263.522,61.0272 275.689,42.3605 306.5,36.5 Z M 312.5,66.5 C 310.056,75.068 309.89,83.7347 312,92.5C 313.83,95.6643 316.33,96.331 319.5,94.5C 320.976,85.0998 320.81,75.7665 319,66.5C 316.88,67.6053 314.713,67.6053 312.5,66.5 Z"/></g>
<g><path style="opacity:1" fill="#fbfbfb" d="M 223.5,156.5 C 222.348,155.375 221.348,155.375 220.5,156.5C 219.213,158.805 217.88,161.138 216.5,163.5C 214.183,160.683 211.683,158.016 209,155.5C 206.88,158.08 204.713,158.08 202.5,155.5C 202.581,157.939 202.081,160.272 201,162.5C 200.825,158.789 200.325,155.122 199.5,151.5C 198.522,151.023 197.689,150.357 197,149.5C 196.333,141.833 196.333,134.167 197,126.5C 197.833,125.667 198.667,124.833 199.5,124C 204.5,123.667 209.5,123.333 214.5,123C 215.701,122.097 216.535,120.931 217,119.5C 217.333,93.1667 217.667,66.8333 218,40.5C 218.5,40 219,39.5 219.5,39C 231.167,38.3333 242.833,38.3333 254.5,39C 255.126,39.7504 255.626,40.5838 256,41.5C 256.667,68.5 256.667,95.5 256,122.5C 254.759,130.987 250.926,137.987 244.5,143.5C 243.18,147.114 242.013,150.78 241,154.5C 240.328,148.771 239.328,148.437 238,153.5C 233.091,154.574 229.924,157.574 228.5,162.5C 227.639,159.473 226.139,156.806 224,154.5C 223.536,155.094 223.369,155.761 223.5,156.5 Z"/></g>
<g><path style="opacity:1" fill="#fcfcfc" d="M 413.5,159.5 C 412.833,157.833 412.167,156.167 411.5,154.5C 409.494,155.511 407.494,156.511 405.5,157.5C 403.595,156.935 401.929,155.935 400.5,154.5C 399.459,156.991 398.626,156.991 398,154.5C 397.02,156.059 396.187,157.726 395.5,159.5C 395.024,156.881 393.691,154.881 391.5,153.5C 389.342,167.949 387.842,167.615 387,152.5C 384.456,151.79 383.289,150.124 383.5,147.5C 387.428,136.943 391.428,126.443 395.5,116C 386.518,94.0423 377.351,72.209 368,50.5C 366.073,46.9356 365.573,43.269 366.5,39.5C 371.951,38.8556 377.451,38.5222 383,38.5C 388.939,38.377 394.772,38.877 400.5,40C 404.733,52.638 409.4,65.138 414.5,77.5C 418.927,66.3037 423.093,54.9703 427,43.5C 428.046,41.9095 429.213,40.4095 430.5,39C 441.41,38.1804 452.243,38.3471 463,39.5C 463.667,41.5 463.667,43.5 463,45.5C 446.975,83.7534 430.475,121.753 413.5,159.5 Z"/></g>
<g><path style="opacity:1" fill="#f9f9f9" d="M 519.5,128.5 C 519.158,127.662 518.492,127.328 517.5,127.5C 514.679,123.372 513.179,124.039 513,129.5C 510.699,128.24 508.532,126.907 506.5,125.5C 506.44,124.957 506.107,124.624 505.5,124.5C 504.833,127.977 504.166,131.311 503.5,134.5C 502.363,130.583 501.53,126.583 501,122.5C 500,121.5 499,120.5 498,119.5C 497.333,93.1667 497.333,66.8333 498,40.5C 498.5,40 499,39.5 499.5,39C 510.833,38.3333 522.167,38.3333 533.5,39C 534.126,39.7504 534.626,40.5838 535,41.5C 535.667,67.1667 535.667,92.8333 535,118.5C 530.983,122.855 527.316,127.522 524,132.5C 523.982,134.797 524.149,137.131 524.5,139.5C 523.5,139.5 522.5,139.5 521.5,139.5C 521.511,137.453 521.844,135.453 522.5,133.5C 521.908,131.577 520.908,129.911 519.5,128.5 Z"/></g>
<g><path style="opacity:1" fill="#c1c1c1" d="M 40.5,49.5 C 55.9314,50.152 71.2648,50.8186 86.5,51.5C 70.7969,52.1507 55.4636,51.4841 40.5,49.5 Z"/></g>
<g><path style="opacity:0.777" fill="#171717" d="M 311.5,63.5 C 314.027,64.5171 316.527,64.5171 319,63.5C 320.261,63.7591 321.261,64.4258 322,65.5C 323.478,73.1113 323.812,80.778 323,88.5C 321.93,97.9215 317.596,99.9215 310,94.5C 308.452,85.5623 308.119,76.5623 309,67.5C 309.48,65.867 310.313,64.5336 311.5,63.5 Z M 312.5,66.5 C 310.056,75.068 309.89,83.7347 312,92.5C 313.83,95.6643 316.33,96.331 319.5,94.5C 320.976,85.0998 320.81,75.7665 319,66.5C 316.88,67.6053 314.713,67.6053 312.5,66.5 Z"/></g>
<g><path style="opacity:1" fill="#8e8e8e" d="M 559.5,68.5 C 559.56,67.9569 559.893,67.6236 560.5,67.5C 561.498,75.8068 561.831,84.1401 561.5,92.5C 560.833,84.5 560.167,76.5 559.5,68.5 Z"/></g>
<g><path style="opacity:1" fill="#8d8d8d" d="M 517.5,127.5 C 518.492,127.328 519.158,127.662 519.5,128.5C 518.71,129.609 518.21,130.942 518,132.5C 516.372,131.038 516.205,129.372 517.5,127.5 Z"/></g>
<g><path style="opacity:1" fill="#535353" d="M 29.5,128.5 C 29.5405,131.881 29.2071,135.214 28.5,138.5C 28.1667,138.5 27.8333,138.5 27.5,138.5C 27.5,135.833 27.5,133.167 27.5,130.5C 28.1667,129.833 28.8333,129.167 29.5,128.5 Z"/></g>
<g><path style="opacity:1" fill="#6a6a6a" d="M 506.5,125.5 C 505.834,128.689 505.167,132.023 504.5,135.5C 503.893,135.376 503.56,135.043 503.5,134.5C 504.166,131.311 504.833,127.977 505.5,124.5C 506.107,124.624 506.44,124.957 506.5,125.5 Z"/></g>
<g><path style="opacity:1" fill="#777777" d="M 8.5,131.5 C 9.80034,134.024 9.80034,136.691 8.5,139.5C 7.89333,139.376 7.55999,139.043 7.5,138.5C 8.46822,136.393 8.80155,134.059 8.5,131.5 Z"/></g>
<g><path style="opacity:1" fill="#b1b1b1" d="M 27.5,138.5 C 27.8333,138.5 28.1667,138.5 28.5,138.5C 28.6657,142.846 28.499,147.179 28,151.5C 26.9363,150.056 26.4363,148.389 26.5,146.5C 26.837,143.824 27.1703,141.157 27.5,138.5 Z"/></g>
<g><path style="opacity:1" fill="#818181" d="M 411.5,154.5 C 412.167,156.167 412.833,157.833 413.5,159.5C 413.631,160.376 413.298,161.043 412.5,161.5C 411.526,159.257 411.192,156.924 411.5,154.5 Z"/></g>
<g><path style="opacity:1" fill="#9f9f9f" d="M 220.5,156.5 C 221.348,155.375 222.348,155.375 223.5,156.5C 223.823,160.226 223.489,163.893 222.5,167.5C 221.833,163.687 221.166,160.021 220.5,156.5 Z"/></g>
<g><path style="opacity:0.808" fill="#0b0b0b" d="M -0.5,311.5 C -0.5,283.5 -0.5,255.5 -0.5,227.5C 3.9906,225.947 8.65726,225.114 13.5,225C 8.23964,223.87 3.57297,221.703 -0.5,218.5C -0.5,209.833 -0.5,201.167 -0.5,192.5C 1.59264,190.233 4.25931,188.9 7.5,188.5C 15.3291,189.816 23.1624,189.816 31,188.5C 34.267,188.696 36.9337,190.03 39,192.5C 39.6667,201.167 39.6667,209.833 39,218.5C 35.7639,221.615 31.9306,223.782 27.5,225C 32.4217,224.621 36.5884,226.121 40,229.5C 40.6667,256.167 40.6667,282.833 40,309.5C 36.6071,313.223 33.6071,317.223 31,321.5C 29.964,324.971 29.1307,328.471 28.5,332C 23.178,332.493 21.178,329.993 22.5,324.5C 18.3994,323.512 14.5661,321.846 11,319.5C 10.7305,322.224 10.2305,324.891 9.5,327.5C 8.16667,328.833 6.83333,328.833 5.5,327.5C 3.61985,323.359 2.45318,319.026 2,314.5C 1.62325,313.058 0.789915,312.058 -0.5,311.5 Z"/></g>
<g><path style="opacity:1" fill="#fbfbfb" d="M 3.5,191.5 C 14.1719,191.333 24.8385,191.5 35.5,192C 36.1258,192.75 36.6258,193.584 37,194.5C 37.6667,202.167 37.6667,209.833 37,217.5C 31.6191,220.278 26.1191,222.612 20.5,224.5C 14.8476,222.832 9.1809,220.999 3.5,219C 3,218.5 2.5,218 2,217.5C 1.33333,209.5 1.33333,201.5 2,193.5C 2.71719,192.956 3.21719,192.289 3.5,191.5 Z"/></g>
<g><path style="opacity:0.751" fill="#101010" d="M 613.5,195.5 C 625.838,195.333 638.171,195.5 650.5,196C 652.333,196.5 653.5,197.667 654,199.5C 654.168,209.849 654.668,220.183 655.5,230.5C 668.161,223.064 681.161,222.564 694.5,229C 703.303,234.815 708.47,242.982 710,253.5C 710.667,272.5 710.667,291.5 710,310.5C 708.319,312.548 706.819,314.715 705.5,317C 704.552,317.483 703.552,317.649 702.5,317.5C 701.526,323.764 699.192,329.43 695.5,334.5C 698.098,339.329 697.098,343.329 692.5,346.5C 688.733,345.59 687.733,343.424 689.5,340C 688.809,338.933 688.309,337.766 688,336.5C 686.225,339.044 684.392,339.044 682.5,336.5C 681.154,331.963 679.321,327.629 677,323.5C 672.851,319.196 669.184,314.53 666,309.5C 665.667,293.833 665.333,278.167 665,262.5C 663.786,269.792 662.453,277.126 661,284.5C 657.554,285.761 655.554,284.428 655,280.5C 654.667,290.167 654.333,299.833 654,309.5C 650.962,312.909 648.962,316.909 648,321.5C 645.88,324.08 643.713,324.08 641.5,321.5C 639.268,325.777 635.935,327.61 631.5,327C 630.167,328.667 628.833,330.333 627.5,332C 626.216,332.684 625.049,332.517 624,331.5C 621.318,322.779 616.651,315.446 610,309.5C 609.333,273.167 609.333,236.833 610,200.5C 610.997,198.677 612.164,197.01 613.5,195.5 Z"/></g>
<g><path style="opacity:0.805" fill="#0b0b0b" d="M 983.5,195.5 C 995.171,195.333 1006.84,195.5 1018.5,196C 1019.93,196.465 1021.1,197.299 1022,198.5C 1022.19,233.681 1022.69,268.847 1023.5,304C 1023.31,309.206 1021.15,313.373 1017,316.5C 1016.59,319.232 1015.92,321.899 1015,324.5C 1011.16,327.493 1009,326.493 1008.5,321.5C 997.363,324.016 988.863,320.349 983,310.5C 981.46,314.419 979.293,317.919 976.5,321C 974.82,321.034 973.32,321.201 972,321.5C 972.458,325.865 972.292,330.198 971.5,334.5C 966.579,336.757 963.912,335.257 963.5,330C 965.916,324.257 964.583,319.757 959.5,316.5C 941.761,314.92 930.594,305.587 926,288.5C 924.529,278.207 924.196,267.873 925,257.5C 929.342,232.404 944.176,221.571 969.5,225C 972.618,225.873 975.618,227.039 978.5,228.5C 979.332,219.184 979.832,209.851 980,200.5C 980.997,198.677 982.164,197.01 983.5,195.5 Z M 975.5,258.5 C 976.675,258.281 977.675,258.614 978.5,259.5C 980.448,266.031 980.614,272.698 979,279.5C 974.172,283.558 970.838,282.558 969,276.5C 968.313,270.796 968.479,265.13 969.5,259.5C 971.735,259.795 973.735,259.461 975.5,258.5 Z"/></g>
<g><path style="opacity:0.74" fill="#171717" d="M 1167.5,198.5 C 1167.5,220.833 1167.5,243.167 1167.5,265.5C 1167.17,265.5 1166.83,265.5 1166.5,265.5C 1166.67,244.164 1166.5,222.831 1166,201.5C 1165.5,201 1165,200.5 1164.5,200C 1153.83,199.333 1143.17,199.333 1132.5,200C 1132,200.5 1131.5,201 1131,201.5C 1130.33,223.167 1130.33,244.833 1131,266.5C 1135.59,270.043 1140.75,272.376 1146.5,273.5C 1141.83,274.167 1137.17,274.833 1132.5,275.5C 1131.88,275.611 1131.38,275.944 1131,276.5C 1130.33,287.5 1130.33,298.5 1131,309.5C 1133.2,311.669 1134.04,314.335 1133.5,317.5C 1133.67,322.859 1134.17,328.192 1135,333.5C 1135.5,327.843 1135.67,322.176 1135.5,316.5C 1136.39,311.515 1138.23,311.181 1141,315.5C 1141.18,318.956 1141.85,322.289 1143,325.5C 1143.33,322.833 1143.67,320.167 1144,317.5C 1144.67,316.167 1145.33,316.167 1146,317.5C 1149.05,323.015 1150.39,329.015 1150,335.5C 1150.29,337.044 1150.96,338.377 1152,339.5C 1152.74,333.485 1153.58,327.485 1154.5,321.5C 1156.89,319.393 1158.22,316.727 1158.5,313.5C 1159.83,313.5 1161.17,313.5 1162.5,313.5C 1162.34,315.199 1162.51,316.866 1163,318.5C 1163.55,315.298 1164.55,312.298 1166,309.5C 1166.5,299.172 1166.67,288.839 1166.5,278.5C 1166.83,278.5 1167.17,278.5 1167.5,278.5C 1167.5,289.833 1167.5,301.167 1167.5,312.5C 1166.35,315.698 1165.02,318.865 1163.5,322C 1161.61,322.163 1160.11,321.329 1159,319.5C 1158.58,320.672 1157.91,321.672 1157,322.5C 1156,329.167 1155,335.833 1154,342.5C 1152.33,343.833 1150.67,343.833 1149,342.5C 1148.11,336.844 1147.28,331.177 1146.5,325.5C 1144.74,328.926 1142.57,329.259 1140,326.5C 1139.55,323.123 1138.88,319.789 1138,316.5C 1137.73,323.867 1137.23,331.2 1136.5,338.5C 1134.55,338.773 1133.05,338.107 1132,336.5C 1131.67,329.5 1131.33,322.5 1131,315.5C 1130.44,313.275 1129.44,311.275 1128,309.5C 1127.33,298.833 1127.33,288.167 1128,277.5C 1129.38,274.117 1131.88,272.284 1135.5,272C 1131.98,271.496 1129.48,269.663 1128,266.5C 1127.33,244.833 1127.33,223.167 1128,201.5C 1129.44,198.334 1131.94,196.667 1135.5,196.5C 1146.2,197.167 1156.86,197.833 1167.5,198.5 Z"/></g>
<g><path style="opacity:1" fill="#fcfcfc" d="M 615.5,197.5 C 626.838,197.333 638.172,197.5 649.5,198C 650.333,198.833 651.167,199.667 652,200.5C 652.333,212.167 652.667,223.833 653,235.5C 665.96,225.045 679.793,223.878 694.5,232C 702.308,237.836 706.808,245.67 708,255.5C 708.667,273.167 708.667,290.833 708,308.5C 706.625,310.376 705.458,312.376 704.5,314.5C 703.575,313.359 702.741,313.359 702,314.5C 699.573,318.54 697.906,322.874 697,327.5C 696.047,329.455 694.713,331.122 693,332.5C 692.852,334.905 693.352,337.239 694.5,339.5C 693.909,341.266 693.076,342.933 692,344.5C 689.977,342.987 690.144,341.654 692.5,340.5C 690.836,337.103 690.003,333.436 690,329.5C 689.147,327.875 688.147,327.542 687,328.5C 686.814,330.9 686.314,333.234 685.5,335.5C 683.946,331.391 682.113,327.391 680,323.5C 675.952,319.12 672.285,314.454 669,309.5C 668.667,293.5 668.333,277.5 668,261.5C 667.311,257.217 665.811,256.717 663.5,260C 662.552,260.483 661.552,260.649 660.5,260.5C 660.666,267.508 660.5,274.508 660,281.5C 659.586,281.957 659.086,282.291 658.5,282.5C 657.719,281.271 657.219,279.938 657,278.5C 656.667,271.833 656.333,265.167 656,258.5C 654.605,257.185 653.605,257.519 653,259.5C 652.667,275.833 652.333,292.167 652,308.5C 648.59,311.319 646.757,314.986 646.5,319.5C 646,319.833 645.5,320.167 645,320.5C 643.832,319.491 642.665,318.491 641.5,317.5C 639.24,319.177 637.573,321.343 636.5,324C 631.476,322.489 628.142,324.322 626.5,329.5C 623.215,321.905 618.715,315.238 613,309.5C 612.333,272.833 612.333,236.167 613,199.5C 613.995,198.934 614.828,198.267 615.5,197.5 Z"/></g>
<g><path style="opacity:1" fill="#fcfcfc" d="M 980.5,232.5 C 980.56,233.043 980.893,233.376 981.5,233.5C 982.499,222.854 982.832,212.187 982.5,201.5C 982.574,199.589 983.574,198.422 985.5,198C 996.167,197.333 1006.83,197.333 1017.5,198C 1018.42,198.374 1019.25,198.874 1020,199.5C 1020.67,236.167 1020.67,272.833 1020,309.5C 1015.14,313.352 1012.47,318.352 1012,324.5C 1010.66,321.978 1009.83,319.311 1009.5,316.5C 1007.41,316.439 1005.91,315.439 1005,313.5C 1004.5,315.81 1004.34,318.143 1004.5,320.5C 993.967,319.79 987.133,314.456 984,304.5C 980.976,307.517 978.976,311.184 978,315.5C 975,317.167 972,318.833 969,320.5C 969.077,324.805 969.244,329.138 969.5,333.5C 968.5,333.5 967.5,333.5 966.5,333.5C 966.32,329.785 966.654,326.118 967.5,322.5C 965.79,318.929 963.456,315.763 960.5,313C 942.596,312.802 931.763,303.969 928,286.5C 925.741,274.085 926.075,261.751 929,249.5C 935.95,232.104 948.783,224.604 967.5,227C 972.182,228.167 976.516,230 980.5,232.5 Z M 975.5,258.5 C 973.735,259.461 971.735,259.795 969.5,259.5C 968.479,265.13 968.313,270.796 969,276.5C 970.838,282.558 974.172,283.558 979,279.5C 980.614,272.698 980.448,266.031 978.5,259.5C 977.675,258.614 976.675,258.281 975.5,258.5 Z"/></g>
<g><path style="opacity:1" fill="#494949" d="M 982.5,201.5 C 982.832,212.187 982.499,222.854 981.5,233.5C 980.893,233.376 980.56,233.043 980.5,232.5C 981.167,222.167 981.833,211.833 982.5,201.5 Z"/></g>
<g><path style="opacity:0.707" fill="#0f0f0f" d="M 115.5,224.5 C 141.095,222.264 154.928,233.931 157,259.5C 157.667,275.833 157.667,292.167 157,308.5C 155.799,311.71 153.799,314.377 151,316.5C 150.092,321.193 149.092,325.86 148,330.5C 146.612,331.554 145.112,331.72 143.5,331C 141.947,328.345 140.78,325.512 140,322.5C 138.785,327.051 138.119,331.718 138,336.5C 134.617,337.519 132.283,336.185 131,332.5C 130.101,327.849 129.268,323.182 128.5,318.5C 127.252,317.96 126.085,317.293 125,316.5C 122.936,317.591 120.769,317.758 118.5,317C 116.641,315.442 115.141,313.609 114,311.5C 112.908,294.867 112.074,278.2 111.5,261.5C 108.976,263.868 106.81,266.534 105,269.5C 103.989,268.663 102.822,268.33 101.5,268.5C 101.667,282.504 101.5,296.504 101,310.5C 98.9012,315.886 94.9012,318.553 89,318.5C 86.4316,318.049 84.0983,317.049 82,315.5C 79.73,318.153 77.0633,318.819 74,317.5C 71.4526,318.473 69.9526,320.307 69.5,323C 68.5,323.667 67.5,323.667 66.5,323C 64.9231,320.436 63.9231,317.603 63.5,314.5C 60.5596,313.46 58.7263,311.46 58,308.5C 57.3333,282.833 57.3333,257.167 58,231.5C 58.5,228.333 60.3333,226.5 63.5,226C 73.8333,225.333 84.1667,225.333 94.5,226C 97,227.167 98.8333,229 100,231.5C 102.583,230.126 105.083,228.626 107.5,227C 110.379,226.454 113.046,225.621 115.5,224.5 Z"/></g>
<g><path style="opacity:0.77" fill="#0d0d0d" d="M 324.5,224.5 C 374.08,220.905 393.246,243.239 382,291.5C 380.139,297.223 376.806,301.89 372,305.5C 371.667,308.5 371.333,311.5 371,314.5C 369.111,315.097 367.278,315.431 365.5,315.5C 364.56,318.803 363.727,322.136 363,325.5C 361.867,327.211 360.367,327.711 358.5,327C 356.879,324.834 356.045,322.334 356,319.5C 355.55,322.106 354.05,323.439 351.5,323.5C 351.348,327.487 349.348,328.987 345.5,328C 344.718,325.26 344.218,322.426 344,319.5C 341.059,320.935 339.559,323.269 339.5,326.5C 337.856,326.714 336.356,326.38 335,325.5C 333.85,322.232 333.016,318.899 332.5,315.5C 316.187,316.089 303.02,310.089 293,297.5C 290.34,293.186 288.673,288.519 288,283.5C 287.333,274.5 287.333,265.5 288,256.5C 289.932,245.249 295.765,236.749 305.5,231C 311.708,228.098 318.041,225.932 324.5,224.5 Z M 332.5,256.5 C 335.13,257.473 337.63,257.806 340,257.5C 340.29,261.863 340.79,266.196 341.5,270.5C 340.803,274.471 340.303,278.471 340,282.5C 336.947,286.506 334.281,286.173 332,281.5C 331.227,273.118 331.394,264.785 332.5,256.5 Z"/></g>
<g><path style="opacity:0.752" fill="#111111" d="M 754.5,224.5 C 765.289,223.975 775.955,224.808 786.5,227C 800.396,231.938 808.229,241.772 810,256.5C 810.667,273.833 810.667,291.167 810,308.5C 809.654,310.848 808.487,312.681 806.5,314C 809.007,317.207 808.841,320.374 806,323.5C 805.163,325.007 803.996,325.507 802.5,325C 801.15,323.282 799.983,321.448 799,319.5C 798.131,322.394 796.298,323.561 793.5,323C 791.85,320.187 789.85,317.687 787.5,315.5C 784.887,318.391 783.054,321.724 782,325.5C 777.453,327.303 775.453,325.637 776,320.5C 773.821,317.462 771.655,314.462 769.5,311.5C 767.724,313.538 766.057,315.704 764.5,318C 763.552,318.483 762.552,318.649 761.5,318.5C 760.9,323.198 760.067,327.864 759,332.5C 757.612,333.554 756.112,333.72 754.5,333C 752.619,328.649 751.119,324.149 750,319.5C 748.978,318.646 748.145,317.646 747.5,316.5C 736.696,315.514 727.529,311.18 720,303.5C 711.08,288.1 713.914,275.267 728.5,265C 732.271,262.781 736.271,261.115 740.5,260C 717.147,258.369 714.147,249.369 731.5,233C 738.574,228.257 746.24,225.423 754.5,224.5 Z M 765.5,280.5 C 766.803,282.757 766.136,284.59 763.5,286C 760.621,286.874 757.955,286.54 755.5,285C 756.167,284.333 756.833,283.667 757.5,283C 760.379,282.454 763.046,281.621 765.5,280.5 Z"/></g>
<g><path style="opacity:0.747" fill="#0f0f0f" d="M 876.5,224.5 C 897.978,221.846 911.478,230.846 917,251.5C 917.479,270.181 917.812,288.848 918,307.5C 917.207,311.295 915.207,314.295 912,316.5C 911.092,321.193 910.092,325.86 909,330.5C 907.612,331.554 906.112,331.72 904.5,331C 902.946,328.314 901.612,325.481 900.5,322.5C 899.672,327.132 899.172,331.798 899,336.5C 897.951,337.517 896.784,337.684 895.5,337C 893.106,335.048 891.606,332.548 891,329.5C 890.825,325.789 890.325,322.122 889.5,318.5C 888.252,317.96 887.085,317.293 886,316.5C 879.507,318.059 875.507,315.392 874,308.5C 873.833,292.823 873.333,277.156 872.5,261.5C 869.976,263.868 867.81,266.534 866,269.5C 864.989,268.663 863.822,268.33 862.5,268.5C 862.967,283.264 862.467,297.93 861,312.5C 855.745,318.85 849.579,319.85 842.5,315.5C 841.387,317.031 839.887,318.031 838,318.5C 834.041,317.237 831.541,318.737 830.5,323C 829.5,323.667 828.5,323.667 827.5,323C 825.923,320.436 824.923,317.603 824.5,314.5C 821.443,313.61 819.609,311.61 819,308.5C 818.333,282.833 818.333,257.167 819,231.5C 819.5,228.333 821.333,226.5 824.5,226C 835.573,225.069 846.573,225.403 857.5,227C 859.049,228.214 860.215,229.714 861,231.5C 863.583,230.126 866.083,228.626 868.5,227C 871.379,226.454 874.046,225.621 876.5,224.5 Z"/></g>
<g><path style="opacity:0.779" fill="#0d0d0d" d="M 1062.5,224.5 C 1080.64,222.07 1096.98,226.236 1111.5,237C 1119.38,245.148 1119.38,253.148 1111.5,261C 1110.06,261.219 1108.73,261.719 1107.5,262.5C 1124.67,275.887 1125.84,290.553 1111,306.5C 1108.37,311.452 1105.04,315.785 1101,319.5C 1100.67,321.167 1100.33,322.833 1100,324.5C 1098.06,325.86 1096.4,325.527 1095,323.5C 1093.78,325.968 1092.12,327.968 1090,329.5C 1089.23,329.355 1088.56,329.022 1088,328.5C 1087.67,325.5 1087.33,322.5 1087,319.5C 1085.78,321.968 1084.12,323.968 1082,325.5C 1076.83,324.524 1073.33,321.524 1071.5,316.5C 1055.86,316.351 1042.7,310.684 1032,299.5C 1028.75,295.122 1028.08,290.456 1030,285.5C 1030.75,284.874 1031.58,284.374 1032.5,284C 1037.83,283.667 1043.17,283.333 1048.5,283C 1045.96,280.128 1043.13,277.628 1040,275.5C 1026.9,260.865 1027.4,246.698 1041.5,233C 1048,228.672 1055,225.838 1062.5,224.5 Z M 1071.5,287.5 C 1073.09,286.379 1074.76,286.546 1076.5,288C 1074.8,288.384 1073.14,288.218 1071.5,287.5 Z"/></g>
<g><path style="opacity:0.749" fill="#101010" d="M 248.5,231.5 C 250.069,228.772 252.402,226.938 255.5,226C 265.5,225.333 275.5,225.333 285.5,226C 288.442,226.94 289.775,228.94 289.5,232C 273.689,273.107 256.522,313.607 238,353.5C 236.644,354.38 235.144,354.714 233.5,354.5C 233.662,352.473 233.495,350.473 233,348.5C 228.255,349.057 223.755,350.39 219.5,352.5C 216.572,351.079 215.238,352.079 215.5,355.5C 213.5,355.5 211.5,355.5 209.5,355.5C 209.026,352.079 209.026,348.745 209.5,345.5C 206.386,343.899 204.72,341.399 204.5,338C 208.394,327.488 212.394,316.988 216.5,306.5C 206.766,282.798 196.932,259.132 187,235.5C 185.462,230.831 186.962,227.664 191.5,226C 202.559,225.094 213.559,225.427 224.5,227C 225.701,227.903 226.535,229.069 227,230.5C 230.47,240.577 234.137,250.577 238,260.5C 242.077,251.018 245.577,241.351 248.5,231.5 Z"/></g>
<g><path style="opacity:0.75" fill="#0d0d0d" d="M 396.5,225.5 C 407.838,225.333 419.172,225.5 430.5,226C 432.286,226.785 433.786,227.951 435,229.5C 435.333,245.833 435.667,262.167 436,278.5C 438.932,283.111 442.265,283.445 446,279.5C 446.028,262.409 446.694,245.409 448,228.5C 448.903,227.299 450.069,226.465 451.5,226C 462.833,225.333 474.167,225.333 485.5,226C 486.931,226.465 488.097,227.299 489,228.5C 490.649,255.413 490.982,282.413 490,309.5C 486.517,314.297 483.684,319.464 481.5,325C 480.101,325.595 478.768,325.428 477.5,324.5C 473.844,329.903 470.677,329.569 468,323.5C 467.517,324.448 467.351,325.448 467.5,326.5C 465.856,326.714 464.356,326.38 463,325.5C 461.725,323.283 460.725,320.949 460,318.5C 458.23,319.276 456.397,319.11 454.5,318C 452.274,315.047 450.441,311.88 449,308.5C 448.529,310.246 447.862,311.913 447,313.5C 442.645,316.605 438.979,320.272 436,324.5C 434.739,324.241 433.739,323.574 433,322.5C 431.887,323.711 430.72,323.711 429.5,322.5C 427.971,319.471 425.638,317.305 422.5,316C 405.443,313.276 395.276,303.442 392,286.5C 391.333,267.5 391.333,248.5 392,229.5C 393.397,227.93 394.897,226.596 396.5,225.5 Z"/></g>
<g><path style="opacity:0.733" fill="#0e0e0e" d="M 505.5,225.5 C 515.839,225.334 526.172,225.5 536.5,226C 539.371,227.371 541.371,229.537 542.5,232.5C 552.008,226.691 562.342,224.524 573.5,226C 575.286,226.785 576.786,227.951 578,229.5C 578.667,239.833 578.667,250.167 578,260.5C 574.112,264.06 571.446,268.393 570,273.5C 568.062,274.86 566.396,274.527 565,272.5C 565.484,267.138 563.317,265.471 558.5,267.5C 553.828,274.385 548.995,275.052 544,269.5C 543.667,283.167 543.333,296.833 543,310.5C 539.419,315.328 536.085,320.328 533,325.5C 532.261,326.574 531.261,327.241 530,327.5C 527.929,326.225 526.429,324.391 525.5,322C 523.273,321.879 521.44,321.046 520,319.5C 512.287,327.229 507.62,325.563 506,314.5C 502.818,313.595 500.818,311.595 500,308.5C 499.333,282.833 499.333,257.167 500,231.5C 500.683,228.321 502.516,226.321 505.5,225.5 Z"/></g>
<g><path style="opacity:1" fill="#fbfbfb" d="M 1111.5,254.5 C 1110.5,255.5 1109.5,256.5 1108.5,257.5C 1106.3,259.64 1103.63,261.14 1100.5,262C 1118.52,270.071 1123.02,282.904 1114,300.5C 1109.35,305.494 1105.01,310.828 1101,316.5C 1100.67,315.167 1100.33,313.833 1100,312.5C 1099.12,315.789 1098.45,319.123 1098,322.5C 1097.67,320.167 1097.33,317.833 1097,315.5C 1095.17,319.363 1092.83,323.03 1090,326.5C 1089.5,322.848 1089.33,319.182 1089.5,315.5C 1088.45,315.351 1087.45,315.517 1086.5,316C 1084.95,318.257 1083.29,320.424 1081.5,322.5C 1080.83,320.833 1080.17,319.167 1079.5,317.5C 1078.72,318.729 1078.22,320.062 1078,321.5C 1077.14,319.913 1076.47,318.246 1076,316.5C 1075.67,317.167 1075.33,317.833 1075,318.5C 1073.99,316.975 1073.49,315.308 1073.5,313.5C 1058.54,314.458 1045.7,309.792 1035,299.5C 1033,296.679 1031.83,293.513 1031.5,290C 1031.44,288.289 1032.11,286.956 1033.5,286C 1043.83,285.333 1054.17,285.333 1064.5,286C 1067.77,287.803 1071.1,289.303 1074.5,290.5C 1079.71,288.823 1079.71,286.657 1074.5,284C 1067.5,283.667 1060.5,283.333 1053.5,283C 1048.02,279.346 1043.02,275.179 1038.5,270.5C 1038.5,269.833 1038.17,269.5 1037.5,269.5C 1029.51,255.611 1031.84,243.777 1044.5,234C 1062.43,224.675 1080.76,224.008 1099.5,232C 1107.49,235.483 1112.82,241.317 1115.5,249.5C 1115.25,252.077 1113.92,253.743 1111.5,254.5 Z M 1071.5,287.5 C 1073.14,288.218 1074.8,288.384 1076.5,288C 1074.76,286.546 1073.09,286.379 1071.5,287.5 Z"/></g>
<g><path style="opacity:1" fill="#fdfdfd" d="M 116.5,226.5 C 136.401,224.687 148.901,233.354 154,252.5C 154.667,271.5 154.667,290.5 154,309.5C 152.237,312.02 150.237,314.353 148,316.5C 147.889,321.103 146.889,325.436 145,329.5C 144.313,323.789 141.813,319.122 137.5,315.5C 136.833,321.833 136.167,328.167 135.5,334.5C 134.667,333.5 133.833,332.5 133,331.5C 132.667,326.167 132.333,320.833 132,315.5C 131.586,315.957 131.086,316.291 130.5,316.5C 127.289,314.581 123.955,314.081 120.5,315C 118.652,313.482 117.152,311.649 116,309.5C 115.667,293.167 115.333,276.833 115,260.5C 114.385,258.884 113.385,257.551 112,256.5C 111.29,257.973 110.124,258.64 108.5,258.5C 108.719,259.675 108.386,260.675 107.5,261.5C 106.575,260.359 105.741,260.359 105,261.5C 105.046,263.313 104.88,264.979 104.5,266.5C 103.833,263.5 103.167,260.5 102.5,257.5C 101.522,257.977 100.689,258.643 100,259.5C 99.6667,276.167 99.3333,292.833 99,309.5C 97.3199,311.349 95.8199,313.349 94.5,315.5C 93.8076,314.975 93.3076,314.308 93,313.5C 88.8657,316.152 84.8657,315.819 81,312.5C 79.0403,313.292 77.5403,314.625 76.5,316.5C 75.1861,315.687 74.0195,314.687 73,313.5C 72.323,315.689 71.1563,316.022 69.5,314.5C 68.3534,322.421 67.52,322.421 67,314.5C 65.1847,312.595 63.1847,310.928 61,309.5C 60.3333,283.167 60.3333,256.833 61,230.5C 61.5,230 62,229.5 62.5,229C 73.5,228.333 84.5,228.333 95.5,229C 97.1213,231.166 97.9546,233.666 98,236.5C 103.457,231.691 109.624,228.357 116.5,226.5 Z"/></g>
<g><path style="opacity:1" fill="#fcfcfc" d="M 369.5,305.5 C 368.833,307.5 368.167,309.5 367.5,311.5C 365.473,312.125 363.64,312.125 362,311.5C 361.667,315.5 361.333,319.5 361,323.5C 360.586,323.957 360.086,324.291 359.5,324.5C 358.673,320.541 358.173,316.541 358,312.5C 355.423,314.655 353.589,317.321 352.5,320.5C 351.833,318.5 351.167,316.5 350.5,314.5C 349.676,317.785 349.176,321.118 349,324.5C 348.586,324.957 348.086,325.291 347.5,325.5C 346.833,322.167 346.167,318.833 345.5,315.5C 344.5,316.833 343.5,316.833 342.5,315.5C 341.808,316.025 341.308,316.692 341,317.5C 340.311,316.643 339.478,315.977 338.5,315.5C 337.682,318.107 337.182,320.774 337,323.5C 335.684,320.312 335.184,316.978 335.5,313.5C 321.776,313.981 309.61,309.981 299,301.5C 294.747,296.993 292.08,291.66 291,285.5C 282.775,247.756 297.775,228.09 336,226.5C 372.004,227.506 387.337,245.84 382,281.5C 380.622,291.021 376.455,299.021 369.5,305.5 Z M 332.5,256.5 C 331.394,264.785 331.227,273.118 332,281.5C 334.281,286.173 336.947,286.506 340,282.5C 340.303,278.471 340.803,274.471 341.5,270.5C 340.79,266.196 340.29,261.863 340,257.5C 337.63,257.806 335.13,257.473 332.5,256.5 Z"/></g>
<g><path style="opacity:1" fill="#fcfcfc" d="M 756.5,226.5 C 768.906,225.883 780.906,227.717 792.5,232C 800.407,236.644 805.24,243.477 807,252.5C 807.667,271.5 807.667,290.5 807,309.5C 805.437,310.725 804.27,312.225 803.5,314C 805.029,315.582 805.529,317.415 805,319.5C 804.085,320.328 803.419,321.328 803,322.5C 802.899,319.3 802.232,316.3 801,313.5C 798.824,315.875 796.657,318.208 794.5,320.5C 792.835,317.344 790.668,314.677 788,312.5C 783.85,315.454 781.183,319.454 780,324.5C 777.781,319.275 775.114,314.275 772,309.5C 771.808,307.423 771.308,305.423 770.5,303.5C 767.161,306.786 764.995,310.786 764,315.5C 763,316.833 762,316.833 761,315.5C 760.333,316.167 759.667,316.833 759,317.5C 758.951,322.032 758.118,326.366 756.5,330.5C 754.775,327.072 753.608,323.405 753,319.5C 751.833,317.833 750.667,316.167 749.5,314.5C 739.361,313.846 730.528,310.18 723,303.5C 712.362,284.092 717.528,270.592 738.5,263C 748.646,260.087 758.979,258.254 769.5,257.5C 769.856,254.436 769.023,251.769 767,249.5C 765.244,254.938 762.577,255.605 759,251.5C 754.273,254.577 749.106,256.577 743.5,257.5C 737.96,256.04 732.294,255.207 726.5,255C 722.896,253.666 721.729,251.166 723,247.5C 726.908,239.293 733.075,233.46 741.5,230C 746.6,228.676 751.6,227.509 756.5,226.5 Z M 765.5,280.5 C 763.046,281.621 760.379,282.454 757.5,283C 756.833,283.667 756.167,284.333 755.5,285C 757.955,286.54 760.621,286.874 763.5,286C 766.136,284.59 766.803,282.757 765.5,280.5 Z"/></g>
<g><path style="opacity:1" fill="#fdfdfd" d="M 893.5,327.5 C 893.826,323.116 893.492,318.783 892.5,314.5C 891.702,314.957 891.369,315.624 891.5,316.5C 887.988,314.534 884.322,314.034 880.5,315C 879.458,313.082 878.292,311.249 877,309.5C 876.667,293.167 876.333,276.833 876,260.5C 875.385,258.884 874.385,257.551 873,256.5C 872.29,257.973 871.124,258.64 869.5,258.5C 869.719,259.675 869.386,260.675 868.5,261.5C 867.575,260.359 866.741,260.359 866,261.5C 866.046,263.313 865.88,264.979 865.5,266.5C 864.833,263.5 864.167,260.5 863.5,257.5C 862.201,258.09 861.368,259.09 861,260.5C 860.667,276.833 860.333,293.167 860,309.5C 858.32,311.349 856.82,313.349 855.5,315.5C 854.808,314.975 854.308,314.308 854,313.5C 849.866,316.152 845.866,315.819 842,312.5C 840.04,313.292 838.54,314.625 837.5,316.5C 836.186,315.687 835.019,314.687 834,313.5C 833.323,315.689 832.156,316.022 830.5,314.5C 829.353,322.421 828.52,322.421 828,314.5C 826.185,312.595 824.185,310.928 822,309.5C 821.333,283.167 821.333,256.833 822,230.5C 822.5,230 823,229.5 823.5,229C 834.5,228.333 845.5,228.333 856.5,229C 858.121,231.166 858.955,233.666 859,236.5C 872.443,225.081 886.943,223.581 902.5,232C 909.616,237.45 913.783,244.617 915,253.5C 915.667,272.167 915.667,290.833 915,309.5C 913,312.167 911,314.833 909,317.5C 908.625,321.721 907.625,325.721 906,329.5C 905.087,323.883 902.587,319.216 898.5,315.5C 897.833,321.833 897.167,328.167 896.5,334.5C 894.151,332.796 893.151,330.463 893.5,327.5 Z"/></g>
<g><path style="opacity:1" fill="#fafafa" d="M 22.5,318.5 C 22.1583,317.662 21.4916,317.328 20.5,317.5C 17.1733,311.95 15.6733,312.617 16,319.5C 13.6987,318.24 11.5321,316.907 9.5,315.5C 9.44001,314.957 9.10667,314.624 8.5,314.5C 7.8328,317.977 7.16613,321.311 6.5,324.5C 5.39021,320.594 4.55687,316.594 4,312.5C 3,311.5 2,310.5 1,309.5C 0.333333,283.167 0.333333,256.833 1,230.5C 1.5,230 2,229.5 2.5,229C 13.8333,228.333 25.1667,228.333 36.5,229C 37,229.5 37.5,230 38,230.5C 38.6667,256.5 38.6667,282.5 38,308.5C 33.9827,312.855 30.316,317.522 27,322.5C 26.9822,324.797 27.1489,327.131 27.5,329.5C 26.5,329.5 25.5,329.5 24.5,329.5C 24.3801,327.266 24.7135,325.099 25.5,323C 24.6854,321.357 23.6854,319.857 22.5,318.5 Z"/></g>
<g><path style="opacity:1" fill="#fcfcfc" d="M 190.5,228.5 C 201.603,228.046 212.603,228.546 223.5,230C 228.711,242.293 233.545,254.793 238,267.5C 242.702,254.542 247.868,241.876 253.5,229.5C 264.697,228.175 275.863,228.175 287,229.5C 287.667,231.167 287.667,232.833 287,234.5C 270.749,273.857 253.749,312.857 236,351.5C 235.667,349.167 235.333,346.833 235,344.5C 230.67,348.715 227.004,348.381 224,343.5C 223.536,349.175 222.869,349.508 222,344.5C 220.26,345.716 219.26,347.382 219,349.5C 219.026,345.695 217.192,343.695 213.5,343.5C 212.85,357.826 212.017,357.493 211,342.5C 209.933,341.809 208.766,341.309 207.5,341C 206.941,340.275 206.608,339.442 206.5,338.5C 210.547,327.519 214.881,316.686 219.5,306C 209.709,281.946 199.542,258.113 189,234.5C 188.252,232.16 188.752,230.16 190.5,228.5 Z"/></g>
<g><path style="opacity:1" fill="#fafafa" d="M 395.5,228.5 C 407.505,228.333 419.505,228.5 431.5,229C 432,229.5 432.5,230 433,230.5C 433.333,247.167 433.667,263.833 434,280.5C 438.667,285.833 443.333,285.833 448,280.5C 448.181,263.789 448.681,247.123 449.5,230.5C 450.025,229.808 450.692,229.308 451.5,229C 463.409,228.179 475.243,228.346 487,229.5C 488.648,255.746 488.982,282.08 488,308.5C 484.308,312.547 481.641,317.214 480,322.5C 479.667,319.833 479.333,317.167 479,314.5C 476.815,317.887 475.315,321.554 474.5,325.5C 473.178,325.67 472.011,325.337 471,324.5C 469.318,321.136 467.651,317.802 466,314.5C 465.667,317.5 465.333,320.5 465,323.5C 463.503,319.835 461.503,316.502 459,313.5C 458.685,316.147 457.518,316.813 455.5,315.5C 454.59,313.345 453.423,311.345 452,309.5C 451.667,307.167 451.333,304.833 451,302.5C 446.81,309.176 441.977,315.343 436.5,321C 436.167,321.167 435.833,321.333 435.5,321.5C 434.868,318.97 433.868,316.637 432.5,314.5C 431.692,316.423 431.192,318.423 431,320.5C 429.731,319.095 429.231,317.429 429.5,315.5C 422.556,313.569 415.556,311.402 408.5,309C 399.08,302.329 394.246,293.162 394,281.5C 393.333,264.5 393.333,247.5 394,230.5C 394.717,229.956 395.217,229.289 395.5,228.5 Z"/></g>
<g><path style="opacity:1" fill="#fcfcfc" d="M 524.5,314.5 C 524.44,313.957 524.107,313.624 523.5,313.5C 522.824,314.602 522.158,315.602 521.5,316.5C 521.539,315.244 521.039,314.244 520,313.5C 518.478,315.741 517.145,318.074 516,320.5C 515.009,312.904 513.842,313.238 512.5,321.5C 510.683,319.584 509.516,317.251 509,314.5C 507.185,312.595 505.185,310.928 503,309.5C 502.333,283.167 502.333,256.833 503,230.5C 503.5,230 504,229.5 504.5,229C 515.5,228.333 526.5,228.333 537.5,229C 539.155,231.507 539.989,234.341 540,237.5C 550.793,228.632 562.793,226.299 576,230.5C 576.667,240.167 576.667,249.833 576,259.5C 572.549,263.108 569.716,267.108 567.5,271.5C 567.234,264.362 563.901,261.862 557.5,264C 556.427,266.657 554.76,268.823 552.5,270.5C 551.596,262.713 550.263,262.713 548.5,270.5C 547.534,268.604 547.201,266.604 547.5,264.5C 544.762,263.965 542.928,264.965 542,267.5C 541.667,281.5 541.333,295.5 541,309.5C 537.333,314.5 533.667,319.5 530,324.5C 527.888,321.273 526.055,317.94 524.5,314.5 Z"/></g>
<g><path style="opacity:0.063" fill="#fefffe" d="M 231.5,229.5 C 232.833,230.167 232.833,230.167 231.5,229.5 Z"/></g>
<g><path style="opacity:0.063" fill="#fefffe" d="M 239.5,230.5 C 240.833,231.167 240.833,231.167 239.5,230.5 Z"/></g>
<g><path style="opacity:0.063" fill="#fefffe" d="M 248.5,231.5 C 247.833,230.167 247.833,230.167 248.5,231.5 Z"/></g>
<g><path style="opacity:1" fill="#191919" d="M 1070.5,250.5 C 1074.99,251.274 1078.66,253.441 1081.5,257C 1078.02,257.297 1074.68,256.631 1071.5,255C 1070.62,253.644 1070.29,252.144 1070.5,250.5 Z"/></g>
<g><path style="opacity:0.741" fill="#181818" d="M 331.5,253.5 C 334.2,254.516 336.866,254.516 339.5,253.5C 341.197,254.364 342.363,255.697 343,257.5C 343.881,266.562 343.548,275.562 342,284.5C 339.441,287.349 336.274,288.183 332.5,287C 330.683,285.2 329.516,283.034 329,280.5C 328.333,273.5 328.333,266.5 329,259.5C 329.236,257.189 330.069,255.189 331.5,253.5 Z M 332.5,256.5 C 331.394,264.785 331.227,273.118 332,281.5C 334.281,286.173 336.947,286.506 340,282.5C 340.303,278.471 340.803,274.471 341.5,270.5C 340.79,266.196 340.29,261.863 340,257.5C 337.63,257.806 335.13,257.473 332.5,256.5 Z"/></g>
<g><path style="opacity:0.752" fill="#0e0e0e" d="M 969.5,256.5 C 972.85,256.335 976.183,256.502 979.5,257C 980.701,257.903 981.535,259.069 982,260.5C 983.072,268.029 982.405,275.362 980,282.5C 974.631,285.774 970.298,284.774 967,279.5C 966.333,273.167 966.333,266.833 967,260.5C 967.662,259.016 968.496,257.683 969.5,256.5 Z M 975.5,258.5 C 973.735,259.461 971.735,259.795 969.5,259.5C 968.479,265.13 968.313,270.796 969,276.5C 970.838,282.558 974.172,283.558 979,279.5C 980.614,272.698 980.448,266.031 978.5,259.5C 977.675,258.614 976.675,258.281 975.5,258.5 Z"/></g>
<g><path style="opacity:1" fill="#7a7a7a" d="M 1111.5,254.5 C 1111.77,256.429 1111.27,258.095 1110,259.5C 1109.72,258.584 1109.22,257.918 1108.5,257.5C 1109.5,256.5 1110.5,255.5 1111.5,254.5 Z"/></g>
<g><path style="opacity:1" fill="#585858" d="M 1088.5,257.5 C 1090.1,257.312 1091.44,257.812 1092.5,259C 1090.54,259.844 1089.2,259.344 1088.5,257.5 Z"/></g>
<g><path style="opacity:0.823" fill="#0d0d0d" d="M 1166.5,265.5 C 1166.83,265.5 1167.17,265.5 1167.5,265.5C 1167.5,266.833 1167.5,268.167 1167.5,269.5C 1166.12,270.801 1164.45,271.634 1162.5,272C 1164.45,272.366 1166.12,273.199 1167.5,274.5C 1167.5,275.833 1167.5,277.167 1167.5,278.5C 1167.17,278.5 1166.83,278.5 1166.5,278.5C 1166.57,276.973 1165.91,275.973 1164.5,275.5C 1161.17,274.833 1157.83,274.167 1154.5,273.5C 1159.23,271.812 1163.23,269.145 1166.5,265.5 Z"/></g>
<g><path style="opacity:1" fill="#7a7a7a" d="M 1146.5,273.5 C 1147.76,273.461 1148.76,273.961 1149.5,275C 1143.84,275.499 1138.18,275.666 1132.5,275.5C 1137.17,274.833 1141.83,274.167 1146.5,273.5 Z"/></g>
<g><path style="opacity:1" fill="#8e8e8e" d="M 1154.5,273.5 C 1157.83,274.167 1161.17,274.833 1164.5,275.5C 1160.49,275.666 1156.49,275.499 1152.5,275C 1153.04,274.283 1153.71,273.783 1154.5,273.5 Z"/></g>
<g><path style="opacity:1" fill="#fdfdfd" d="M 1166.5,265.5 C 1163.23,269.145 1159.23,271.812 1154.5,273.5C 1153.71,273.783 1153.04,274.283 1152.5,275C 1156.49,275.499 1160.49,275.666 1164.5,275.5C 1165.91,275.973 1166.57,276.973 1166.5,278.5C 1166.67,288.839 1166.5,299.172 1166,309.5C 1164.55,312.298 1163.55,315.298 1163,318.5C 1162.51,316.866 1162.34,315.199 1162.5,313.5C 1161.17,313.5 1159.83,313.5 1158.5,313.5C 1158.22,316.727 1156.89,319.393 1154.5,321.5C 1153.58,327.485 1152.74,333.485 1152,339.5C 1150.96,338.377 1150.29,337.044 1150,335.5C 1150.39,329.015 1149.05,323.015 1146,317.5C 1145.33,316.167 1144.67,316.167 1144,317.5C 1143.67,320.167 1143.33,322.833 1143,325.5C 1141.85,322.289 1141.18,318.956 1141,315.5C 1138.23,311.181 1136.39,311.515 1135.5,316.5C 1134.83,316.833 1134.17,317.167 1133.5,317.5C 1134.04,314.335 1133.2,311.669 1131,309.5C 1130.33,298.5 1130.33,287.5 1131,276.5C 1131.38,275.944 1131.88,275.611 1132.5,275.5C 1138.18,275.666 1143.84,275.499 1149.5,275C 1148.76,273.961 1147.76,273.461 1146.5,273.5C 1140.75,272.376 1135.59,270.043 1131,266.5C 1130.33,244.833 1130.33,223.167 1131,201.5C 1131.5,201 1132,200.5 1132.5,200C 1143.17,199.333 1153.83,199.333 1164.5,200C 1165,200.5 1165.5,201 1166,201.5C 1166.5,222.831 1166.67,244.164 1166.5,265.5 Z"/></g>
<g><path style="opacity:0.766" fill="#111111" d="M 766.5,277.5 C 767.5,277.5 768.5,277.5 769.5,277.5C 768.836,287.653 763.836,290.987 754.5,287.5C 752.694,283.895 753.694,281.395 757.5,280C 760.851,279.943 763.851,279.109 766.5,277.5 Z M 765.5,280.5 C 763.046,281.621 760.379,282.454 757.5,283C 756.833,283.667 756.167,284.333 755.5,285C 757.955,286.54 760.621,286.874 763.5,286C 766.136,284.59 766.803,282.757 765.5,280.5 Z"/></g>
<g><path style="opacity:1" fill="#939393" d="M 369.5,305.5 C 369.808,307.924 369.474,310.257 368.5,312.5C 367.893,312.376 367.56,312.043 367.5,311.5C 368.167,309.5 368.833,307.5 369.5,305.5 Z"/></g>
<g><path style="opacity:1" fill="#727272" d="M 524.5,314.5 C 523.839,315.718 523.172,317.051 522.5,318.5C 521.702,318.043 521.369,317.376 521.5,316.5C 522.158,315.602 522.824,314.602 523.5,313.5C 524.107,313.624 524.44,313.957 524.5,314.5 Z"/></g>
<g><path style="opacity:1" fill="#8e8e8e" d="M 20.5,317.5 C 21.4916,317.328 22.1583,317.662 22.5,318.5C 21.71,319.609 21.21,320.942 21,322.5C 19.3721,321.038 19.2054,319.372 20.5,317.5 Z"/></g>
<g><path style="opacity:1" fill="#696969" d="M 893.5,327.5 C 892.833,323.833 892.167,320.167 891.5,316.5C 891.369,315.624 891.702,314.957 892.5,314.5C 893.492,318.783 893.826,323.116 893.5,327.5 Z"/></g>
<g><path style="opacity:1" fill="#6f6f6f" d="M 9.5,315.5 C 8.83387,318.689 8.1672,322.023 7.5,325.5C 6.89333,325.376 6.55999,325.043 6.5,324.5C 7.16613,321.311 7.8328,317.977 8.5,314.5C 9.10667,314.624 9.44001,314.957 9.5,315.5 Z"/></g>
<g><path style="opacity:1" fill="#8a8a8a" d="M 1135.5,316.5 C 1135.67,322.176 1135.5,327.843 1135,333.5C 1134.17,328.192 1133.67,322.859 1133.5,317.5C 1134.17,317.167 1134.83,316.833 1135.5,316.5 Z"/></g>
</svg>
