<svg xmlns="http://www.w3.org/2000/svg" version="1.1" width="1280px" height="352px" style="shape-rendering:geometricPrecision; text-rendering:geometricPrecision; image-rendering:optimizeQuality; fill-rule:evenodd; clip-rule:evenodd" xmlns:xlink="http://www.w3.org/1999/xlink">
<g><path style="opacity:0.594" fill="#0c0c0c" d="M 169.5,-0.5 C 182.833,-0.5 196.167,-0.5 209.5,-0.5C 210.504,0.682751 211.338,2.01608 212,3.5C 212.5,14.1615 212.667,24.8281 212.5,35.5C 218.833,35.5 225.167,35.5 231.5,35.5C 231.333,24.495 231.5,13.495 232,2.5C 232.513,1.47344 233.013,0.473444 233.5,-0.5C 246.833,-0.5 260.167,-0.5 273.5,-0.5C 274.504,0.682751 275.338,2.01608 276,3.5C 276.667,38.8333 276.667,74.1667 276,109.5C 274.667,111.5 273.333,113.5 272,115.5C 271.667,123.833 271.333,132.167 271,140.5C 268.667,144.5 266.333,144.5 264,140.5C 264.682,133.182 264.515,125.849 263.5,118.5C 262.218,120.179 261.218,122.013 260.5,124C 257.937,124.918 255.77,124.418 254,122.5C 252.644,123.38 251.144,123.714 249.5,123.5C 249.723,126.114 248.556,127.781 246,128.5C 244.129,127.003 243.129,125.003 243,122.5C 242.423,127.126 240.423,128.126 237,125.5C 236,121.167 235,116.833 234,112.5C 233.085,111.672 232.419,110.672 232,109.5C 231.667,100.167 231.333,90.8333 231,81.5C 229.345,84.153 227.345,86.4864 225,88.5C 223.927,92.0836 223.26,95.7502 223,99.5C 221,102.167 219,102.167 217,99.5C 217.23,93.7083 215.897,88.375 213,83.5C 212.667,91.8333 212.333,100.167 212,108.5C 210.5,110.667 209,112.833 207.5,115C 205.5,116.333 203.5,117.667 201.5,119C 198.901,119.769 196.401,119.602 194,118.5C 190.553,123.847 187.386,123.681 184.5,118C 183.207,117.51 181.873,117.343 180.5,117.5C 180.824,120.68 179.49,121.847 176.5,121C 174.022,116.89 171.189,113.056 168,109.5C 167.333,73.8333 167.333,38.1667 168,2.5C 168.513,1.47344 169.013,0.473444 169.5,-0.5 Z"/></g>
<g><path style="opacity:0.587" fill="#0c0c0c" d="M 540.5,-0.5 C 573.833,-0.5 607.167,-0.5 640.5,-0.5C 641.504,0.682751 642.338,2.01608 643,3.5C 643.667,13.5 643.667,23.5 643,33.5C 640.046,37.0751 637.879,41.0751 636.5,45.5C 635.596,46.209 635.263,47.209 635.5,48.5C 634.662,48.8417 634.328,49.5084 634.5,50.5C 632.196,53.6581 630.03,56.9915 628,60.5C 625.733,61.9348 623.733,61.6015 622,59.5C 619.333,54.8333 616.667,50.1667 614,45.5C 613.667,66.8333 613.333,88.1667 613,109.5C 608.677,114.583 603.177,117.25 596.5,117.5C 596.789,120.649 596.289,123.649 595,126.5C 593.301,127.406 591.467,127.739 589.5,127.5C 589.766,123.395 589.266,119.395 588,115.5C 587,116.833 586,118.167 585,119.5C 584.112,127.815 583.446,136.149 583,144.5C 580.224,146.14 578.224,145.473 577,142.5C 577.11,135.172 577.11,127.838 577,120.5C 574.738,115.91 571.738,111.91 568,108.5C 567.667,87.5 567.333,66.5 567,45.5C 563.631,53.4182 560.465,53.4182 557.5,45.5C 557.167,45.6667 556.833,45.8333 556.5,46C 556.696,50.758 556.196,55.5913 555,60.5C 553.556,62.1554 551.722,62.822 549.5,62.5C 548.802,56.5331 548.302,50.5331 548,44.5C 543.219,41.7183 539.886,37.7183 538,32.5C 537.333,23.1667 537.333,13.8333 538,4.5C 538.366,2.54826 539.199,0.88159 540.5,-0.5 Z"/></g>
<g><path style="opacity:0.681" fill="#0e0e0e" d="M 768.5,-0.5 C 791.833,-0.5 815.167,-0.5 838.5,-0.5C 864.478,8.77075 874.311,27.1041 868,54.5C 865.443,59.7235 862.109,64.3902 858,68.5C 855.385,74.8546 852.885,81.188 850.5,87.5C 849.15,88.9501 847.484,89.6168 845.5,89.5C 845.74,92.5788 845.407,95.5788 844.5,98.5C 843.18,100.27 841.68,100.603 840,99.5C 839.144,107.484 838.477,115.484 838,123.5C 836.522,126.993 834.522,127.326 832,124.5C 830.573,110.248 829.407,96.2478 828.5,82.5C 826.001,89.1625 823.501,95.8291 821,102.5C 816.971,104.153 814.305,102.82 813,98.5C 812.667,94.1667 812.333,89.8333 812,85.5C 811.667,93.8333 811.333,102.167 811,110.5C 809.667,111.833 808.333,113.167 807,114.5C 806.927,120.494 806.094,126.327 804.5,132C 803.167,132.667 801.833,132.667 800.5,132C 798.934,129.07 798.1,125.903 798,122.5C 797.163,124.007 795.996,124.507 794.5,124C 792.877,121.92 791.377,119.754 790,117.5C 787.441,120.349 784.274,121.183 780.5,120C 776.237,117.192 771.903,114.359 767.5,111.5C 766.34,74.8749 766.173,38.2083 767,1.5C 767.717,0.955796 768.217,0.28913 768.5,-0.5 Z M 810.5,34.5 C 814.555,34.1758 818.555,34.5091 822.5,35.5C 818.764,37.105 814.931,38.7717 811,40.5C 810.505,38.5273 810.338,36.5273 810.5,34.5 Z"/></g>
<g><path style="opacity:0.579" fill="#0c0c0c" d="M 875.5,-0.5 C 876.833,-0.5 878.167,-0.5 879.5,-0.5C 878.878,0.626561 878.045,1.62656 877,2.5C 876.333,37.8333 876.333,73.1667 877,108.5C 878.045,109.373 878.878,110.373 879.5,111.5C 879.096,117.29 879.596,122.956 881,128.5C 881.499,123.177 881.666,117.844 881.5,112.5C 882.496,112.414 883.329,112.748 884,113.5C 886.825,120.804 890.992,127.138 896.5,132.5C 899.32,128.889 901.487,124.889 903,120.5C 906.567,117.023 909.9,113.356 913,109.5C 913.667,73.5 913.667,37.5 913,1.5C 912.005,0.934056 911.172,0.267389 910.5,-0.5C 912.167,-0.5 913.833,-0.5 915.5,-0.5C 916.654,36.1251 916.82,72.7918 916,109.5C 912.726,113.728 909.226,117.728 905.5,121.5C 903.82,126.361 901.486,130.861 898.5,135C 896.299,135.825 894.466,135.325 893,133.5C 889.003,129.513 886.003,124.846 884,119.5C 884.369,122.79 884.369,126.123 884,129.5C 882.599,131.192 880.766,131.859 878.5,131.5C 877.793,125.2 877.293,118.867 877,112.5C 876.333,111.833 875.667,111.167 875,110.5C 874.174,73.4287 874.34,36.4287 875.5,-0.5 Z"/></g>
<g><path style="opacity:1" fill="#f9f9f9" d="M 879.5,-0.5 C 889.833,-0.5 900.167,-0.5 910.5,-0.5C 911.172,0.267389 912.005,0.934056 913,1.5C 913.667,37.5 913.667,73.5 913,109.5C 909.9,113.356 906.567,117.023 903,120.5C 901.487,124.889 899.32,128.889 896.5,132.5C 890.992,127.138 886.825,120.804 884,113.5C 883.329,112.748 882.496,112.414 881.5,112.5C 880.833,112.167 880.167,111.833 879.5,111.5C 878.878,110.373 878.045,109.373 877,108.5C 876.333,73.1667 876.333,37.8333 877,2.5C 878.045,1.62656 878.878,0.626561 879.5,-0.5 Z"/></g>
<g><path style="opacity:1" fill="#fbfbfb" d="M 267.5,140.5 C 267.666,131.827 267.5,123.16 267,114.5C 266.329,115.252 265.496,115.586 264.5,115.5C 264.631,114.761 264.464,114.094 264,113.5C 261.597,115.305 259.93,117.638 259,120.5C 258.086,116.815 257.419,117.148 257,121.5C 255.847,118.53 254.18,115.863 252,113.5C 251.503,115.81 251.337,118.143 251.5,120.5C 250.5,120.5 249.5,120.5 248.5,120.5C 248.663,118.143 248.497,115.81 248,113.5C 247.667,113.833 247.333,114.167 247,114.5C 246.667,117.833 246.333,121.167 246,124.5C 245.502,121.518 245.335,118.518 245.5,115.5C 244.041,115.567 242.708,115.234 241.5,114.5C 239.706,113.767 238.039,112.767 236.5,111.5C 235.833,110.5 235.167,109.5 234.5,108.5C 234.832,96.8143 234.499,85.1477 233.5,73.5C 232.893,73.6236 232.56,73.9569 232.5,74.5C 228.832,79.0067 225.332,83.6734 222,88.5C 220.834,101.51 219.834,101.176 219,87.5C 216.248,83.0062 213.415,78.6729 210.5,74.5C 210.217,73.7109 209.717,73.0442 209,72.5C 208.5,84.4954 208.333,96.4954 208.5,108.5C 206.53,112.151 203.53,114.151 199.5,114.5C 197.455,111.867 195.455,111.867 193.5,114.5C 192.167,115.167 191.167,116.167 190.5,117.5C 189.566,116.432 189.232,115.099 189.5,113.5C 188.041,113.433 186.708,113.766 185.5,114.5C 182.956,114.896 180.789,114.229 179,112.5C 178.557,118.8 177.224,118.8 175,112.5C 173.045,111.547 171.378,110.213 170,108.5C 169.333,73.8333 169.333,39.1667 170,4.5C 170.374,3.58377 170.874,2.75044 171.5,2C 183.5,1.33333 195.5,1.33333 207.5,2C 208.126,2.75044 208.626,3.58377 209,4.5C 209.5,15.8284 209.667,27.1618 209.5,38.5C 217.833,38.5 226.167,38.5 234.5,38.5C 234.168,26.4815 234.501,14.4815 235.5,2.5C 247.12,1.35479 258.787,1.18812 270.5,2C 271.416,2.37424 272.25,2.87424 273,3.5C 273.833,38.838 273.667,74.1714 272.5,109.5C 271.201,110.09 270.368,111.09 270,112.5C 269.667,121.5 269.333,130.5 269,139.5C 268.617,140.056 268.117,140.389 267.5,140.5 Z"/></g>
<g><path style="opacity:1" fill="#fdfdfd" d="M 612.5,38.5 C 612.672,37.5084 612.338,36.8417 611.5,36.5C 611.44,35.9569 611.107,35.6236 610.5,35.5C 609.5,60.1577 609.167,84.8243 609.5,109.5C 607.182,112.397 604.349,113.063 601,111.5C 600.167,112.5 599.333,113.5 598.5,114.5C 597.549,113.674 596.549,113.508 595.5,114C 594.107,117.399 592.94,120.899 592,124.5C 591.667,121.167 591.333,117.833 591,114.5C 590.221,113.272 589.221,112.272 588,111.5C 585.669,113.665 583.502,115.999 581.5,118.5C 580.833,118.5 580.167,118.5 579.5,118.5C 578.093,116.692 576.926,114.692 576,112.5C 574.008,111.672 572.508,110.339 571.5,108.5C 571.833,84.1575 571.5,59.8242 570.5,35.5C 569.893,35.6236 569.56,35.9569 569.5,36.5C 568.955,38.5932 568.122,40.5932 567,42.5C 564.782,44.0919 563.115,46.0919 562,48.5C 560.651,41.5649 557.985,40.2316 554,44.5C 553.798,46.2556 553.298,47.9223 552.5,49.5C 549.677,43.1998 545.844,37.5331 541,32.5C 540.333,22.8333 540.333,13.1667 541,3.5C 541.5,3 542,2.5 542.5,2C 574.5,1.33333 606.5,1.33333 638.5,2C 639,2.5 639.5,3 640,3.5C 640.667,13.5 640.667,23.5 640,33.5C 639,34.5 638,35.5 637,36.5C 634.031,44.442 630.031,51.7754 625,58.5C 621.084,51.6667 616.918,45 612.5,38.5 Z"/></g>
<g><path style="opacity:1" fill="#fcfcfc" d="M 842.5,85.5 C 841.833,85.5 841.167,85.5 840.5,85.5C 839.524,84.1851 838.524,82.8518 837.5,81.5C 836.643,93.4945 835.976,105.494 835.5,117.5C 834.833,114.5 834.167,111.5 833.5,108.5C 832.67,99.3423 832.17,90.009 832,80.5C 829.995,78.1996 827.828,78.1996 825.5,80.5C 823.77,86.8568 821.937,93.1901 820,99.5C 817.91,100.791 816.576,100.124 816,97.5C 815.667,92.8333 815.333,88.1667 815,83.5C 812.609,82.61 811.109,80.9433 810.5,78.5C 810.44,77.9569 810.107,77.6236 809.5,77.5C 808.501,87.8119 808.168,98.1452 808.5,108.5C 807.207,110.296 805.707,111.963 804,113.5C 803.333,118.833 802.667,124.167 802,129.5C 801.667,126.167 801.333,122.833 801,119.5C 800.692,118.692 800.192,118.025 799.5,117.5C 798.167,118.5 796.833,119.5 795.5,120.5C 794.678,117.171 792.845,114.505 790,112.5C 788.409,115.6 785.909,117.267 782.5,117.5C 782.349,114.282 781.516,113.949 780,116.5C 779.626,115.584 779.126,114.75 778.5,114C 774.472,113.572 771.305,111.738 769,108.5C 768.333,73.5 768.333,38.5 769,3.5C 769.5,3 770,2.5 770.5,2C 792.857,1.13139 815.19,1.46472 837.5,3C 862.333,10.4849 871.833,26.9849 866,52.5C 863.648,57.871 860.315,62.5377 856,66.5C 853.164,73.3816 850.164,80.0483 847,86.5C 845.956,85.3774 845.29,84.0441 845,82.5C 843.955,83.3734 843.122,84.3734 842.5,85.5 Z M 810.5,34.5 C 810.338,36.5273 810.505,38.5273 811,40.5C 814.931,38.7717 818.764,37.105 822.5,35.5C 818.555,34.5091 814.555,34.1758 810.5,34.5 Z"/></g>
<g><path style="opacity:0.594" fill="#101010" d="M 321.5,25.5 C 339.647,23.0237 355.981,27.1904 370.5,38C 378.544,47.4665 382.211,58.4665 381.5,71C 382.088,84.5805 377.588,96.0805 368,105.5C 367.667,108.167 367.333,110.833 367,113.5C 366,114.167 365,114.833 364,115.5C 362.989,114.663 361.822,114.33 360.5,114.5C 360.673,118.973 359.673,123.14 357.5,127C 353.13,127.298 350.963,125.132 351,120.5C 349.417,122.393 347.917,124.393 346.5,126.5C 345.131,128.124 343.464,128.624 341.5,128C 340.718,125.26 340.218,122.426 340,119.5C 337.636,121.059 336.136,123.225 335.5,126C 334.167,126.667 332.833,126.667 331.5,126C 330.188,122.949 329.188,119.783 328.5,116.5C 318.679,115.212 309.345,112.379 300.5,108C 288.189,98.4301 282.855,85.7634 284.5,70C 282.741,51.507 290.075,38.1737 306.5,30C 311.577,28.32 316.577,26.82 321.5,25.5 Z M 329.5,57.5 C 331.792,58.4684 333.959,58.8018 336,58.5C 336.303,62.5295 336.803,66.5295 337.5,70.5C 336.803,74.4705 336.303,78.4705 336,82.5C 333.485,86.0997 331.151,86.0997 329,82.5C 328.227,74.1185 328.394,65.7852 329.5,57.5 Z"/></g>
<g><path style="opacity:0.625" fill="#101010" d="M 634.5,50.5 C 635.338,50.1583 635.672,49.4916 635.5,48.5C 636.404,47.791 636.737,46.791 636.5,45.5C 644.839,34.1528 656.172,27.6528 670.5,26C 720.253,23.4099 738.586,46.0766 725.5,94C 723.57,97.5545 720.737,101.054 717,104.5C 716.273,107.864 715.44,111.197 714.5,114.5C 712.584,115.248 710.584,115.248 708.5,114.5C 708.665,117.518 708.498,120.518 708,123.5C 706.492,127.674 704.159,128.341 701,125.5C 700.667,123.5 700.333,121.5 700,119.5C 699.55,122.106 698.05,123.439 695.5,123.5C 695.348,127.487 693.348,128.987 689.5,128C 689.087,124.823 687.587,122.323 685,120.5C 684.667,122.167 684.333,123.833 684,125.5C 682.062,126.86 680.396,126.527 679,124.5C 678.047,121.568 677.547,118.568 677.5,115.5C 661.895,115.917 649.062,110.25 639,98.5C 635.799,92.8978 633.799,86.8978 633,80.5C 632.171,70.4228 632.671,60.4228 634.5,50.5 Z M 677.5,57.5 C 679.713,58.6053 681.88,58.6053 684,57.5C 684.667,65.1667 684.667,72.8333 684,80.5C 683.423,85.1259 681.423,86.1259 678,83.5C 676.169,74.8658 676.002,66.1991 677.5,57.5 Z"/></g>
<g><path style="opacity:0.599" fill="#111111" d="M 960.5,25.5 C 974.162,23.9991 987.162,26.1658 999.5,32C 1007.57,37.403 1012.4,44.903 1014,54.5C 1014.67,72.8333 1014.67,91.1667 1014,109.5C 1013.5,111.333 1012.33,112.5 1010.5,113C 1013.37,118.139 1012.2,122.305 1007,125.5C 1004.96,124.421 1003.62,122.754 1003,120.5C 1001.33,123.6 999.165,124.1 996.5,122C 995.274,119.473 993.608,117.306 991.5,115.5C 989.399,118.606 987.732,121.939 986.5,125.5C 985.277,126.614 983.944,126.781 982.5,126C 980.525,120.84 977.858,116.006 974.5,111.5C 973.167,113.5 971.833,115.5 970.5,117.5C 969.264,118.246 967.93,118.579 966.5,118.5C 966.732,123.046 965.899,127.379 964,131.5C 962.612,132.554 961.112,132.72 959.5,132C 957.464,126.736 955.131,121.569 952.5,116.5C 941.605,115.136 932.439,110.47 925,102.5C 917.381,88.8202 919.548,76.9868 931.5,67C 935.349,64.575 939.349,62.4083 943.5,60.5C 939.254,59.2502 934.921,58.4169 930.5,58C 927.402,56.7321 925.735,54.3988 925.5,51C 928.986,41.8474 934.986,34.8474 943.5,30C 949.211,28.1657 954.878,26.6657 960.5,25.5 Z M 970.5,82.5 C 970.426,84.4109 969.426,85.5776 967.5,86C 965.421,86.8077 963.421,86.641 961.5,85.5C 963.95,83.1329 966.95,82.1329 970.5,82.5 Z"/></g>
<g><path style="opacity:0.552" fill="#111111" d="M 385.5,26.5 C 394.173,26.3336 402.84,26.5002 411.5,27C 413.246,27.4709 414.913,28.1376 416.5,29C 420.019,37.2314 422.853,45.7314 425,54.5C 427.349,46.4547 430.016,38.4547 433,30.5C 434.8,28.683 436.966,27.5163 439.5,27C 446.629,26.0495 453.629,26.5495 460.5,28.5C 464.932,36.6233 468.099,45.29 470,54.5C 472.632,47.3182 474.966,39.9849 477,32.5C 478.251,29.6193 480.417,27.786 483.5,27C 493.574,26.0769 503.574,26.4103 513.5,28C 515.393,30.9172 515.893,34.0838 515,37.5C 508.12,61.3673 500.786,85.034 493,108.5C 487.527,117.78 482.86,127.447 479,137.5C 476.845,138.683 474.845,138.35 473,136.5C 472.831,131.32 471.165,126.653 468,122.5C 467.387,126.318 465.387,127.318 462,125.5C 461.667,122.5 461.333,119.5 461,116.5C 458.965,113.755 457.299,110.755 456,107.5C 453.531,99.7582 450.864,92.0916 448,84.5C 444.046,95.7032 439.713,106.703 435,117.5C 432.867,118.255 431.2,119.588 430,121.5C 429.744,124.557 429.244,127.557 428.5,130.5C 429.661,132.224 429.495,133.89 428,135.5C 425.052,135.747 421.885,136.08 418.5,136.5C 418.386,130.143 416.886,124.143 414,118.5C 412.084,121.033 410.084,121.033 408,118.5C 408.063,114.558 406.397,111.558 403,109.5C 394.477,84.4287 386.644,59.0954 379.5,33.5C 380.143,29.866 382.143,27.5327 385.5,26.5 Z"/></g>
<g><path style="opacity:0.548" fill="#111111" d="M 1019.5,26.5 C 1028.51,26.3336 1037.51,26.5002 1046.5,27C 1048.61,27.3599 1050.61,28.0266 1052.5,29C 1056.85,39.058 1061.02,49.2246 1065,59.5C 1067.72,51.0688 1070.72,42.7354 1074,34.5C 1074.88,31.8976 1076.38,29.7309 1078.5,28C 1089.09,26.4049 1099.76,26.0716 1110.5,27C 1115.04,28.7129 1116.54,31.8795 1115,36.5C 1099.67,74.4694 1083.17,111.969 1065.5,149C 1065.83,149.333 1066.17,149.667 1066.5,150C 1062.4,154.879 1059.9,154.046 1059,147.5C 1053.93,148.89 1048.77,149.89 1043.5,150.5C 1043.84,155 1041.84,156.833 1037.5,156C 1036.17,151.61 1035.17,147.11 1034.5,142.5C 1032.63,141.46 1031.29,139.96 1030.5,138C 1034.56,127.215 1038.89,116.548 1043.5,106C 1035.35,90.7506 1029.02,75.0839 1024.5,59C 1020.62,51.3509 1017.12,43.5176 1014,35.5C 1013.3,30.8819 1015.14,27.8819 1019.5,26.5 Z"/></g>
<g><path style="opacity:1" fill="#fbfbfb" d="M 331.5,116.5 C 331.5,115.167 331.5,113.833 331.5,112.5C 326.848,112.002 322.181,111.669 317.5,111.5C 314.495,109.723 311.162,108.723 307.5,108.5C 297.693,104.188 291.193,96.8542 288,86.5C 281.49,42.6756 300.323,23.5089 344.5,29C 361.205,31.3811 372.038,40.5478 377,56.5C 377.667,65.1667 377.667,73.8333 377,82.5C 375.554,91.2665 371.554,98.5998 365,104.5C 364.503,106.81 364.337,109.143 364.5,111.5C 362.179,111.771 360.179,111.104 358.5,109.5C 357.672,113.796 357.172,118.129 357,122.5C 356.586,122.957 356.086,123.291 355.5,123.5C 354.833,119.833 354.167,116.167 353.5,112.5C 351.107,114.277 349.44,116.61 348.5,119.5C 347.833,117.5 347.167,115.5 346.5,113.5C 345.676,116.785 345.176,120.118 345,123.5C 344.586,123.957 344.086,124.291 343.5,124.5C 342.833,121.167 342.167,117.833 341.5,114.5C 340.808,115.025 340.308,115.692 340,116.5C 339,113.833 338,113.833 337,116.5C 335.989,115.663 334.822,115.33 333.5,115.5C 333.613,124 332.947,124.333 331.5,116.5 Z M 329.5,57.5 C 328.394,65.7852 328.227,74.1185 329,82.5C 331.151,86.0997 333.485,86.0997 336,82.5C 336.303,78.4705 336.803,74.4705 337.5,70.5C 336.803,66.5295 336.303,62.5295 336,58.5C 333.959,58.8018 331.792,58.4684 329.5,57.5 Z"/></g>
<g><path style="opacity:1" fill="#fbfbfb" d="M 707.5,110.5 C 707.44,109.957 707.107,109.624 706.5,109.5C 705.513,112.768 705.18,116.102 705.5,119.5C 705.5,120.833 705.5,122.167 705.5,123.5C 704.5,123.5 703.5,123.5 702.5,123.5C 702.823,119.774 702.489,116.107 701.5,112.5C 699.515,114.457 698.015,116.79 697,119.5C 696.964,117.059 696.131,115.059 694.5,113.5C 693.675,117.122 693.175,120.789 693,124.5C 692.31,125.738 691.81,125.738 691.5,124.5C 691.82,121.102 691.487,117.768 690.5,114.5C 689.893,114.624 689.56,114.957 689.5,115.5C 687.755,114.532 685.755,114.532 683.5,115.5C 682.686,117.766 682.186,120.1 682,122.5C 680.847,119.644 680.014,116.644 679.5,113.5C 644.209,111.325 629.709,92.6584 636,57.5C 638.913,43.2507 647.413,34.0841 661.5,30C 673.819,28.0484 686.153,28.0484 698.5,30C 713.445,33.9444 722.611,43.4444 726,58.5C 729.584,76.5122 725.25,92.1789 713,105.5C 712.667,107.5 712.333,109.5 712,111.5C 710.479,111.481 708.979,111.148 707.5,110.5 Z M 677.5,57.5 C 676.002,66.1991 676.169,74.8658 678,83.5C 681.423,86.1259 683.423,85.1259 684,80.5C 684.667,72.8333 684.667,65.1667 684,57.5C 681.88,58.6053 679.713,58.6053 677.5,57.5 Z"/></g>
<g><path style="opacity:1" fill="#fbfbfb" d="M 1006.5,120.5 C 1006.81,117.753 1006.48,115.086 1005.5,112.5C 1004.89,112.624 1004.56,112.957 1004.5,113.5C 1002.85,115.429 1001.19,117.429 999.5,119.5C 997.34,117.169 995.34,114.669 993.5,112C 992.5,111.333 991.5,111.333 990.5,112C 987.937,115.627 985.771,119.461 984,123.5C 982.131,118.097 979.465,113.097 976,108.5C 975.667,106.833 975.333,105.167 975,103.5C 971.388,106.248 969.388,109.914 969,114.5C 967.333,115.167 965.667,115.833 964,116.5C 963.41,132.209 961.41,132.876 958,118.5C 956.833,116.833 955.667,115.167 954.5,113.5C 952.257,112.526 949.924,112.192 947.5,112.5C 945.485,111.076 943.152,110.41 940.5,110.5C 924.51,104.052 919.677,92.7188 926,76.5C 930.738,70.1022 936.905,65.6022 944.5,63C 954.035,60.8043 963.701,59.3043 973.5,58.5C 973.875,55.6035 973.375,52.9368 972,50.5C 970.54,52.4657 968.873,54.1323 967,55.5C 965.832,54.4911 964.665,53.4911 963.5,52.5C 959.213,55.7243 954.379,57.7243 949,58.5C 943.633,57.0101 938.133,56.1768 932.5,56C 928.896,54.6661 927.729,52.1661 929,48.5C 934.701,37.8064 943.534,31.3064 955.5,29C 965.167,28.3333 974.833,28.3333 984.5,29C 998.485,31.6533 1007.32,39.82 1011,53.5C 1011.67,71.8333 1011.67,90.1667 1011,108.5C 1009.66,109.904 1008.5,111.404 1007.5,113C 1010.31,116.039 1010.14,118.872 1007,121.5C 1006.6,121.272 1006.43,120.938 1006.5,120.5 Z M 970.5,82.5 C 966.95,82.1329 963.95,83.1329 961.5,85.5C 963.421,86.641 965.421,86.8077 967.5,86C 969.426,85.5776 970.426,84.4109 970.5,82.5 Z"/></g>
<g><path style="opacity:1" fill="#c9c9c9" d="M 511.5,30.5 C 501.448,30.2162 491.448,30.5496 481.5,31.5C 481.611,30.8826 481.944,30.3826 482.5,30C 492.342,29.1754 502.009,29.342 511.5,30.5 Z"/></g>
<g><path style="opacity:1" fill="#fbfbfb" d="M 481.5,31.5 C 491.448,30.5496 501.448,30.2162 511.5,30.5C 512.88,30.9623 513.547,31.9623 513.5,33.5C 507.09,51.5628 501.59,69.8962 497,88.5C 494.093,94.9777 491.76,101.644 490,108.5C 484.434,116.966 479.934,125.966 476.5,135.5C 475.682,132.893 475.182,130.226 475,127.5C 472.597,125.695 470.93,123.362 470,120.5C 467.848,118.188 465.848,118.522 464,121.5C 458.507,106.696 453.174,91.6962 448,76.5C 444.055,89.1664 439.222,101.5 433.5,113.5C 427.11,118.516 424.61,125.183 426,133.5C 425.825,129.789 425.325,126.122 424.5,122.5C 423.522,122.977 422.689,123.643 422,124.5C 421.667,127.833 421.333,131.167 421,134.5C 420.779,126.278 418.112,118.945 413,112.5C 411.347,119.047 410.18,118.714 409.5,111.5C 408.186,110.687 407.019,109.687 406,108.5C 397.793,83.8551 389.96,59.0218 382.5,34C 382.439,32.2894 383.106,30.956 384.5,30C 394.6,29.0513 404.6,29.3846 414.5,31C 418.072,42.1147 421.572,53.2814 425,64.5C 428.963,53.5804 432.629,42.5804 436,31.5C 436.5,31 437,30.5 437.5,30C 444.167,29.3333 450.833,29.3333 457.5,30C 459.049,31.214 460.215,32.714 461,34.5C 463.873,44.2859 467.04,53.9526 470.5,63.5C 473.965,53.2721 477.131,42.9387 480,32.5C 480.383,31.944 480.883,31.6107 481.5,31.5 Z"/></g>
<g><path style="opacity:1" fill="#fbfbfb" d="M 1063.5,148.5 C 1062.83,146.833 1062.17,145.167 1061.5,143.5C 1059.49,144.511 1057.49,145.511 1055.5,146.5C 1053.6,146.272 1052.27,145.272 1051.5,143.5C 1050.81,144.025 1050.31,144.692 1050,145.5C 1048.99,144.663 1047.82,144.33 1046.5,144.5C 1046.65,145.552 1046.48,146.552 1046,147.5C 1045.78,145.119 1044.61,143.453 1042.5,142.5C 1042.44,141.957 1042.11,141.624 1041.5,141.5C 1040.52,144.428 1040.18,147.428 1040.5,150.5C 1040.72,151.675 1040.39,152.675 1039.5,153.5C 1038.67,149.541 1038.17,145.541 1038,141.5C 1035.46,140.79 1034.29,139.124 1034.5,136.5C 1037.74,125.862 1041.74,115.528 1046.5,105.5C 1036.78,82.5045 1026.94,59.5045 1017,36.5C 1016.1,33.975 1016.6,31.8083 1018.5,30C 1028.83,29.3333 1039.17,29.3333 1049.5,30C 1050.33,30.8333 1051.17,31.6667 1052,32.5C 1055.67,44.344 1059.84,56.0106 1064.5,67.5C 1069.16,56.6931 1073.32,45.6931 1077,34.5C 1077.78,32.714 1078.95,31.214 1080.5,30C 1091.08,29.1809 1101.58,29.3476 1112,30.5C 1112.67,32.5 1112.67,34.5 1112,36.5C 1100.17,62.7059 1089.17,89.0393 1079,115.5C 1073.24,126.342 1068.08,137.342 1063.5,148.5 Z"/></g>
<g><path style="opacity:0.683" fill="#151515" d="M 808.5,30.5 C 813.468,31.1643 818.468,31.6643 823.5,32C 825.747,33.995 826.747,36.495 826.5,39.5C 820.064,39.2324 814.231,40.8991 809,44.5C 808.501,39.8452 808.334,35.1785 808.5,30.5 Z M 810.5,34.5 C 810.338,36.5273 810.505,38.5273 811,40.5C 814.931,38.7717 818.764,37.105 822.5,35.5C 818.555,34.5091 814.555,34.1758 810.5,34.5 Z"/></g>
<g><path style="opacity:1" fill="#d4d4d4" d="M 611.5,36.5 C 610.502,59.9941 610.169,83.6608 610.5,107.5C 610.672,108.492 610.338,109.158 609.5,109.5C 609.167,84.8243 609.5,60.1577 610.5,35.5C 611.107,35.6236 611.44,35.9569 611.5,36.5 Z"/></g>
<g><path style="opacity:1" fill="#393939" d="M 611.5,36.5 C 612.338,36.8417 612.672,37.5084 612.5,38.5C 611.833,61.5 611.167,84.5 610.5,107.5C 610.169,83.6608 610.502,59.9941 611.5,36.5 Z"/></g>
<g><path style="opacity:1" fill="#8d8d8d" d="M 569.5,36.5 C 569.56,35.9569 569.893,35.6236 570.5,35.5C 571.5,59.8242 571.833,84.1575 571.5,108.5C 570.833,84.5 570.167,60.5 569.5,36.5 Z"/></g>
<g><path style="opacity:0.592" fill="#141414" d="M 334.5,53.5 C 336.888,54.2187 338.388,55.8854 339,58.5C 340.01,67.6208 339.51,76.6208 337.5,85.5C 334.792,87.4357 331.792,87.9357 328.5,87C 327.299,86.0975 326.465,84.9308 326,83.5C 325.333,74.5 325.333,65.5 326,56.5C 327.822,54.1751 329.989,53.8418 332.5,55.5C 333.713,55.2528 334.38,54.5862 334.5,53.5 Z M 329.5,57.5 C 328.394,65.7852 328.227,74.1185 329,82.5C 331.151,86.0997 333.485,86.0997 336,82.5C 336.303,78.4705 336.803,74.4705 337.5,70.5C 336.803,66.5295 336.303,62.5295 336,58.5C 333.959,58.8018 331.792,58.4684 329.5,57.5 Z"/></g>
<g><path style="opacity:0.507" fill="#0f0f0f" d="M 682.5,53.5 C 684.752,53.9156 686.252,55.249 687,57.5C 687.667,65.5 687.667,73.5 687,81.5C 686.001,86.7572 682.834,88.5905 677.5,87C 675.951,85.786 674.785,84.286 674,82.5C 673.333,74.5 673.333,66.5 674,58.5C 674.962,54.741 677.129,53.741 680.5,55.5C 681.713,55.2528 682.38,54.5862 682.5,53.5 Z M 677.5,57.5 C 676.002,66.1991 676.169,74.8658 678,83.5C 681.423,86.1259 683.423,85.1259 684,80.5C 684.667,72.8333 684.667,65.1667 684,57.5C 681.88,58.6053 679.713,58.6053 677.5,57.5 Z"/></g>
<g><path style="opacity:1" fill="#8e8e8e" d="M 210.5,74.5 C 209.833,85.8333 209.167,97.1667 208.5,108.5C 208.333,96.4954 208.5,84.4954 209,72.5C 209.717,73.0442 210.217,73.7109 210.5,74.5 Z"/></g>
<g><path style="opacity:1" fill="#4b4b4b" d="M 232.5,74.5 C 232.56,73.9569 232.893,73.6236 233.5,73.5C 234.499,85.1477 234.832,96.8143 234.5,108.5C 233.833,97.1667 233.167,85.8333 232.5,74.5 Z"/></g>
<g><path style="opacity:0.612" fill="#161616" d="M 971.5,77.5 C 972.5,77.5 973.5,77.5 974.5,77.5C 973.698,87.8107 968.531,91.144 959,87.5C 957.729,83.8339 958.896,81.3339 962.5,80C 965.797,79.7963 968.797,78.963 971.5,77.5 Z M 970.5,82.5 C 966.95,82.1329 963.95,83.1329 961.5,85.5C 963.421,86.641 965.421,86.8077 967.5,86C 969.426,85.5776 970.426,84.4109 970.5,82.5 Z"/></g>
<g><path style="opacity:1" fill="#8c8c8c" d="M 810.5,78.5 C 809.833,88.5 809.167,98.5 808.5,108.5C 808.168,98.1452 808.501,87.8119 809.5,77.5C 810.107,77.6236 810.44,77.9569 810.5,78.5 Z"/></g>
<g><path style="opacity:1" fill="#979797" d="M 840.5,85.5 C 841.167,85.5 841.833,85.5 842.5,85.5C 841.364,101.304 840.698,101.304 840.5,85.5 Z"/></g>
<g><path style="opacity:1" fill="#9a9a9a" d="M 307.5,108.5 C 311.162,108.723 314.495,109.723 317.5,111.5C 313.838,111.277 310.505,110.277 307.5,108.5 Z"/></g>
<g><path style="opacity:1" fill="#727272" d="M 940.5,110.5 C 943.152,110.41 945.485,111.076 947.5,112.5C 944.848,112.59 942.515,111.924 940.5,110.5 Z"/></g>
<g><path style="opacity:1" fill="#6c6c6c" d="M 707.5,110.5 C 706.833,113.5 706.167,116.5 705.5,119.5C 705.18,116.102 705.513,112.768 706.5,109.5C 707.107,109.624 707.44,109.957 707.5,110.5 Z"/></g>
<g><path style="opacity:1" fill="#aaaaaa" d="M 236.5,111.5 C 238.039,112.767 239.706,113.767 241.5,114.5C 240.894,117.167 240.061,119.834 239,122.5C 238.379,118.75 237.546,115.084 236.5,111.5 Z"/></g>
<g><path style="opacity:1" fill="#7d7d7d" d="M 1004.5,113.5 C 1004.56,112.957 1004.89,112.624 1005.5,112.5C 1006.48,115.086 1006.81,117.753 1006.5,120.5C 1005.83,118.167 1005.17,115.833 1004.5,113.5 Z"/></g>
<g><path style="opacity:1" fill="#777777" d="M 199.5,114.5 C 199.38,115.586 198.713,116.253 197.5,116.5C 195.927,116.248 194.594,115.582 193.5,114.5C 195.455,111.867 197.455,111.867 199.5,114.5 Z"/></g>
<g><path style="opacity:1" fill="#4c4c4c" d="M 317.5,111.5 C 322.181,111.669 326.848,112.002 331.5,112.5C 331.5,113.833 331.5,115.167 331.5,116.5C 330.596,115.791 330.263,114.791 330.5,113.5C 325.951,113.376 321.618,112.709 317.5,111.5 Z"/></g>
<g><path style="opacity:1" fill="#939393" d="M 190.5,117.5 C 190.44,118.043 190.107,118.376 189.5,118.5C 188.719,117.271 188.219,115.938 188,114.5C 187.023,115.774 186.189,115.774 185.5,114.5C 186.708,113.766 188.041,113.433 189.5,113.5C 189.232,115.099 189.566,116.432 190.5,117.5 Z"/></g>
<g><path style="opacity:1" fill="#adadad" d="M 833.5,108.5 C 834.167,111.5 834.833,114.5 835.5,117.5C 835.785,119.288 835.452,120.955 834.5,122.5C 833.507,117.88 833.173,113.214 833.5,108.5 Z"/></g>
<g><path style="opacity:1" fill="#555555" d="M 879.5,111.5 C 880.167,111.833 880.833,112.167 881.5,112.5C 881.666,117.844 881.499,123.177 881,128.5C 879.596,122.956 879.096,117.29 879.5,111.5 Z"/></g>
<g><path style="opacity:1" fill="#6c6c6c" d="M 689.5,115.5 C 689.56,114.957 689.893,114.624 690.5,114.5C 691.487,117.768 691.82,121.102 691.5,124.5C 690.833,121.5 690.167,118.5 689.5,115.5 Z"/></g>
<g><path style="opacity:1" fill="#4b4b4b" d="M 267.5,140.5 C 267.104,132.082 266.104,123.749 264.5,115.5C 265.496,115.586 266.329,115.252 267,114.5C 267.5,123.16 267.666,131.827 267.5,140.5 Z"/></g>
<g><path style="opacity:1" fill="#7f7f7f" d="M 579.5,118.5 C 580.167,118.5 580.833,118.5 581.5,118.5C 580.833,150.5 580.167,150.5 579.5,118.5 Z"/></g>
<g><path style="opacity:1" fill="#777777" d="M 1042.5,142.5 C 1041.83,145.167 1041.17,147.833 1040.5,150.5C 1040.18,147.428 1040.52,144.428 1041.5,141.5C 1042.11,141.624 1042.44,141.957 1042.5,142.5 Z"/></g>
<g><path style="opacity:1" fill="#5d5d5d" d="M 1061.5,143.5 C 1062.17,145.167 1062.83,146.833 1063.5,148.5C 1063.63,149.376 1063.3,150.043 1062.5,150.5C 1061.53,148.257 1061.19,145.924 1061.5,143.5 Z"/></g>
<g><path style="opacity:0.576" fill="#111111" d="M 361.5,182.5 C 377.769,181.266 393.103,184.433 407.5,192C 420.414,200.329 426.581,212.163 426,227.5C 422.51,230.803 419.01,233.97 415.5,237C 411.874,238.323 408.208,239.489 404.5,240.5C 397.311,238.455 390.311,235.955 383.5,233C 381.5,229.333 379.5,225.667 377.5,222C 376.365,221.251 375.365,221.417 374.5,222.5C 373.37,226.631 370.703,228.298 366.5,227.5C 366.5,226.5 366.5,225.5 366.5,224.5C 364.799,224.034 363.299,224.034 362,224.5C 361.333,236.167 361.333,247.833 362,259.5C 362.374,260.416 362.874,261.25 363.5,262C 368.47,264.152 373.304,263.986 378,261.5C 378.742,257.91 380.575,255.077 383.5,253C 396.5,252.333 409.5,252.333 422.5,253C 425.383,254.432 426.717,256.765 426.5,260C 425.86,271.112 421.36,280.279 413,287.5C 411.205,297.032 408.038,306.032 403.5,314.5C 400.826,315.75 398.326,317.084 396,318.5C 392.359,318.192 390.359,316.192 390,312.5C 388.214,314.099 386.047,314.933 383.5,315C 384.022,315.561 384.355,316.228 384.5,317C 383.873,319.135 383.373,321.302 383,323.5C 380.733,324.935 378.733,324.602 377,322.5C 375.974,317.215 375.307,311.882 375,306.5C 373.442,304.641 371.609,303.141 369.5,302C 355.252,301.804 342.252,297.804 330.5,290C 321.202,281.57 316.035,271.07 315,258.5C 314.333,248.167 314.333,237.833 315,227.5C 316.3,209.213 325.133,196.046 341.5,188C 348.129,185.513 354.796,183.679 361.5,182.5 Z"/></g>
<g><path style="opacity:0.603" fill="#101010" d="M 670.5,182.5 C 686.805,181.09 702.139,184.256 716.5,192C 729.927,201.019 735.594,213.519 733.5,229.5C 729.511,231.334 726.178,234.001 723.5,237.5C 720.302,238.424 717.135,239.424 714,240.5C 706.215,238.516 698.715,235.849 691.5,232.5C 689.825,228.475 687.659,224.808 685,221.5C 682.929,222.775 681.429,224.609 680.5,227C 678.866,227.494 677.199,227.66 675.5,227.5C 675.5,226.5 675.5,225.5 675.5,224.5C 673.856,224.286 672.356,224.62 671,225.5C 670.333,236.5 670.333,247.5 671,258.5C 671.309,259.766 671.809,260.933 672.5,262C 676.406,263.434 680.406,263.767 684.5,263C 686.894,261.048 688.394,258.548 689,255.5C 689.903,254.299 691.069,253.465 692.5,253C 705.5,252.333 718.5,252.333 731.5,253C 732.333,253.833 733.167,254.667 734,255.5C 735.127,268.121 731.127,278.787 722,287.5C 720.312,297.066 717.145,306.066 712.5,314.5C 709.826,315.75 707.326,317.084 705,318.5C 701.718,317.885 699.718,315.885 699,312.5C 697.246,314.25 695.079,314.917 692.5,314.5C 692.74,317.579 692.407,320.579 691.5,323.5C 689.833,324.833 688.167,324.833 686.5,323.5C 684.775,318.05 683.942,312.384 684,306.5C 682.167,305.333 680.667,303.833 679.5,302C 664.882,302.014 651.549,298.014 639.5,290C 632.202,282.905 627.369,274.405 625,264.5C 623.026,249.835 623.026,235.169 625,220.5C 627.618,207.087 634.785,196.92 646.5,190C 654.277,186.349 662.277,183.849 670.5,182.5 Z"/></g>
<g><path style="opacity:0.582" fill="#101010" d="M 994.5,182.5 C 1015.49,180.445 1033.99,186.111 1050,199.5C 1057.02,207.893 1060.02,217.56 1059,228.5C 1054.87,231.19 1051.04,234.357 1047.5,238C 1044.31,238.399 1041.31,239.232 1038.5,240.5C 1030.93,238.421 1023.59,235.754 1016.5,232.5C 1014.61,228.624 1012.44,224.957 1010,221.5C 1008.07,223.131 1006.24,224.965 1004.5,227C 1003.17,227.667 1001.83,227.667 1000.5,227C 999.405,225.325 997.905,224.158 996,223.5C 995.667,224.167 995.333,224.833 995,225.5C 994.333,236.167 994.333,246.833 995,257.5C 995.273,259.329 996.107,260.829 997.5,262C 1001.41,263.434 1005.41,263.767 1009.5,263C 1011.65,259.567 1013.98,256.234 1016.5,253C 1029.5,252.333 1042.5,252.333 1055.5,253C 1056.93,253.465 1058.1,254.299 1059,255.5C 1059.95,268.605 1055.61,279.605 1046,288.5C 1044.22,297.64 1041.22,306.307 1037,314.5C 1034.12,315.606 1031.45,316.939 1029,318.5C 1026.12,317.957 1024.12,316.291 1023,313.5C 1021.3,314.406 1019.47,314.739 1017.5,314.5C 1017.66,316.857 1017.5,319.19 1017,321.5C 1015.36,324.951 1013.19,325.284 1010.5,322.5C 1009.08,317.482 1008.58,312.482 1009,307.5C 1007.17,305.667 1005.33,303.833 1003.5,302C 962.582,299.911 943.916,278.411 947.5,237.5C 947.109,205.236 962.776,186.903 994.5,182.5 Z"/></g>
<g><path style="opacity:0.609" fill="#121212" d="M 1279.5,203.5 C 1279.5,205.833 1279.5,208.167 1279.5,210.5C 1276.95,201.436 1271.28,194.936 1262.5,191C 1240.23,182.372 1218.9,184.039 1198.5,196C 1190.33,202.177 1185.66,210.344 1184.5,220.5C 1185.28,223.393 1186.61,226.06 1188.5,228.5C 1191.92,228.821 1194.92,229.821 1197.5,231.5C 1198.41,230.672 1199.08,229.672 1199.5,228.5C 1200.67,228.167 1201.83,227.833 1203,227.5C 1206.26,227.141 1208.93,228.141 1211,230.5C 1212.51,229.495 1213.67,228.162 1214.5,226.5C 1215.55,227.383 1216.71,228.05 1218,228.5C 1221.14,225.563 1223.81,222.23 1226,218.5C 1229.22,223.967 1232.05,223.8 1234.5,218C 1236.71,217.544 1237.71,218.544 1237.5,221C 1237.37,222.627 1236.87,224.127 1236,225.5C 1228.32,232.516 1221.32,240.182 1215,248.5C 1211.99,255.096 1214.15,258.596 1221.5,259C 1228.66,258.608 1235.83,259.108 1243,260.5C 1245.88,259.644 1248.71,258.644 1251.5,257.5C 1258.15,249.685 1264.98,242.018 1272,234.5C 1275.32,230.185 1277.82,225.518 1279.5,220.5C 1279.5,222.833 1279.5,225.167 1279.5,227.5C 1278.17,227.833 1278.17,228.167 1279.5,228.5C 1279.5,228.833 1279.5,229.167 1279.5,229.5C 1270.28,240.405 1260.95,251.405 1251.5,262.5C 1251.81,263.308 1252.31,263.975 1253,264.5C 1253.67,274.833 1253.67,285.167 1253,295.5C 1249.67,301.5 1246.33,307.5 1243,313.5C 1241.99,314.337 1240.82,314.67 1239.5,314.5C 1239.7,319.222 1237.7,320.889 1233.5,319.5C 1229.56,325.079 1226.56,324.746 1224.5,318.5C 1224.76,317.311 1225.09,316.144 1225.5,315C 1224.77,311.206 1224.27,307.373 1224,303.5C 1223.67,305.833 1223.33,308.167 1223,310.5C 1219.59,312.223 1217.26,311.223 1216,307.5C 1215.67,304.833 1215.33,302.167 1215,299.5C 1213.29,298.122 1211.95,296.455 1211,294.5C 1210.33,284.833 1210.33,275.167 1211,265.5C 1211.93,262.898 1213.77,261.398 1216.5,261C 1211.25,259.763 1209.42,256.596 1211,251.5C 1216.33,241.168 1223.5,232.335 1232.5,225C 1230.44,224.689 1228.44,224.189 1226.5,223.5C 1224.67,225.5 1223.01,227.667 1221.5,230C 1219.7,231.505 1217.87,231.672 1216,230.5C 1211.23,232.956 1206.56,232.622 1202,229.5C 1197.81,236.345 1192.81,237.012 1187,231.5C 1180.65,220.612 1181.65,210.279 1190,200.5C 1202.49,187.944 1217.65,181.944 1235.5,182.5C 1248.74,181.975 1260.74,185.475 1271.5,193C 1274.41,196.4 1277.08,199.9 1279.5,203.5 Z"/></g>
<g><path style="opacity:0.581" fill="#111111" d="M 23.5,351.5 C 21.1667,351.5 18.8333,351.5 16.5,351.5C 14.975,348.753 13.975,345.753 13.5,342.5C 14.5787,338.206 15.0787,333.872 15,329.5C 11.5579,319.84 7.72458,310.34 3.5,301C 2.35508,299.598 1.02175,298.431 -0.5,297.5C -0.5,260.167 -0.5,222.833 -0.5,185.5C 1.67918,184.941 3.84585,184.274 6,183.5C 15.5152,184.19 24.8485,184.19 34,183.5C 38.7035,184.203 41.3702,186.87 42,191.5C 42.421,197.771 42.5876,203.771 42.5,209.5C 45.8069,202.22 49.6402,195.22 54,188.5C 56.6797,185.5 60.013,183.834 64,183.5C 76.091,184.323 88.2577,184.823 100.5,185C 103.29,187.21 104.123,190.044 103,193.5C 93.2207,208.781 84.3874,224.115 76.5,239.5C 86.5,257.5 96.5,275.5 106.5,293.5C 100.405,304.113 95.0712,315.113 90.5,326.5C 91.8508,330.465 90.5175,333.132 86.5,334.5C 83.7218,334.461 80.8885,334.128 78,333.5C 72.3884,324.934 68.3884,315.601 66,305.5C 65.6667,310.5 65.3333,315.5 65,320.5C 63,323.167 61,323.167 59,320.5C 58.2231,313.177 57.5564,305.843 57,298.5C 52.5726,289.973 47.906,281.64 43,273.5C 42.6667,279.833 42.3333,286.167 42,292.5C 40.1749,296.234 39.1749,300.234 39,304.5C 37.0193,307.993 34.5193,308.326 31.5,305.5C 29.3624,312.047 27.5291,318.714 26,325.5C 22.336,332.327 21.836,339.493 24.5,347C 24.2272,348.533 23.8938,350.033 23.5,351.5 Z"/></g>
<g><path style="opacity:0.578" fill="#0e0e0e" d="M 303.5,183.5 C 307.555,183.568 310.722,185.234 313,188.5C 313.667,198.5 313.667,208.5 313,218.5C 308.22,225.726 304.22,233.392 301,241.5C 298.954,243.376 297.121,245.376 295.5,247.5C 293.239,246.318 291.405,244.651 290,242.5C 288.269,238.705 286.269,235.038 284,231.5C 283.667,252.833 283.333,274.167 283,295.5C 281.543,297.658 279.71,299.491 277.5,301C 273.649,301.414 269.983,302.248 266.5,303.5C 266.649,307.747 265.149,311.08 262,313.5C 261,312.833 260,312.167 259,311.5C 258.667,308.167 258.333,304.833 258,301.5C 257,302.5 256,303.5 255,304.5C 254.753,313.203 254.086,321.87 253,330.5C 251.333,331.833 249.667,331.833 248,330.5C 247.094,328.256 246.594,325.923 246.5,323.5C 247.46,317.851 247.627,312.185 247,306.5C 244.464,301.767 241.464,297.433 238,293.5C 237.667,272.833 237.333,252.167 237,231.5C 233.671,239.369 230.504,239.369 227.5,231.5C 227.167,231.667 226.833,231.833 226.5,232C 226.814,236.336 226.481,240.836 225.5,245.5C 224.037,248.408 221.87,249.075 219,247.5C 217.804,241.581 217.138,235.581 217,229.5C 213.962,226.797 211.295,223.797 209,220.5C 208.779,211.472 208.279,202.472 207.5,193.5C 207.719,190.088 209.052,187.255 211.5,185C 242.336,184.832 273.003,184.332 303.5,183.5 Z"/></g>
<g><path style="opacity:0.643" fill="#0d0d0d" d="M 938.5,183.5 C 941.338,184.17 943.838,185.504 946,187.5C 946.667,198.167 946.667,208.833 946,219.5C 941.056,226.506 937.889,233.006 936.5,239C 934.5,241.667 932.5,244.333 930.5,247C 927.72,247.269 925.554,246.102 924,243.5C 921.921,239.007 919.588,234.674 917,230.5C 916.667,252.167 916.333,273.833 916,295.5C 914.878,297.624 913.378,299.457 911.5,301C 907.305,301.332 903.305,302.165 899.5,303.5C 899.668,307.547 898.335,310.88 895.5,313.5C 894.522,313.023 893.689,312.357 893,311.5C 892.824,308.118 892.324,304.785 891.5,301.5C 890.108,302.605 888.941,303.939 888,305.5C 887.667,313.5 887.333,321.5 887,329.5C 885.084,332.033 883.084,332.033 881,329.5C 880.296,327.722 879.796,325.888 879.5,324C 884.057,312.74 881.557,303.574 872,296.5C 871.667,274.5 871.333,252.5 871,230.5C 867.872,237.904 864.372,238.237 860.5,231.5C 859.844,236.879 859.011,242.213 858,247.5C 856.333,248.833 854.667,248.833 853,247.5C 851.407,242.19 851.074,236.857 852,231.5C 848.637,227.475 845.304,223.475 842,219.5C 841.333,208.833 841.333,198.167 842,187.5C 842.833,186.667 843.667,185.833 844.5,185C 876.003,184.832 907.336,184.332 938.5,183.5 Z"/></g>
<g><path style="opacity:0.588" fill="#141414" d="M 112.5,184.5 C 141.502,184.333 170.502,184.5 199.5,185C 200.931,185.465 202.097,186.299 203,187.5C 203.243,195.69 203.743,203.857 204.5,212C 204.219,214.292 203.552,216.458 202.5,218.5C 199.905,219.713 197.405,221.047 195,222.5C 194.05,221.978 193.216,221.311 192.5,220.5C 189.204,221.765 185.871,222.932 182.5,224C 186.833,224.333 191.167,224.667 195.5,225C 197.286,225.785 198.786,226.951 200,228.5C 200.667,237.5 200.667,246.5 200,255.5C 196.58,259.101 192.413,261.601 187.5,263C 192.167,263.333 196.833,263.667 201.5,264C 202.333,264.833 203.167,265.667 204,266.5C 205.613,276.066 205.947,285.733 205,295.5C 200.675,300.329 196.508,305.329 192.5,310.5C 190.358,312.905 187.691,314.238 184.5,314.5C 184.152,319.574 184.152,324.574 184.5,329.5C 183.378,334.318 180.878,335.318 177,332.5C 176.667,325.833 176.333,319.167 176,312.5C 174.985,309.79 173.485,307.457 171.5,305.5C 168.267,309.94 166.267,314.94 165.5,320.5C 161.904,322.279 159.404,321.279 158,317.5C 158.164,322.155 158.164,326.821 158,331.5C 155,335.5 152,335.5 149,331.5C 148.67,325.479 148.67,319.479 149,313.5C 147.516,309.868 145.516,306.534 143,303.5C 142.085,304.328 141.419,305.328 141,306.5C 140.667,313.167 140.333,319.833 140,326.5C 138.267,328.602 136.267,328.935 134,327.5C 133.358,321.482 133.525,315.482 134.5,309.5C 134.696,306.226 133.529,303.559 131,301.5C 130.097,307.758 128.93,313.925 127.5,320C 125.112,320.865 123.612,320.032 123,317.5C 122.633,313.565 122.467,309.899 122.5,306.5C 121.679,309.447 121.179,312.447 121,315.5C 118.733,316.935 116.733,316.602 115,314.5C 113.839,309.584 113.173,304.584 113,299.5C 111.615,298.449 110.615,297.116 110,295.5C 109.333,259.833 109.333,224.167 110,188.5C 110.662,187.016 111.496,185.683 112.5,184.5 Z M 152.5,221.5 C 160.166,223.629 160.166,224.629 152.5,224.5C 152.5,223.5 152.5,222.5 152.5,221.5 Z M 152.5,260.5 C 160.175,262.634 160.175,263.634 152.5,263.5C 152.5,262.5 152.5,261.5 152.5,260.5 Z"/></g>
<g><path style="opacity:0.585" fill="#131313" d="M 436.5,184.5 C 449.599,184.038 462.599,184.538 475.5,186C 476.227,187.399 476.727,188.899 477,190.5C 477.5,200.828 477.666,211.161 477.5,221.5C 484.167,221.5 490.833,221.5 497.5,221.5C 497.808,211.78 497.474,202.113 496.5,192.5C 496.879,189.459 498.212,186.959 500.5,185C 512.833,184.333 525.167,184.333 537.5,185C 540.813,186.566 542.479,189.233 542.5,193C 541.17,225.497 541.17,257.997 542.5,290.5C 542.25,294.424 540.75,297.758 538,300.5C 537.302,309.313 536.968,317.98 537,326.5C 534.966,329.859 532.632,330.192 530,327.5C 530.195,319.968 529.862,312.302 529,304.5C 526.739,309.479 523.406,310.479 519,307.5C 517.644,308.38 516.144,308.714 514.5,308.5C 513.694,313.993 511.527,314.66 508,310.5C 506.604,312.527 504.938,312.86 503,311.5C 501.787,306.298 500.12,301.298 498,296.5C 497.667,286.5 497.333,276.5 497,266.5C 491.521,271.294 488.854,277.294 489,284.5C 488,285.5 487,286.5 486,287.5C 484.989,286.663 483.822,286.33 482.5,286.5C 482.598,280.08 481.098,274.08 478,268.5C 477.667,277.167 477.333,285.833 477,294.5C 474.482,300.354 470.149,304.021 464,305.5C 462.439,305.397 460.939,305.063 459.5,304.5C 458.147,306.183 456.48,307.516 454.5,308.5C 453.085,305.925 450.918,304.258 448,303.5C 446.669,304.996 445.169,306.329 443.5,307.5C 440.462,303.45 436.962,299.784 433,296.5C 432.333,260.5 432.333,224.5 433,188.5C 433.69,186.65 434.856,185.316 436.5,184.5 Z"/></g>
<g><path style="opacity:0.564" fill="#111111" d="M 772.5,184.5 C 786.504,184.333 800.504,184.5 814.5,185C 815.579,185.956 816.745,186.789 818,187.5C 822.076,199.395 826.743,211.061 832,222.5C 837.844,243.033 844.677,263.199 852.5,283C 852.167,283.333 851.833,283.667 851.5,284C 855.31,290.032 855.477,296.198 852,302.5C 849.646,303.736 847.646,305.403 846,307.5C 842.727,313.367 840.06,319.367 838,325.5C 835.614,328.158 833.614,327.825 832,324.5C 831.713,322.109 831.213,319.776 830.5,317.5C 828.576,317.433 826.576,317.1 824.5,316.5C 823.966,312.63 822.8,308.963 821,305.5C 819,308.167 817,308.167 815,305.5C 814.093,299.699 812.093,294.365 809,289.5C 806.424,297.813 802.924,305.646 798.5,313C 796.231,313.758 794.064,313.591 792,312.5C 789.237,306.781 787.404,300.781 786.5,294.5C 784.641,294.461 783.308,295.294 782.5,297C 780.866,297.494 779.199,297.66 777.5,297.5C 777.313,295.436 776.813,293.436 776,291.5C 775.194,294.446 773.861,297.112 772,299.5C 769.302,311.582 765.635,323.582 761,335.5C 759.604,337.527 757.938,337.86 756,336.5C 754.873,333.623 754.206,330.623 754,327.5C 748.893,320.288 744.56,312.621 741,304.5C 738.959,305.423 736.792,305.756 734.5,305.5C 735.084,302.017 734.251,299.017 732,296.5C 731.333,293.833 731.333,291.167 732,288.5C 743.871,255.887 755.537,223.221 767,190.5C 768.36,187.977 770.193,185.977 772.5,184.5 Z M 792.5,233.5 C 793.117,233.611 793.617,233.944 794,234.5C 795.273,239.432 796.773,244.265 798.5,249C 795.118,249.824 791.784,249.657 788.5,248.5C 790.245,243.6 791.578,238.6 792.5,233.5 Z"/></g>
<g><path style="opacity:0.563" fill="#0d0d0d" d="M 1069.5,184.5 C 1082.17,184.333 1094.84,184.5 1107.5,185C 1108.7,185.903 1109.53,187.069 1110,188.5C 1110.5,199.495 1110.67,210.495 1110.5,221.5C 1117.17,221.5 1123.83,221.5 1130.5,221.5C 1130.33,210.495 1130.5,199.495 1131,188.5C 1131.47,187.069 1132.3,185.903 1133.5,185C 1146.17,184.333 1158.83,184.333 1171.5,185C 1173.26,186.008 1174.43,187.508 1175,189.5C 1175.67,224.833 1175.67,260.167 1175,295.5C 1173.27,297.234 1171.93,299.234 1171,301.5C 1170.67,309.833 1170.33,318.167 1170,326.5C 1167.62,330.466 1165.28,330.466 1163,326.5C 1163.63,319.173 1163.47,311.84 1162.5,304.5C 1161.38,305.914 1160.38,307.414 1159.5,309C 1155.83,309.279 1152.16,309.112 1148.5,308.5C 1148.6,312.692 1146.76,314.025 1143,312.5C 1142.57,307.502 1141.74,307.335 1140.5,312C 1138.63,312.711 1137.13,312.211 1136,310.5C 1134.8,305.349 1133.13,300.349 1131,295.5C 1130.67,285.833 1130.33,276.167 1130,266.5C 1128,269.167 1126,271.833 1124,274.5C 1122.93,278.084 1122.26,281.75 1122,285.5C 1120,288.167 1118,288.167 1116,285.5C 1115.67,281.833 1115.33,278.167 1115,274.5C 1112.89,272.623 1111.56,270.29 1111,267.5C 1110.67,276.833 1110.33,286.167 1110,295.5C 1106.37,302.81 1100.71,305.81 1093,304.5C 1089.64,309.753 1086.47,309.587 1083.5,304C 1082.21,303.51 1080.87,303.343 1079.5,303.5C 1079.02,307.073 1077.36,307.906 1074.5,306C 1071.99,301.532 1069.16,297.365 1066,293.5C 1065.33,259.167 1065.33,224.833 1066,190.5C 1066.93,188.308 1068.09,186.308 1069.5,184.5 Z"/></g>
<g><path style="opacity:1" fill="#fbfbfb" d="M 383.5,256.5 C 396.117,255.538 408.784,255.205 421.5,255.5C 422.665,256.496 423.332,257.829 423.5,259.5C 422.775,265.842 420.942,271.842 418,277.5C 415,281.167 412,284.833 409,288.5C 407.482,295.593 405.649,302.593 403.5,309.5C 400.457,311.491 397.79,313.824 395.5,316.5C 393.39,310.805 390.724,305.471 387.5,300.5C 387.002,304.425 387.002,308.425 387.5,312.5C 386.5,312.5 385.5,312.5 384.5,312.5C 384.595,308.775 384.762,305.109 385,301.5C 382.569,304.417 381.402,307.75 381.5,311.5C 380.5,311.5 379.5,311.5 378.5,311.5C 378.662,309.473 378.495,307.473 378,305.5C 375.833,303.333 373.667,301.167 371.5,299C 360.856,298.575 350.522,296.575 340.5,293C 328.392,286.227 320.892,276.06 318,262.5C 317.333,248.833 317.333,235.167 318,221.5C 323.987,199.534 338.487,187.701 361.5,186C 377.349,184.74 392.349,187.74 406.5,195C 418.569,202.972 423.736,214.138 422,228.5C 418.033,229.128 415.199,231.295 413.5,235C 412.451,235.492 411.451,235.326 410.5,234.5C 408.937,236.402 406.937,237.402 404.5,237.5C 398.121,236.431 392.287,234.098 387,230.5C 386.667,230.833 386.333,231.167 386,231.5C 383.626,227.25 381.126,223.084 378.5,219C 376.833,218.333 375.167,218.333 373.5,219C 372.36,220.973 371.027,222.807 369.5,224.5C 368.702,222.922 368.202,221.256 368,219.5C 365.88,222.08 363.713,222.08 361.5,219.5C 360.416,220.665 359.583,221.998 359,223.5C 358.08,236.224 358.414,248.89 360,261.5C 364.14,266.211 369.306,267.711 375.5,266C 379.474,263.865 382.141,260.699 383.5,256.5 Z"/></g>
<g><path style="opacity:1" fill="#fbfbfb" d="M 671.5,185.5 C 687.058,184.703 701.725,187.869 715.5,195C 727.219,202.708 732.719,213.541 732,227.5C 730.068,229.038 727.901,230.205 725.5,231C 724.449,234.28 722.449,235.447 719.5,234.5C 717.796,236.041 715.963,237.375 714,238.5C 707.634,236.581 701.634,233.914 696,230.5C 695.667,230.833 695.333,231.167 695,231.5C 692.613,227.218 690.113,223.051 687.5,219C 685.833,218.333 684.167,218.333 682.5,219C 681.37,221.428 679.87,223.595 678,225.5C 678.419,219.837 677.086,218.837 674,222.5C 673,221.167 672,219.833 671,218.5C 670,220.167 669,221.833 668,223.5C 667.078,236.557 667.411,249.557 669,262.5C 675.482,267.363 682.148,267.697 689,263.5C 689.937,260.344 691.437,257.511 693.5,255C 705.833,254.333 718.167,254.333 730.5,255C 731,255.5 731.5,256 732,256.5C 732.464,265.308 730.131,273.308 725,280.5C 722.294,282.871 719.961,285.537 718,288.5C 716.609,295.674 714.609,302.674 712,309.5C 709.239,311.579 706.739,313.913 704.5,316.5C 702.39,310.805 699.724,305.471 696.5,300.5C 696.142,304.401 696.142,308.401 696.5,312.5C 695.5,312.5 694.5,312.5 693.5,312.5C 693.517,309.08 693.683,305.746 694,302.5C 691.169,304.838 690.003,307.838 690.5,311.5C 689.5,311.5 688.5,311.5 687.5,311.5C 687.985,306.458 685.985,302.624 681.5,300C 667.737,298.976 654.737,295.31 642.5,289C 634.406,282.318 629.239,273.818 627,263.5C 626.333,249.833 626.333,236.167 627,222.5C 629.137,208.71 636.303,198.544 648.5,192C 656.071,189.028 663.738,186.861 671.5,185.5 Z"/></g>
<g><path style="opacity:1" fill="#fbfbfb" d="M 1003.5,224.5 C 1002.84,222.958 1002.17,221.291 1001.5,219.5C 1000.89,219.624 1000.56,219.957 1000.5,220.5C 999.432,221.434 998.099,221.768 996.5,221.5C 995.395,217.829 994.395,218.162 993.5,222.5C 992.883,222.611 992.383,222.944 992,223.5C 991.174,235.674 991.34,247.674 992.5,259.5C 994.701,264.197 998.534,266.531 1004,266.5C 1011.03,266.808 1015.03,263.474 1016,256.5C 1016.75,255.874 1017.58,255.374 1018.5,255C 1030.5,254.333 1042.5,254.333 1054.5,255C 1055.98,256.299 1056.65,257.966 1056.5,260C 1055.47,270.568 1051.13,279.402 1043.5,286.5C 1042.08,288.515 1041.41,290.848 1041.5,293.5C 1040.31,298.896 1038.81,304.229 1037,309.5C 1034.24,311.66 1031.58,313.993 1029,316.5C 1026.33,311.131 1023.66,305.798 1021,300.5C 1020.89,304.177 1020.89,307.843 1021,311.5C 1020,312.833 1019,312.833 1018,311.5C 1017.68,308.46 1017.68,305.46 1018,302.5C 1017.38,304.116 1016.38,305.449 1015,306.5C 1014.51,308.134 1014.34,309.801 1014.5,311.5C 1013.5,311.5 1012.5,311.5 1011.5,311.5C 1011.66,309.473 1011.5,307.473 1011,305.5C 1008.83,303.333 1006.67,301.167 1004.5,299C 989.864,298.997 976.531,294.997 964.5,287C 958.088,280.011 953.922,271.844 952,262.5C 951.082,247.121 951.416,231.787 953,216.5C 958.622,199.883 970.122,190.05 987.5,187C 1006.54,183.768 1024.54,186.768 1041.5,196C 1052.15,203.81 1056.99,214.31 1056,227.5C 1052.11,229.379 1048.78,232.045 1046,235.5C 1045.59,235.043 1045.09,234.709 1044.5,234.5C 1042.72,236.444 1040.55,237.777 1038,238.5C 1031.86,236.352 1026.02,233.685 1020.5,230.5C 1019.91,230.709 1019.41,231.043 1019,231.5C 1016.61,227.218 1014.11,223.051 1011.5,219C 1006.85,217.802 1004.18,219.636 1003.5,224.5 Z"/></g>
<g><path style="opacity:1" fill="#fafafa" d="M 1279.5,210.5 C 1279.5,213.833 1279.5,217.167 1279.5,220.5C 1277.82,225.518 1275.32,230.185 1272,234.5C 1264.98,242.018 1258.15,249.685 1251.5,257.5C 1248.71,258.644 1245.88,259.644 1243,260.5C 1235.83,259.108 1228.66,258.608 1221.5,259C 1214.15,258.596 1211.99,255.096 1215,248.5C 1221.32,240.182 1228.32,232.516 1236,225.5C 1236.87,224.127 1237.37,222.627 1237.5,221C 1237.71,218.544 1236.71,217.544 1234.5,218C 1232.05,223.8 1229.22,223.967 1226,218.5C 1223.81,222.23 1221.14,225.563 1218,228.5C 1216.71,228.05 1215.55,227.383 1214.5,226.5C 1213.67,228.162 1212.51,229.495 1211,230.5C 1208.93,228.141 1206.26,227.141 1203,227.5C 1201.83,227.833 1200.67,228.167 1199.5,228.5C 1199.08,229.672 1198.41,230.672 1197.5,231.5C 1194.92,229.821 1191.92,228.821 1188.5,228.5C 1186.61,226.06 1185.28,223.393 1184.5,220.5C 1185.66,210.344 1190.33,202.177 1198.5,196C 1218.9,184.039 1240.23,182.372 1262.5,191C 1271.28,194.936 1276.95,201.436 1279.5,210.5 Z"/></g>
<g><path style="opacity:1" fill="#fdfdfd" d="M 38.5,191.5 C 38.3335,201.506 38.5002,211.506 39,221.5C 39.7172,220.956 40.2172,220.289 40.5,219.5C 45.8559,208.62 51.8559,198.12 58.5,188C 72.4083,187.177 86.2417,187.344 100,188.5C 100.667,190.167 100.667,191.833 100,193.5C 90.4486,208.769 81.282,224.269 72.5,240C 82.4796,256.928 92.6463,273.761 103,290.5C 103.667,292.167 103.667,293.833 103,295.5C 97.3412,304.177 93.0079,313.51 90,323.5C 87.4414,325.336 86.7747,327.669 88,330.5C 87.586,330.957 87.086,331.291 86.5,331.5C 85.7022,329.922 85.2022,328.256 85,326.5C 83.4186,331.629 81.0853,332.296 78,328.5C 76.3333,325.5 74.6667,322.5 73,319.5C 71.3947,312.627 69.2281,305.96 66.5,299.5C 65.4324,298.566 64.099,298.232 62.5,298.5C 62.5,300.167 62.5,301.833 62.5,303.5C 61.8333,301.833 61.1667,300.167 60.5,298.5C 60.6495,297.448 60.4828,296.448 60,295.5C 52.7484,283.999 45.7484,272.332 39,260.5C 38.8325,272.181 38.3325,283.848 37.5,295.5C 36.6667,298.5 35.8333,301.5 35,304.5C 33.9274,302.453 32.7607,300.453 31.5,298.5C 29.0186,300.928 27.6853,303.928 27.5,307.5C 26.0762,309.515 25.4095,311.848 25.5,314.5C 24.3901,320.664 22.3901,326.497 19.5,332C 21.0962,337.724 21.7629,343.558 21.5,349.5C 20.1779,349.67 19.0113,349.337 18,348.5C 17.5454,341.47 17.5454,334.47 18,327.5C 14.5078,317.182 10.3411,307.182 5.5,297.5C 3.80678,296.772 2.30678,295.772 1,294.5C 0.333333,259.5 0.333333,224.5 1,189.5C 1.5,189 2,188.5 2.5,188C 13.8333,187.333 25.1667,187.333 36.5,188C 37.8228,188.816 38.4894,189.983 38.5,191.5 Z"/></g>
<g><path style="opacity:1" fill="#fcfcfc" d="M 151.5,218.5 C 151.44,217.957 151.107,217.624 150.5,217.5C 149.197,220.645 149.197,223.645 150.5,226.5C 164.994,227.331 179.661,227.831 194.5,228C 195.416,228.374 196.25,228.874 197,229.5C 197.667,237.833 197.667,246.167 197,254.5C 186.832,260.76 175.832,263.426 164,262.5C 159.815,259.825 155.315,257.825 150.5,256.5C 149.213,259.709 149.213,262.875 150.5,266C 167.167,266.333 183.833,266.667 200.5,267C 201,267.5 201.5,268 202,268.5C 202.667,277.167 202.667,285.833 202,294.5C 197.454,299.377 193.287,304.544 189.5,310C 186.986,311.252 184.32,311.752 181.5,311.5C 180.833,311.833 180.167,312.167 179.5,312.5C 177.23,307.725 174.73,303.058 172,298.5C 171.667,299.833 171.333,301.167 171,302.5C 170.667,301.833 170.333,301.167 170,300.5C 168.503,304.165 166.503,307.498 164,310.5C 163.503,312.81 163.337,315.143 163.5,317.5C 162.837,315.958 162.17,314.291 161.5,312.5C 160.583,311.873 159.583,311.539 158.5,311.5C 156.871,311.372 155.538,312.372 154.5,314.5C 153.833,314.5 153.167,314.5 152.5,314.5C 150.428,310.418 148.428,306.251 146.5,302C 141.691,299.573 139.024,301.073 138.5,306.5C 138.167,306.5 137.833,306.5 137.5,306.5C 136.657,303.484 135.157,300.817 133,298.5C 131.887,297.289 130.72,297.289 129.5,298.5C 127.927,304.74 126.761,311.074 126,317.5C 124.954,316.228 124.454,314.728 124.5,313C 125.107,309.857 125.441,306.69 125.5,303.5C 123.409,303.682 121.409,303.348 119.5,302.5C 118.673,306.459 118.173,310.459 118,314.5C 116.352,308.638 115.352,302.638 115,296.5C 114.333,295.833 113.667,295.167 113,294.5C 112.333,259.167 112.333,223.833 113,188.5C 141.428,187.338 169.928,187.172 198.5,188C 199,188.5 199.5,189 200,189.5C 200.667,198.167 200.667,206.833 200,215.5C 199.308,216.025 198.808,216.692 198.5,217.5C 188.437,219.884 178.437,222.217 168.5,224.5C 162.545,223.358 156.878,221.358 151.5,218.5 Z M 152.5,221.5 C 152.5,222.5 152.5,223.5 152.5,224.5C 160.166,224.629 160.166,223.629 152.5,221.5 Z"/></g>
<g><path style="opacity:1" fill="#fcfcfc" d="M 282.5,224.5 C 282.167,223.833 281.833,223.167 281.5,222.5C 281.44,221.957 281.107,221.624 280.5,221.5C 279.5,245.824 279.167,270.158 279.5,294.5C 277.645,298.303 274.812,299.303 271,297.5C 270.167,298.5 269.333,299.5 268.5,300.5C 267.264,299.754 265.93,299.421 264.5,299.5C 263.105,313.114 261.939,313.447 261,300.5C 260.221,299.272 259.221,298.272 258,297.5C 255.384,299.383 253.218,301.716 251.5,304.5C 250.833,304.833 250.167,305.167 249.5,305.5C 248.104,300.702 245.271,297.035 241,294.5C 240.667,270.167 240.333,245.833 240,221.5C 238.148,226.023 235.482,230.023 232,233.5C 231.482,230.977 230.148,228.977 228,227.5C 227.667,228.167 227.333,228.833 227,229.5C 226.107,228.289 225.274,228.289 224.5,229.5C 223.959,231.535 223.292,233.535 222.5,235.5C 219.685,229.221 215.851,223.554 211,218.5C 210.333,208.833 210.333,199.167 211,189.5C 211.5,189 212,188.5 212.5,188C 244.5,187.333 276.5,187.333 308.5,188C 309,188.5 309.5,189 310,189.5C 310.667,199.167 310.667,208.833 310,218.5C 305.144,226.212 300.81,234.212 297,242.5C 296.147,244.125 295.147,244.458 294,243.5C 290.643,236.77 286.81,230.437 282.5,224.5 Z"/></g>
<g><path style="opacity:1" fill="#fdfdfd" d="M 534.5,300.5 C 532.694,297.662 531.694,297.995 531.5,301.5C 530.153,300.972 528.819,300.805 527.5,301C 526.624,302.586 525.624,304.086 524.5,305.5C 523.117,302.924 522.283,303.258 522,306.5C 520.92,304.004 519.586,301.67 518,299.5C 516.34,308.668 514.84,308.668 513.5,299.5C 512.702,299.957 512.369,300.624 512.5,301.5C 511.833,301.5 511.167,301.5 510.5,301.5C 508.883,300.962 507.216,300.629 505.5,300.5C 505.33,312.482 504.83,312.482 504,300.5C 503.667,300.833 503.333,301.167 503,301.5C 502.847,298.849 502.013,296.516 500.5,294.5C 500.832,282.482 500.499,270.482 499.5,258.5C 498.893,258.624 498.56,258.957 498.5,259.5C 494.675,264.47 490.842,269.47 487,274.5C 486.502,277.482 486.335,280.482 486.5,283.5C 485.833,280.5 485.167,277.5 484.5,274.5C 482.344,268.852 479.177,263.852 475,259.5C 474.667,271.167 474.333,282.833 474,294.5C 472.189,298.655 469.023,300.655 464.5,300.5C 462.713,301.817 461.046,301.484 459.5,299.5C 457.541,300.748 456.041,302.415 455,304.5C 454.798,302.744 454.298,301.078 453.5,299.5C 452.808,300.025 452.308,300.692 452,301.5C 451.311,300.643 450.478,299.977 449.5,299.5C 448.167,300.833 446.833,300.833 445.5,299.5C 444.833,300.833 444.167,302.167 443.5,303.5C 441.649,299.976 439.149,296.976 436,294.5C 435.333,259.5 435.333,224.5 436,189.5C 436.5,189 437,188.5 437.5,188C 449.5,187.333 461.5,187.333 473.5,188C 474.322,199.758 474.822,211.591 475,223.5C 483.081,224.482 491.248,224.816 499.5,224.5C 499.333,212.829 499.5,201.162 500,189.5C 500.5,189 501,188.5 501.5,188C 513.167,187.333 524.833,187.333 536.5,188C 537,188.5 537.5,189 538,189.5C 538.667,224.833 538.667,260.167 538,295.5C 536.824,297.196 535.657,298.862 534.5,300.5 Z"/></g>
<g><path style="opacity:1" fill="#fbfbfb" d="M 829.5,224.5 C 829.41,227.152 830.076,229.485 831.5,231.5C 838.268,251.915 845.268,272.415 852.5,293C 850.655,295.528 849.488,298.361 849,301.5C 848.309,299.109 847.309,299.109 846,301.5C 841.762,308.642 838.096,315.975 835,323.5C 834.495,318.18 832.662,313.513 829.5,309.5C 828.692,309.808 828.025,310.308 827.5,311C 828.731,312.183 828.731,313.349 827.5,314.5C 827.045,309.77 825.545,305.437 823,301.5C 821.333,300.167 819.667,300.167 818,301.5C 814.541,295.573 811.875,289.24 810,282.5C 805.134,292.232 800.301,301.899 795.5,311.5C 794.522,311.023 793.689,310.357 793,309.5C 791.584,301.486 789.417,293.819 786.5,286.5C 785.779,284.618 784.779,284.285 783.5,285.5C 782.069,286.78 781.402,288.447 781.5,290.5C 780.833,289.5 780.167,288.5 779.5,287.5C 778.984,285.8 777.984,284.467 776.5,283.5C 774.994,288.2 772.827,292.534 770,296.5C 767.016,305.402 764.349,314.402 762,323.5C 759.125,326.542 757.792,330.209 758,334.5C 757.667,331.833 757.333,329.167 757,326.5C 750.585,319.672 746.251,311.672 744,302.5C 741.834,297.464 740.001,297.464 738.5,302.5C 737.524,298.879 736.19,295.546 734.5,292.5C 745.6,258.371 757.434,224.371 770,190.5C 770.833,189.667 771.667,188.833 772.5,188C 786.927,187.035 801.26,187.368 815.5,189C 820.462,200.722 825.129,212.555 829.5,224.5 Z M 792.5,233.5 C 791.578,238.6 790.245,243.6 788.5,248.5C 791.784,249.657 795.118,249.824 798.5,249C 796.773,244.265 795.273,239.432 794,234.5C 793.617,233.944 793.117,233.611 792.5,233.5 Z"/></g>
<g><path style="opacity:1" fill="#fdfdfd" d="M 915.5,222.5 C 915.44,221.957 915.107,221.624 914.5,221.5C 913.5,245.824 913.167,270.158 913.5,294.5C 911.876,295.62 910.376,296.953 909,298.5C 905.915,296.959 903.415,297.625 901.5,300.5C 900.549,299.674 899.549,299.508 898.5,300C 897.518,302.738 896.852,305.572 896.5,308.5C 895.833,306.5 895.167,304.5 894.5,302.5C 894.707,299.873 893.54,298.207 891,297.5C 888.316,299.69 886.149,302.357 884.5,305.5C 883.833,305.167 883.167,304.833 882.5,304.5C 880.873,300.219 878.206,296.886 874.5,294.5C 874.833,270.158 874.5,245.824 873.5,221.5C 872.702,221.957 872.369,222.624 872.5,223.5C 870.579,227.423 868.246,231.089 865.5,234.5C 864.702,232.922 864.202,231.256 864,229.5C 863.439,228.978 862.772,228.645 862,228.5C 858.341,228.301 856.175,230.301 855.5,234.5C 854.702,232.922 854.202,231.256 854,229.5C 850.297,226.133 846.964,222.466 844,218.5C 843.333,208.833 843.333,199.167 844,189.5C 844.5,189 845,188.5 845.5,188C 877.833,187.333 910.167,187.333 942.5,188C 943,188.5 943.5,189 944,189.5C 944.667,199.167 944.667,208.833 944,218.5C 938.907,225.68 934.574,233.347 931,241.5C 929.333,244.167 927.667,244.167 926,241.5C 922.488,235.14 918.988,228.806 915.5,222.5 Z"/></g>
<g><path style="opacity:1" fill="#fafafa" d="M 1108.5,223.5 C 1116.65,224.493 1124.98,224.826 1133.5,224.5C 1133.5,212.833 1133.5,201.167 1133.5,189.5C 1133.61,188.883 1133.94,188.383 1134.5,188C 1146.17,187.333 1157.83,187.333 1169.5,188C 1170.42,188.374 1171.25,188.874 1172,189.5C 1172.67,224.5 1172.67,259.5 1172,294.5C 1170.43,295.984 1169.09,297.651 1168,299.5C 1167.5,308.16 1167.33,316.827 1167.5,325.5C 1166.89,316.288 1166.23,308.288 1165.5,301.5C 1161.46,300.322 1158.96,301.989 1158,306.5C 1157.37,304.009 1156.54,304.009 1155.5,306.5C 1151.95,297.821 1150.29,297.821 1150.5,306.5C 1149.5,306.5 1148.5,306.5 1147.5,306.5C 1147.66,304.143 1147.5,301.81 1147,299.5C 1146.67,299.833 1146.33,300.167 1146,300.5C 1145.67,303.833 1145.33,307.167 1145,310.5C 1144.5,307.518 1144.34,304.518 1144.5,301.5C 1143.21,301.737 1142.21,301.404 1141.5,300.5C 1139.19,299.675 1137.19,298.342 1135.5,296.5C 1134.45,295.778 1133.78,294.778 1133.5,293.5C 1133.83,282.147 1133.5,270.814 1132.5,259.5C 1131.89,259.624 1131.56,259.957 1131.5,260.5C 1125.01,266.843 1120.84,274.51 1119,283.5C 1118.44,274.381 1115.11,266.381 1109,259.5C 1108.67,270.833 1108.33,282.167 1108,293.5C 1106.04,297.643 1102.88,299.976 1098.5,300.5C 1097.47,299.645 1096.3,298.978 1095,298.5C 1094.24,298.57 1093.74,298.903 1093.5,299.5C 1091.52,300.812 1089.85,302.479 1088.5,304.5C 1087.7,302.922 1087.2,301.256 1087,299.5C 1085.98,302.028 1084.82,302.028 1083.5,299.5C 1081.36,300.953 1079.52,300.62 1078,298.5C 1077.56,304.8 1076.22,304.8 1074,298.5C 1072.33,297.167 1070.67,295.833 1069,294.5C 1068.33,259.5 1068.33,224.5 1069,189.5C 1069.5,189 1070,188.5 1070.5,188C 1082.5,187.333 1094.5,187.333 1106.5,188C 1107.13,188.75 1107.63,189.584 1108,190.5C 1108.5,201.495 1108.67,212.495 1108.5,223.5 Z"/></g>
<g><path style="opacity:1" fill="#4d4d4d" d="M 1133.5,189.5 C 1133.5,201.167 1133.5,212.833 1133.5,224.5C 1124.98,224.826 1116.65,224.493 1108.5,223.5C 1116.5,223.5 1124.5,223.5 1132.5,223.5C 1132.17,211.988 1132.51,200.654 1133.5,189.5 Z"/></g>
<g><path style="opacity:1" fill="#505050" d="M 38.5,191.5 C 39.1667,200.833 39.8333,210.167 40.5,219.5C 40.2172,220.289 39.7172,220.956 39,221.5C 38.5002,211.506 38.3335,201.506 38.5,191.5 Z"/></g>
<g><path style="opacity:1" fill="#626262" d="M 151.5,218.5 C 150.527,220.948 150.194,223.615 150.5,226.5C 149.197,223.645 149.197,220.645 150.5,217.5C 151.107,217.624 151.44,217.957 151.5,218.5 Z"/></g>
<g><path style="opacity:1" fill="#787878" d="M 1000.5,220.5 C 1000.56,219.957 1000.89,219.624 1001.5,219.5C 1002.17,221.291 1002.84,222.958 1003.5,224.5C 1003.44,225.043 1003.11,225.376 1002.5,225.5C 1001.83,223.709 1001.16,222.042 1000.5,220.5 Z"/></g>
<g><path style="opacity:1" fill="#bdbdbd" d="M 281.5,222.5 C 280.502,245.994 280.169,269.661 280.5,293.5C 280.5,294.167 280.167,294.5 279.5,294.5C 279.167,270.158 279.5,245.824 280.5,221.5C 281.107,221.624 281.44,221.957 281.5,222.5 Z"/></g>
<g><path style="opacity:1" fill="#7f7f7f" d="M 915.5,222.5 C 914.833,246.5 914.167,270.5 913.5,294.5C 913.167,270.158 913.5,245.824 914.5,221.5C 915.107,221.624 915.44,221.957 915.5,222.5 Z"/></g>
<g><path style="opacity:1" fill="#2a2a2a" d="M 281.5,222.5 C 281.833,223.167 282.167,223.833 282.5,224.5C 281.833,247.5 281.167,270.5 280.5,293.5C 280.169,269.661 280.502,245.994 281.5,222.5 Z"/></g>
<g><path style="opacity:1" fill="#6b6b6b" d="M 874.5,294.5 C 873.833,270.833 873.167,247.167 872.5,223.5C 872.369,222.624 872.702,221.957 873.5,221.5C 874.5,245.824 874.833,270.158 874.5,294.5 Z"/></g>
<g><path style="opacity:0.666" fill="#101010" d="M 801.5,251.5 C 795.729,252.113 790.396,251.446 785.5,249.5C 787.834,241.172 790.334,232.839 793,224.5C 796.139,233.415 798.972,242.415 801.5,251.5 Z M 792.5,233.5 C 791.578,238.6 790.245,243.6 788.5,248.5C 791.784,249.657 795.118,249.824 798.5,249C 796.773,244.265 795.273,239.432 794,234.5C 793.617,233.944 793.117,233.611 792.5,233.5 Z"/></g>
<g><path style="opacity:1" fill="#909090" d="M 829.5,224.5 C 830.924,226.515 831.59,228.848 831.5,231.5C 830.076,229.485 829.41,227.152 829.5,224.5 Z"/></g>
<g><path style="opacity:0.629" fill="#0f0f0f" d="M 556.5,231.5 C 575.17,231.333 593.836,231.5 612.5,232C 615.751,233.59 617.417,236.257 617.5,240C 616.216,245.655 616.216,251.322 617.5,257C 617,259.5 616.5,262 616,264.5C 611.952,268.88 608.285,273.546 605,278.5C 604.055,282.114 603.388,285.781 603,289.5C 601.561,291.014 600.061,291.347 598.5,290.5C 597.671,295.467 597.171,300.467 597,305.5C 594.756,307.994 592.423,307.994 590,305.5C 588.228,300.565 588.062,295.565 589.5,290.5C 588.372,289.738 587.205,289.071 586,288.5C 584.416,284.575 583.083,280.575 582,276.5C 581.517,277.448 581.351,278.448 581.5,279.5C 578.459,279.551 575.792,280.551 573.5,282.5C 568.604,280.368 564.937,276.868 562.5,272C 559.667,269.833 556.833,267.667 554,265.5C 552.385,255.6 552.051,245.6 553,235.5C 553.69,233.65 554.856,232.316 556.5,231.5 Z"/></g>
<g><path style="opacity:1" fill="#f8f8f8" d="M 572.5,279.5 C 572.823,275.774 572.489,272.107 571.5,268.5C 570.081,269.005 569.415,270.005 569.5,271.5C 569.762,272.978 569.429,274.311 568.5,275.5C 564.569,270.738 560.069,266.405 555,262.5C 554.333,253.833 554.333,245.167 555,236.5C 555.5,236 556,235.5 556.5,235C 574.833,234.333 593.167,234.333 611.5,235C 612.416,235.374 613.25,235.874 614,236.5C 614.667,245.5 614.667,254.5 614,263.5C 606.697,270.126 602.03,278.126 600,287.5C 599.474,284.728 598.641,282.062 597.5,279.5C 596.333,281.167 595.167,282.833 594,284.5C 594.573,290.774 595.073,297.107 595.5,303.5C 593.549,303.773 592.049,303.107 591,301.5C 590.326,296.233 590.826,291.066 592.5,286C 592.375,284.373 591.875,282.873 591,281.5C 590.107,280.289 589.274,280.289 588.5,281.5C 589.939,283.343 589.772,285.01 588,286.5C 586.701,279.571 584.034,273.238 580,267.5C 579.502,270.482 579.335,273.482 579.5,276.5C 576.962,277.043 574.628,278.043 572.5,279.5 Z"/></g>
<g><path style="opacity:1" fill="#8e8e8e" d="M 993.5,222.5 C 992.54,234.783 992.206,247.117 992.5,259.5C 991.34,247.674 991.174,235.674 992,223.5C 992.383,222.944 992.883,222.611 993.5,222.5 Z"/></g>
<g><path style="opacity:1" fill="#8f8f8f" d="M 785.5,249.5 C 790.396,251.446 795.729,252.113 801.5,251.5C 796.025,252.489 790.358,252.822 784.5,252.5C 784.263,251.209 784.596,250.209 785.5,249.5 Z"/></g>
<g><path style="opacity:1" fill="#bcbcbc" d="M 421.5,255.5 C 408.784,255.205 396.117,255.538 383.5,256.5C 383.611,255.883 383.944,255.383 384.5,255C 397.007,254.173 409.34,254.34 421.5,255.5 Z"/></g>
<g><path style="opacity:1" fill="#ababab" d="M 498.5,259.5 C 498.56,258.957 498.893,258.624 499.5,258.5C 500.499,270.482 500.832,282.482 500.5,294.5C 499.833,282.833 499.167,271.167 498.5,259.5 Z"/></g>
<g><path style="opacity:1" fill="#585858" d="M 1131.5,260.5 C 1131.56,259.957 1131.89,259.624 1132.5,259.5C 1133.5,270.814 1133.83,282.147 1133.5,293.5C 1132.83,282.5 1132.17,271.5 1131.5,260.5 Z"/></g>
<g><path style="opacity:1" fill="#fafafa" d="M 1238.5,301.5 C 1238.44,300.957 1238.11,300.624 1237.5,300.5C 1236.51,305.456 1236.17,310.456 1236.5,315.5C 1236.18,317.048 1235.18,317.715 1233.5,317.5C 1233.83,311.794 1233.5,306.128 1232.5,300.5C 1231.67,301.5 1230.83,302.5 1230,303.5C 1229.83,309.196 1229.33,314.862 1228.5,320.5C 1227.52,317.914 1227.19,315.247 1227.5,312.5C 1228.6,308.665 1228.26,304.998 1226.5,301.5C 1225.16,300.685 1224.16,299.518 1223.5,298C 1222.83,297.333 1222.17,297.333 1221.5,298C 1219.94,311.98 1218.78,311.813 1218,297.5C 1216.49,296.743 1215.15,295.743 1214,294.5C 1213.33,284.833 1213.33,275.167 1214,265.5C 1214.5,265 1215,264.5 1215.5,264C 1226.5,263.333 1237.5,263.333 1248.5,264C 1249,264.5 1249.5,265 1250,265.5C 1250.83,275.517 1250.67,285.517 1249.5,295.5C 1246.01,300.473 1243.17,305.806 1241,311.5C 1241.08,307.689 1240.25,304.355 1238.5,301.5 Z"/></g>
<g><path style="opacity:1" fill="#a2a2a2" d="M 572.5,279.5 C 572.098,276.523 571.098,273.857 569.5,271.5C 569.415,270.005 570.081,269.005 571.5,268.5C 572.489,272.107 572.823,275.774 572.5,279.5 Z"/></g>
<g><path style="opacity:1" fill="#767676" d="M 484.5,274.5 C 485.167,277.5 485.833,280.5 486.5,283.5C 486.44,284.043 486.107,284.376 485.5,284.5C 484.513,281.232 484.18,277.898 484.5,274.5 Z"/></g>
<g><path style="opacity:1" fill="#949494" d="M 783.5,285.5 C 784.779,284.285 785.779,284.618 786.5,286.5C 785.842,287.398 785.176,288.398 784.5,289.5C 783.912,287.988 783.578,286.655 783.5,285.5 Z"/></g>
<g><path style="opacity:1" fill="#949494" d="M 779.5,287.5 C 780.167,288.5 780.833,289.5 781.5,290.5C 781.762,291.978 781.429,293.311 780.5,294.5C 779.526,292.257 779.192,289.924 779.5,287.5 Z"/></g>
<g><path style="opacity:1" fill="#727272" d="M 1043.5,286.5 C 1043.59,289.152 1042.92,291.485 1041.5,293.5C 1041.41,290.848 1042.08,288.515 1043.5,286.5 Z"/></g>
<g><path style="opacity:1" fill="#737373" d="M 1098.5,300.5 C 1097.8,302.344 1096.46,302.844 1094.5,302C 1093.75,301.329 1093.41,300.496 1093.5,299.5C 1093.74,298.903 1094.24,298.57 1095,298.5C 1096.3,298.978 1097.47,299.645 1098.5,300.5 Z"/></g>
<g><path style="opacity:1" fill="#b5b5b5" d="M 1135.5,296.5 C 1137.19,298.342 1139.19,299.675 1141.5,300.5C 1139.92,302.831 1138.75,305.497 1138,308.5C 1137.2,304.465 1136.37,300.465 1135.5,296.5 Z"/></g>
<g><path style="opacity:1" fill="#787878" d="M 464.5,300.5 C 463.325,300.719 462.325,300.386 461.5,299.5C 462.86,298.335 463.86,298.668 464.5,300.5 Z"/></g>
<g><path style="opacity:1" fill="#939393" d="M 510.5,301.5 C 511.167,301.5 511.833,301.5 512.5,301.5C 511.833,310.833 511.167,310.833 510.5,301.5 Z"/></g>
<g><path style="opacity:1" fill="#818181" d="M 894.5,302.5 C 895.167,304.5 895.833,306.5 896.5,308.5C 896.631,309.376 896.298,310.043 895.5,310.5C 894.52,307.914 894.187,305.247 894.5,302.5 Z"/></g>
<g><path style="opacity:1" fill="#464646" d="M 66.5,299.5 C 65.5,299.5 64.5,299.5 63.5,299.5C 63.8235,306.022 63.4902,312.355 62.5,318.5C 62.5,313.5 62.5,308.5 62.5,303.5C 62.5,301.833 62.5,300.167 62.5,298.5C 64.099,298.232 65.4324,298.566 66.5,299.5 Z"/></g>
<g><path style="opacity:1" fill="#606060" d="M 1167.5,325.5 C 1167.44,326.043 1167.11,326.376 1166.5,326.5C 1165.5,318.193 1165.17,309.86 1165.5,301.5C 1166.23,308.288 1166.89,316.288 1167.5,325.5 Z"/></g>
<g><path style="opacity:1" fill="#717171" d="M 1226.5,301.5 C 1228.26,304.998 1228.6,308.665 1227.5,312.5C 1226.52,309.038 1226.19,305.371 1226.5,301.5 Z"/></g>
<g><path style="opacity:1" fill="#666666" d="M 1238.5,301.5 C 1237.83,306.167 1237.17,310.833 1236.5,315.5C 1236.17,310.456 1236.51,305.456 1237.5,300.5C 1238.11,300.624 1238.44,300.957 1238.5,301.5 Z"/></g>
<g><path style="opacity:1" fill="#c0c0c0" d="M 60.5,298.5 C 61.1667,300.167 61.8333,301.833 62.5,303.5C 62.5,308.5 62.5,313.5 62.5,318.5C 60.7993,312.081 60.1326,305.415 60.5,298.5 Z"/></g>
<g><path style="opacity:1" fill="#bcbcbc" d="M 534.5,300.5 C 534.969,309.336 534.469,318.003 533,326.5C 532.829,317.99 532.329,309.657 531.5,301.5C 531.694,297.995 532.694,297.662 534.5,300.5 Z"/></g>
<g><path style="opacity:1" fill="#636363" d="M 27.5,307.5 C 27.5905,310.152 26.9238,312.485 25.5,314.5C 25.4095,311.848 26.0762,309.515 27.5,307.5 Z"/></g>
<g><path style="opacity:1" fill="#969696" d="M 137.5,306.5 C 137.833,306.5 138.167,306.5 138.5,306.5C 138.83,312.868 138.496,319.202 137.5,325.5C 136.553,319.184 136.553,312.85 137.5,306.5 Z"/></g>
<g><path style="opacity:1" fill="#787878" d="M 251.5,304.5 C 251.831,312.528 251.498,320.528 250.5,328.5C 249.503,320.862 249.169,313.196 249.5,305.5C 250.167,305.167 250.833,304.833 251.5,304.5 Z"/></g>
<g><path style="opacity:1" fill="#757575" d="M 158.5,311.5 C 159.583,311.539 160.583,311.873 161.5,312.5C 162.17,314.291 162.837,315.958 163.5,317.5C 162.791,318.404 161.791,318.737 160.5,318.5C 160.606,315.921 159.939,313.588 158.5,311.5 Z"/></g>
<g><path style="opacity:1" fill="#c6c6c6" d="M 152.5,314.5 C 153.167,314.5 153.833,314.5 154.5,314.5C 155.002,319.838 155.169,325.172 155,330.5C 153.413,331.727 152.079,331.394 151,329.5C 150.429,324.397 150.929,319.397 152.5,314.5 Z"/></g>
<g><path style="opacity:1" fill="#a1a1a1" d="M 882.5,304.5 C 883.167,304.833 883.833,305.167 884.5,305.5C 884.831,313.196 884.497,320.862 883.5,328.5C 883.172,320.479 882.838,312.479 882.5,304.5 Z"/></g>
<g><path style="opacity:1" fill="#c5c5c5" d="M 181.5,311.5 C 181.83,318.2 181.497,324.866 180.5,331.5C 179.504,325.202 179.17,318.868 179.5,312.5C 180.167,312.167 180.833,311.833 181.5,311.5 Z"/></g>
</svg>
