<svg xmlns="http://www.w3.org/2000/svg" version="1.1" width="1201px" height="169px" style="shape-rendering:geometricPrecision; text-rendering:geometricPrecision; image-rendering:optimizeQuality; fill-rule:evenodd; clip-rule:evenodd" xmlns:xlink="http://www.w3.org/1999/xlink">
<g><path style="opacity:0.798" fill="#121212" d="M 0.5,-0.5 C 13.1667,-0.5 25.8333,-0.5 38.5,-0.5C 40.8685,1.73728 42.2019,4.57061 42.5,8C 41.4331,14.4734 41.2664,20.9734 42,27.5C 46.4132,19.005 51.0799,10.6717 56,2.5C 57.1451,1.36362 58.3117,0.363622 59.5,-0.5C 73.8333,-0.5 88.1667,-0.5 102.5,-0.5C 105.149,1.55863 105.982,4.2253 105,7.5C 95.3742,23.2505 85.8742,39.0838 76.5,55C 87.7659,73.1126 98.4326,91.6126 108.5,110.5C 100.958,122.621 95.4585,135.621 92,149.5C 88.8428,150.721 85.6762,151.721 82.5,152.5C 78.0846,147.889 74.5846,142.556 72,136.5C 70.6409,131.062 68.9743,125.728 67,120.5C 66.6667,125.833 66.3333,131.167 66,136.5C 65.3088,139.266 63.8088,139.933 61.5,138.5C 59.8467,130.621 59.0133,122.621 59,114.5C 52.9331,104.757 47.2664,94.7567 42,84.5C 41.6667,94.1667 41.3333,103.833 41,113.5C 39.791,116.707 38.791,120.041 38,123.5C 35.0062,124.89 33.0062,123.89 32,120.5C 29.2959,130.985 26.1293,141.318 22.5,151.5C 23.3548,157.134 23.6881,162.801 23.5,168.5C 21.1667,168.5 18.8333,168.5 16.5,168.5C 14.0758,161.744 14.0758,154.911 16.5,148C 12.4684,137.413 8.13507,126.913 3.5,116.5C 2.42312,115.295 1.08979,114.628 -0.5,114.5C -0.5,76.5 -0.5,38.5 -0.5,0.5C 0.166667,0.5 0.5,0.166667 0.5,-0.5 Z"/></g>
<g><path style="opacity:0.817" fill="#0c0c0c" d="M 115.5,-0.5 C 145.167,-0.5 174.833,-0.5 204.5,-0.5C 205.122,0.626561 205.955,1.62656 207,2.5C 207.667,12.5 207.667,22.5 207,32.5C 204.636,34.3628 202.136,36.0295 199.5,37.5C 198.784,36.689 197.95,36.0223 197,35.5C 193.071,36.886 189.238,38.386 185.5,40C 190.5,40.3333 195.5,40.6667 200.5,41C 202.333,41.5 203.5,42.6667 204,44.5C 204.667,53.1667 204.667,61.8333 204,70.5C 203.535,71.9308 202.701,73.0975 201.5,74C 197.297,75.2093 193.297,76.876 189.5,79C 194.167,79.3333 198.833,79.6667 203.5,80C 205.329,80.2735 206.829,81.1068 208,82.5C 209.613,92.0661 209.947,101.733 209,111.5C 203.816,118.343 198.316,124.843 192.5,131C 191.207,131.49 189.873,131.657 188.5,131.5C 187.331,136.677 187.331,141.844 188.5,147C 185.844,152.993 183.177,152.993 180.5,147C 182.937,137.773 181.437,129.273 176,121.5C 175.075,122.047 174.242,122.713 173.5,123.5C 171.092,128.402 169.092,133.402 167.5,138.5C 166.188,139.46 164.854,139.294 163.5,138C 162.406,136.22 161.406,134.386 160.5,132.5C 160.167,133 159.833,133.5 159.5,134C 161.213,139.13 161.546,144.296 160.5,149.5C 154.954,152.383 151.954,150.55 151.5,144C 154.678,134.792 152.845,126.626 146,119.5C 145.085,120.328 144.419,121.328 144,122.5C 143.667,129.5 143.333,136.5 143,143.5C 140.478,146.326 138.478,145.993 137,142.5C 136.877,136.974 137.377,131.474 138.5,126C 137.87,122.704 136.37,119.87 134,117.5C 133,123.5 132,129.5 131,135.5C 129.333,138.167 127.667,138.167 126,135.5C 125.204,131.245 125.371,127.079 126.5,123C 125.552,122.517 124.552,122.351 123.5,122.5C 123.5,126.167 123.5,129.833 123.5,133.5C 120.675,133.838 118.508,132.838 117,130.5C 116.667,126.167 116.333,121.833 116,117.5C 115.74,115.382 114.74,113.716 113,112.5C 112.333,75.8333 112.333,39.1667 113,2.5C 114.045,1.62656 114.878,0.626561 115.5,-0.5 Z M 155.5,36.5 C 165.635,39.5111 165.635,40.8445 155.5,40.5C 155.5,39.1667 155.5,37.8333 155.5,36.5 Z M 155.5,75.5 C 164.381,78.3151 164.381,79.6484 155.5,79.5C 155.5,78.1667 155.5,76.8333 155.5,75.5 Z"/></g>
<g><path style="opacity:0.77" fill="#0b0b0b" d="M 215.5,-0.5 C 249.167,-0.5 282.833,-0.5 316.5,-0.5C 318.144,0.316435 319.31,1.64977 320,3.5C 320.667,13.5 320.667,23.5 320,33.5C 315.173,41.149 310.839,49.149 307,57.5C 305.333,59.5 303.667,61.5 302,63.5C 297.216,58.044 293.216,52.044 290,45.5C 289.667,67.5 289.333,89.5 289,111.5C 287.021,116.209 283.688,118.209 279,117.5C 277.121,119.013 274.954,119.679 272.5,119.5C 272.537,123.911 271.037,127.577 268,130.5C 267.586,130.043 267.086,129.709 266.5,129.5C 265.684,125.448 264.684,121.448 263.5,117.5C 262.52,118.981 261.353,120.315 260,121.5C 259.375,130.497 258.875,139.497 258.5,148.5C 255.762,149.035 253.928,148.035 253,145.5C 253,138.167 253,130.833 253,123.5C 252,121.5 251,119.5 250,117.5C 247.333,116.167 245.333,114.167 244,111.5C 243.667,89.5 243.333,67.5 243,45.5C 241.638,48.2356 239.804,50.5689 237.5,52.5C 235.323,51.3237 233.989,49.4904 233.5,47C 232.833,46.3333 232.167,46.3333 231.5,47C 230.167,48.6667 230.167,50.3333 231.5,52C 227.639,52.5691 227.639,53.4024 231.5,54.5C 230.787,56.7759 230.287,59.1093 230,61.5C 228.507,63.5598 226.674,63.8932 224.5,62.5C 223.711,56.8848 223.211,51.2182 223,45.5C 218.822,42.1096 215.489,38.1096 213,33.5C 212.333,23.8333 212.333,14.1667 213,4.5C 213.366,2.54826 214.199,0.88159 215.5,-0.5 Z"/></g>
<g><path style="opacity:0.772" fill="#101010" d="M 357.5,-0.5 C 361.833,-0.5 366.167,-0.5 370.5,-0.5C 354.089,0.956659 340.922,8.28999 331,21.5C 327.628,27.3933 325.628,33.7266 325,40.5C 324.134,54.537 324.468,68.537 326,82.5C 331.006,98.8388 341.84,109.006 358.5,113C 365.542,113.836 372.542,114.836 379.5,116C 381.043,117.878 382.876,119.378 385,120.5C 386.675,123.028 388.008,125.694 389,128.5C 390.176,124.643 391.843,120.976 394,117.5C 393.842,121.459 393.675,125.459 393.5,129.5C 394.5,129.5 395.5,129.5 396.5,129.5C 396.002,125.425 396.002,121.425 396.5,117.5C 399.71,122.586 402.376,127.919 404.5,133.5C 405.845,132.653 406.845,131.487 407.5,130C 408.449,129.383 409.282,129.549 410,130.5C 414.374,122.026 417.374,113.026 419,103.5C 429.059,95.061 433.226,84.3944 431.5,71.5C 418.879,70.353 406.212,70.1864 393.5,71C 391.413,74.5082 389.08,77.8416 386.5,81C 381.5,83 376.5,83 371.5,81C 369.383,79.2691 367.883,77.1024 367,74.5C 366.333,62.8333 366.333,51.1667 367,39.5C 367.687,37.4453 368.854,35.7786 370.5,34.5C 372.046,36.484 373.713,36.8174 375.5,35.5C 376.163,37.0419 376.83,38.7086 377.5,40.5C 378.107,40.3764 378.44,40.0431 378.5,39.5C 379.69,37.6455 381.023,35.8121 382.5,34C 384.167,33.3333 385.833,33.3333 387.5,34C 389.592,37.4356 391.592,40.9356 393.5,44.5C 400.141,48.2492 407.141,51.2492 414.5,53.5C 416.747,52.5944 418.747,51.2611 420.5,49.5C 421.451,50.3256 422.451,50.4922 423.5,50C 424.257,48.4878 425.257,47.1545 426.5,46C 428.676,45.8371 430.509,45.0037 432,43.5C 432.651,23.6702 423.484,10.5035 404.5,4C 397.486,1.89904 390.486,0.399035 383.5,-0.5C 388.833,-0.5 394.167,-0.5 399.5,-0.5C 408.874,2.43994 417.374,7.1066 425,13.5C 432.119,21.8573 435.452,31.524 435,42.5C 433.982,45.7121 431.816,47.5454 428.5,48C 424.885,52.4867 420.219,54.9867 414.5,55.5C 407.856,53.9256 401.523,51.5923 395.5,48.5C 394.914,48.7093 394.414,49.0426 394,49.5C 390.606,45.881 388.106,41.7143 386.5,37C 385.5,36.3333 384.5,36.3333 383.5,37C 380.047,43.7404 375.88,44.2404 371,38.5C 369.356,50.6774 369.023,63.0107 370,75.5C 370.374,76.4162 370.874,77.2496 371.5,78C 376.044,80.5797 380.71,80.913 385.5,79C 387.5,75.6667 389.5,72.3333 391.5,69C 405.167,68.3333 418.833,68.3333 432.5,69C 434.444,70.722 435.444,72.8887 435.5,75.5C 434.703,87.2579 430.036,97.0912 421.5,105C 419.783,114.317 416.783,123.15 412.5,131.5C 409.826,132.75 407.326,134.084 405,135.5C 401.718,134.885 399.718,132.885 399,129.5C 397.211,131.229 395.044,131.896 392.5,131.5C 392.649,134.607 392.149,137.607 391,140.5C 387.916,141.959 385.916,140.959 385,137.5C 384.667,132.833 384.333,128.167 384,123.5C 382.167,121.667 380.333,119.833 378.5,118C 365.208,117.841 352.541,114.508 340.5,108C 332.402,101.654 326.902,93.4871 324,83.5C 322.44,68.8742 322.106,54.2075 323,39.5C 325.801,18.5399 337.301,5.20659 357.5,-0.5 Z"/></g>
<g><path style="opacity:0.836" fill="#0a0a0a" d="M 445.5,-0.5 C 458.833,-0.5 472.167,-0.5 485.5,-0.5C 485.987,0.473444 486.487,1.47344 487,2.5C 487.5,13.8284 487.667,25.1618 487.5,36.5C 494.5,36.5 501.5,36.5 508.5,36.5C 508.333,25.8281 508.5,15.1615 509,4.5C 509.366,2.54826 510.199,0.88159 511.5,-0.5C 524.5,-0.5 537.5,-0.5 550.5,-0.5C 552.666,1.45155 553.999,3.95155 554.5,7C 553.167,40.3333 553.167,73.6667 554.5,107C 554.115,110.728 552.615,113.894 550,116.5C 549.269,125.565 548.936,134.565 549,143.5C 547.54,146.21 545.54,146.876 543,145.5C 542.97,137.003 542.303,128.67 541,120.5C 540.134,125.449 537.3,127.282 532.5,126C 531.874,125.25 531.374,124.416 531,123.5C 529.902,124.967 528.402,125.801 526.5,126C 525.887,130.348 524.054,131.181 521,128.5C 520.481,119.252 519.647,119.252 518.5,128.5C 517.349,129.731 516.183,129.731 515,128.5C 513.761,122.533 511.761,116.866 509,111.5C 508.667,101.833 508.333,92.1667 508,82.5C 505.667,85.5 503.333,88.5 501,91.5C 500.639,94.5252 500.139,97.5252 499.5,100.5C 498.109,103.792 496.276,104.125 494,101.5C 493.667,97.8333 493.333,94.1667 493,90.5C 491.08,87.6612 489.413,84.6612 488,81.5C 487.475,91.1982 487.475,100.865 488,110.5C 484.504,118.748 478.504,122.081 470,120.5C 468.705,122.122 467.205,123.455 465.5,124.5C 463.372,122.629 461.039,120.962 458.5,119.5C 456.84,120.787 455.174,122.12 453.5,123.5C 451.018,119.551 447.851,116.217 444,113.5C 443.333,76.5 443.333,39.5 444,2.5C 444.513,1.47344 445.013,0.473444 445.5,-0.5 Z"/></g>
<g><path style="opacity:0.777" fill="#131313" d="M 674.5,-0.5 C 678.833,-0.5 683.167,-0.5 687.5,-0.5C 668.712,0.642766 654.545,9.30943 645,25.5C 643.592,29.0569 642.592,32.7235 642,36.5C 641.333,50.5 641.333,64.5 642,78.5C 644.755,95.9202 654.588,107.087 671.5,112C 678.709,113.863 686.043,114.863 693.5,115C 699.161,117.49 702.828,121.656 704.5,127.5C 706.523,124.638 708.356,121.638 710,118.5C 709.762,122.109 709.595,125.775 709.5,129.5C 710.5,129.5 711.5,129.5 712.5,129.5C 712.064,125.089 712.064,120.756 712.5,116.5C 715.452,121.853 718.119,127.353 720.5,133C 720.833,133.167 721.167,133.333 721.5,133.5C 722.5,132.167 723.5,130.833 724.5,129.5C 725.086,129.709 725.586,130.043 726,130.5C 727,129.167 728,127.833 729,126.5C 731.311,119.254 733.311,111.921 735,104.5C 737.295,101.203 739.962,98.2026 743,95.5C 747.043,88.3253 749.043,80.6586 749,72.5C 748.5,72 748,71.5 747.5,71C 734.833,70.3333 722.167,70.3333 709.5,71C 707.46,73.781 705.793,76.781 704.5,80C 697.631,83.6956 691.131,83.1956 685,78.5C 684.529,76.7536 683.862,75.087 683,73.5C 682.333,62.5 682.333,51.5 683,40.5C 683.778,37.8162 685.111,35.4828 687,33.5C 688.25,38.2971 690.083,38.6304 692.5,34.5C 693.308,36.4233 693.808,38.4233 694,40.5C 695.5,38.3333 697,36.1667 698.5,34C 700.167,33.3333 701.833,33.3333 703.5,34C 705.628,38.3735 708.128,42.5402 711,46.5C 711.414,46.0426 711.914,45.7093 712.5,45.5C 718.165,48.761 724.165,51.4277 730.5,53.5C 732.747,52.5944 734.747,51.2611 736.5,49.5C 739.449,50.4471 741.449,49.2804 742.5,46C 747.891,45.4188 749.891,42.4188 748.5,37C 746.618,21.435 738.285,10.7683 723.5,5C 716.733,3.08844 710.066,1.25511 703.5,-0.5C 707.5,-0.5 711.5,-0.5 715.5,-0.5C 726.184,2.09631 735.351,7.42964 743,15.5C 749.312,23.7714 751.979,33.1048 751,43.5C 749.934,46.5631 747.767,48.0631 744.5,48C 740.969,52.5563 736.302,55.0563 730.5,55.5C 723.97,53.998 717.804,51.6647 712,48.5C 711.667,48.8333 711.333,49.1667 711,49.5C 707.314,45.9771 704.481,41.8104 702.5,37C 701.5,36.3333 700.5,36.3333 699.5,37C 698.598,40.0697 696.598,41.903 693.5,42.5C 691.733,40.5753 689.566,39.2419 687,38.5C 685.873,44.7299 685.373,51.0632 685.5,57.5C 685.53,63.7017 685.863,69.8684 686.5,76C 690.764,80.3132 695.764,81.3132 701.5,79C 703.6,75.4543 705.933,72.121 708.5,69C 721.833,68.3333 735.167,68.3333 748.5,69C 750.919,70.6856 751.919,73.019 751.5,76C 750.627,87.2458 746.127,96.7458 738,104.5C 736.205,114.032 733.038,123.032 728.5,131.5C 725.826,132.75 723.326,134.084 721,135.5C 719.893,135.415 718.893,135.081 718,134.5C 717.261,132.779 716.427,131.113 715.5,129.5C 713.477,131.173 711.144,131.84 708.5,131.5C 708.54,134.881 708.207,138.214 707.5,141.5C 705.278,141.822 703.444,141.155 702,139.5C 700.492,134.643 700.326,129.81 701.5,125C 699,122.5 696.5,120 694,117.5C 681.678,117.628 669.844,114.794 658.5,109C 649.532,102.577 643.366,94.0774 640,83.5C 638.496,69.8671 638.163,56.2005 639,42.5C 640.502,19.5082 652.336,5.17492 674.5,-0.5 Z"/></g>
<g><path style="opacity:0.771" fill="#0d0d0d" d="M 789.5,-0.5 C 804.167,-0.5 818.833,-0.5 833.5,-0.5C 835.475,0.646381 836.975,2.31305 838,4.5C 850.194,38.7471 862.194,73.0804 874,107.5C 874.667,109.167 874.667,110.833 874,112.5C 872.249,114.49 871.249,116.823 871,119.5C 869.108,120.13 867.441,121.13 866,122.5C 862.348,130.145 858.515,137.478 854.5,144.5C 853.522,144.023 852.689,143.357 852,142.5C 851.846,138.902 850.846,135.569 849,132.5C 847.688,134.658 846.022,134.991 844,133.5C 843.812,129.123 842.479,125.123 840,121.5C 838.604,123.527 836.938,123.86 835,122.5C 834.587,119.768 833.92,117.101 833,114.5C 830.587,111.938 828.92,108.938 828,105.5C 824.48,113.05 821.147,120.717 818,128.5C 815.333,132.5 812.667,132.5 810,128.5C 807.779,123.007 806.279,117.34 805.5,111.5C 804.178,111.67 803.011,111.337 802,110.5C 800.789,114.462 798.789,115.129 796,112.5C 795.667,109.833 795.333,107.167 795,104.5C 794.279,108.342 792.613,111.676 790,114.5C 787.259,122.722 784.926,131.056 783,139.5C 779.835,143.653 778.169,148.32 778,153.5C 776.333,154.833 774.667,154.833 773,153.5C 772.667,150.5 772.333,147.5 772,144.5C 766.387,137.612 762.054,129.946 759,121.5C 758.667,121.167 758.333,120.833 758,120.5C 755.888,122.922 753.888,122.922 752,120.5C 751.937,116.541 750.77,113.041 748.5,110C 760.324,75.8625 772.157,41.6958 784,7.5C 785.129,4.20641 786.962,1.53975 789.5,-0.5 Z M 810.5,48.5 C 811.497,48.4701 812.164,48.9701 812.5,50C 813.863,55.1252 815.53,60.1252 817.5,65C 813.848,65.4986 810.182,65.6653 806.5,65.5C 807.833,59.8333 809.167,54.1667 810.5,48.5 Z"/></g>
<g><path style="opacity:0.831" fill="#080808" d="M 864.5,-0.5 C 898.167,-0.5 931.833,-0.5 965.5,-0.5C 966.122,0.626561 966.955,1.62656 968,2.5C 968.667,12.8333 968.667,23.1667 968,33.5C 963.22,40.7257 959.22,48.3923 956,56.5C 954.859,58.6089 953.359,60.4422 951.5,62C 949.633,62.7112 948.133,62.2112 947,60.5C 944.252,55.3343 941.252,50.3343 938,45.5C 937.667,67.8333 937.333,90.1667 937,112.5C 934.961,114.874 932.628,116.874 930,118.5C 929.275,117.941 928.442,117.608 927.5,117.5C 925.423,118.937 923.09,119.604 920.5,119.5C 920.196,122.522 919.696,125.522 919,128.5C 917.806,130.525 916.306,130.859 914.5,129.5C 913.863,125.429 913.029,121.429 912,117.5C 910.426,118.984 909.093,120.651 908,122.5C 907.667,130.5 907.333,138.5 907,146.5C 905.688,148.658 904.022,148.991 902,147.5C 901.015,145.634 900.515,143.634 900.5,141.5C 901.488,135.185 901.654,128.852 901,122.5C 899.432,118.681 896.932,115.681 893.5,113.5C 892.408,111.817 891.741,109.984 891.5,108C 892.638,87.1869 892.805,66.3536 892,45.5C 889.824,47.8749 887.657,50.2082 885.5,52.5C 883.022,51.2776 882.022,49.2776 882.5,46.5C 881.5,46.5 880.5,46.5 879.5,46.5C 879.5,48.5 879.5,50.5 879.5,52.5C 875.5,52.8333 875.5,53.1667 879.5,53.5C 879.649,56.6074 879.149,59.6074 878,62.5C 876.301,63.4061 874.467,63.7394 872.5,63.5C 871.802,57.5331 871.302,51.5331 871,45.5C 867.63,42.465 864.63,39.1317 862,35.5C 861.333,24.5 861.333,13.5 862,2.5C 862.698,1.30943 863.531,0.309426 864.5,-0.5 Z"/></g>
<g><path style="opacity:0.781" fill="#101010" d="M 1006.5,-0.5 C 1010.83,-0.5 1015.17,-0.5 1019.5,-0.5C 1003.21,0.563194 990.042,7.56319 980,20.5C 976.873,25.419 974.873,30.7523 974,36.5C 973.333,50.8333 973.333,65.1667 974,79.5C 977.201,96.3671 987.034,107.2 1003.5,112C 1010.71,113.863 1018.04,114.863 1025.5,115C 1031.36,117.338 1034.69,121.505 1035.5,127.5C 1036.17,128.267 1037.01,128.934 1038,129.5C 1038.5,127.527 1038.66,125.527 1038.5,123.5C 1040.14,122.251 1041.3,120.584 1042,118.5C 1041.76,122.109 1041.59,125.775 1041.5,129.5C 1042.5,129.5 1043.5,129.5 1044.5,129.5C 1044.18,125.067 1044.18,120.734 1044.5,116.5C 1047.29,121.923 1049.96,127.423 1052.5,133C 1052.83,133.167 1053.17,133.333 1053.5,133.5C 1054.5,132.167 1055.5,130.833 1056.5,129.5C 1057.09,129.709 1057.59,130.043 1058,130.5C 1059,129.167 1060,127.833 1061,126.5C 1063.33,118.5 1065.67,110.5 1068,102.5C 1078.06,93.9783 1081.89,83.4783 1079.5,71C 1066.83,70.3333 1054.17,70.3333 1041.5,71C 1039.44,73.5106 1037.94,76.344 1037,79.5C 1030.95,83.2869 1024.78,83.4536 1018.5,80C 1017.11,78.8289 1016.27,77.3289 1016,75.5C 1015.33,62.8333 1015.33,50.1667 1016,37.5C 1017,36.1667 1018,34.8333 1019,33.5C 1020.25,38.2971 1022.08,38.6304 1024.5,34.5C 1025.31,36.4233 1025.81,38.4233 1026,40.5C 1027.5,38.3333 1029,36.1667 1030.5,34C 1032.17,33.3333 1033.83,33.3333 1035.5,34C 1037.63,38.3735 1040.13,42.5402 1043,46.5C 1043.41,46.0426 1043.91,45.7093 1044.5,45.5C 1046.03,46.8613 1047.7,48.028 1049.5,49C 1054.02,50.005 1058.35,51.505 1062.5,53.5C 1064.75,52.5944 1066.75,51.2611 1068.5,49.5C 1071.45,50.4471 1073.45,49.2804 1074.5,46C 1079.89,45.4188 1081.89,42.4188 1080.5,37C 1078.62,21.435 1070.28,10.7683 1055.5,5C 1048.7,3.13747 1042.04,1.30414 1035.5,-0.5C 1039.5,-0.5 1043.5,-0.5 1047.5,-0.5C 1058.18,2.09631 1067.35,7.42964 1075,15.5C 1081.31,23.7714 1083.98,33.1048 1083,43.5C 1081.93,46.5631 1079.77,48.0631 1076.5,48C 1072.97,52.5563 1068.3,55.0563 1062.5,55.5C 1056.01,54.0027 1049.84,51.6693 1044,48.5C 1043.67,48.8333 1043.33,49.1667 1043,49.5C 1039.42,45.9044 1036.58,41.7377 1034.5,37C 1033.5,36.3333 1032.5,36.3333 1031.5,37C 1030.6,40.0697 1028.6,41.903 1025.5,42.5C 1023.73,40.5753 1021.57,39.2419 1019,38.5C 1017.87,44.7299 1017.37,51.0632 1017.5,57.5C 1017.53,63.7017 1017.86,69.8684 1018.5,76C 1022.76,80.3132 1027.76,81.3132 1033.5,79C 1035.6,75.4543 1037.93,72.121 1040.5,69C 1053.83,68.3333 1067.17,68.3333 1080.5,69C 1082.92,70.6856 1083.92,73.019 1083.5,76C 1082.63,87.2458 1078.13,96.7458 1070,104.5C 1068.07,113.872 1065.07,122.872 1061,131.5C 1058.32,132.864 1055.65,134.198 1053,135.5C 1051.89,135.415 1050.89,135.081 1050,134.5C 1049.26,132.779 1048.43,131.113 1047.5,129.5C 1045.48,131.173 1043.14,131.84 1040.5,131.5C 1040.54,134.881 1040.21,138.214 1039.5,141.5C 1037.28,141.822 1035.44,141.155 1034,139.5C 1032.49,134.643 1032.33,129.81 1033.5,125C 1031,122.5 1028.5,120 1026,117.5C 1013.68,117.628 1001.84,114.794 990.5,109C 981.224,102.382 975.057,93.5488 972,82.5C 970.501,69.2007 970.168,55.8674 971,42.5C 971.512,26.6295 978.345,14.4628 991.5,6C 996.367,3.22592 1001.37,1.05926 1006.5,-0.5 Z"/></g>
<g><path style="opacity:0.803" fill="#0f0f0f" d="M 1094.5,-0.5 C 1107.5,-0.5 1120.5,-0.5 1133.5,-0.5C 1134.8,0.88159 1135.63,2.54826 1136,4.5C 1136.5,15.1615 1136.67,25.8281 1136.5,36.5C 1143.5,36.5 1150.5,36.5 1157.5,36.5C 1157.33,25.1618 1157.5,13.8284 1158,2.5C 1158.7,1.30943 1159.53,0.309426 1160.5,-0.5C 1173.17,-0.5 1185.83,-0.5 1198.5,-0.5C 1198.84,0.338246 1199.51,0.67158 1200.5,0.5C 1200.5,38.5 1200.5,76.5 1200.5,114.5C 1199.21,115.058 1198.38,116.058 1198,117.5C 1197.67,126.5 1197.33,135.5 1197,144.5C 1194.89,146.922 1192.89,146.922 1191,144.5C 1191.17,136.62 1190.67,128.62 1189.5,120.5C 1188.25,122.001 1187.25,123.668 1186.5,125.5C 1182.55,126.184 1178.55,126.184 1174.5,125.5C 1174.83,128.757 1173.49,130.257 1170.5,130C 1168.98,127.404 1168.15,124.571 1168,121.5C 1167.67,123.833 1167.33,126.167 1167,128.5C 1165.67,129.833 1164.33,129.833 1163,128.5C 1161.94,122.922 1160.28,117.589 1158,112.5C 1157.67,102.167 1157.33,91.8333 1157,81.5C 1154.67,84.5 1152.33,87.5 1150,90.5C 1148.83,94.0458 1148.16,97.7125 1148,101.5C 1146.6,103.527 1144.94,103.86 1143,102.5C 1142.01,98.5577 1141.34,94.5577 1141,90.5C 1139.14,88.1123 1137.81,85.4456 1137,82.5C 1136.67,92.1667 1136.33,101.833 1136,111.5C 1132.22,118.799 1126.38,121.799 1118.5,120.5C 1116.83,121.88 1115.16,123.213 1113.5,124.5C 1111.71,123.214 1110.04,121.714 1108.5,120C 1107.21,119.51 1105.87,119.343 1104.5,119.5C 1104.82,122.68 1103.49,123.847 1100.5,123C 1098.49,118.819 1095.66,115.319 1092,112.5C 1091.33,75.8333 1091.33,39.1667 1092,2.5C 1093.04,1.62656 1093.88,0.626561 1094.5,-0.5 Z"/></g>
<g><path style="opacity:1" fill="#fcfcfc" d="M 370.5,-0.5 C 374.833,-0.5 379.167,-0.5 383.5,-0.5C 390.486,0.399035 397.486,1.89904 404.5,4C 423.484,10.5035 432.651,23.6702 432,43.5C 430.509,45.0037 428.676,45.8371 426.5,46C 425.257,47.1545 424.257,48.4878 423.5,50C 422.451,50.4922 421.451,50.3256 420.5,49.5C 418.747,51.2611 416.747,52.5944 414.5,53.5C 407.141,51.2492 400.141,48.2492 393.5,44.5C 391.592,40.9356 389.592,37.4356 387.5,34C 385.833,33.3333 384.167,33.3333 382.5,34C 381.023,35.8121 379.69,37.6455 378.5,39.5C 377.837,37.9581 377.17,36.2914 376.5,34.5C 375.893,34.6236 375.56,34.9569 375.5,35.5C 373.713,36.8174 372.046,36.484 370.5,34.5C 368.854,35.7786 367.687,37.4453 367,39.5C 366.333,51.1667 366.333,62.8333 367,74.5C 367.883,77.1024 369.383,79.2691 371.5,81C 376.5,83 381.5,83 386.5,81C 389.08,77.8416 391.413,74.5082 393.5,71C 406.212,70.1864 418.879,70.353 431.5,71.5C 433.226,84.3944 429.059,95.061 419,103.5C 417.374,113.026 414.374,122.026 410,130.5C 409.282,129.549 408.449,129.383 407.5,130C 406.845,131.487 405.845,132.653 404.5,133.5C 402.376,127.919 399.71,122.586 396.5,117.5C 396.002,121.425 396.002,125.425 396.5,129.5C 395.5,129.5 394.5,129.5 393.5,129.5C 393.675,125.459 393.842,121.459 394,117.5C 391.843,120.976 390.176,124.643 389,128.5C 388.008,125.694 386.675,123.028 385,120.5C 382.876,119.378 381.043,117.878 379.5,116C 372.542,114.836 365.542,113.836 358.5,113C 341.84,109.006 331.006,98.8388 326,82.5C 324.468,68.537 324.134,54.537 325,40.5C 325.628,33.7266 327.628,27.3933 331,21.5C 340.922,8.28999 354.089,0.956659 370.5,-0.5 Z"/></g>
<g><path style="opacity:1" fill="#fcfcfc" d="M 687.5,-0.5 C 692.833,-0.5 698.167,-0.5 703.5,-0.5C 710.066,1.25511 716.733,3.08844 723.5,5C 738.285,10.7683 746.618,21.435 748.5,37C 749.891,42.4188 747.891,45.4188 742.5,46C 741.449,49.2804 739.449,50.4471 736.5,49.5C 734.747,51.2611 732.747,52.5944 730.5,53.5C 724.165,51.4277 718.165,48.761 712.5,45.5C 711.914,45.7093 711.414,46.0426 711,46.5C 708.128,42.5402 705.628,38.3735 703.5,34C 701.833,33.3333 700.167,33.3333 698.5,34C 697,36.1667 695.5,38.3333 694,40.5C 693.808,38.4233 693.308,36.4233 692.5,34.5C 690.083,38.6304 688.25,38.2971 687,33.5C 685.111,35.4828 683.778,37.8162 683,40.5C 682.333,51.5 682.333,62.5 683,73.5C 683.862,75.087 684.529,76.7536 685,78.5C 691.131,83.1956 697.631,83.6956 704.5,80C 705.793,76.781 707.46,73.781 709.5,71C 722.167,70.3333 734.833,70.3333 747.5,71C 748,71.5 748.5,72 749,72.5C 749.043,80.6586 747.043,88.3253 743,95.5C 739.962,98.2026 737.295,101.203 735,104.5C 733.311,111.921 731.311,119.254 729,126.5C 728,127.833 727,129.167 726,130.5C 725.586,130.043 725.086,129.709 724.5,129.5C 723.5,130.833 722.5,132.167 721.5,133.5C 721.167,133.333 720.833,133.167 720.5,133C 718.119,127.353 715.452,121.853 712.5,116.5C 712.064,120.756 712.064,125.089 712.5,129.5C 711.5,129.5 710.5,129.5 709.5,129.5C 709.595,125.775 709.762,122.109 710,118.5C 708.356,121.638 706.523,124.638 704.5,127.5C 702.828,121.656 699.161,117.49 693.5,115C 686.043,114.863 678.709,113.863 671.5,112C 654.588,107.087 644.755,95.9202 642,78.5C 641.333,64.5 641.333,50.5 642,36.5C 642.592,32.7235 643.592,29.0569 645,25.5C 654.545,9.30943 668.712,0.642766 687.5,-0.5 Z"/></g>
<g><path style="opacity:1" fill="#fcfcfc" d="M 1019.5,-0.5 C 1024.83,-0.5 1030.17,-0.5 1035.5,-0.5C 1042.04,1.30414 1048.7,3.13747 1055.5,5C 1070.28,10.7683 1078.62,21.435 1080.5,37C 1081.89,42.4188 1079.89,45.4188 1074.5,46C 1073.45,49.2804 1071.45,50.4471 1068.5,49.5C 1066.75,51.2611 1064.75,52.5944 1062.5,53.5C 1058.35,51.505 1054.02,50.005 1049.5,49C 1047.7,48.028 1046.03,46.8613 1044.5,45.5C 1043.91,45.7093 1043.41,46.0426 1043,46.5C 1040.13,42.5402 1037.63,38.3735 1035.5,34C 1033.83,33.3333 1032.17,33.3333 1030.5,34C 1029,36.1667 1027.5,38.3333 1026,40.5C 1025.81,38.4233 1025.31,36.4233 1024.5,34.5C 1022.08,38.6304 1020.25,38.2971 1019,33.5C 1018,34.8333 1017,36.1667 1016,37.5C 1015.33,50.1667 1015.33,62.8333 1016,75.5C 1016.27,77.3289 1017.11,78.8289 1018.5,80C 1024.78,83.4536 1030.95,83.2869 1037,79.5C 1037.94,76.344 1039.44,73.5106 1041.5,71C 1054.17,70.3333 1066.83,70.3333 1079.5,71C 1081.89,83.4783 1078.06,93.9783 1068,102.5C 1065.67,110.5 1063.33,118.5 1061,126.5C 1060,127.833 1059,129.167 1058,130.5C 1057.59,130.043 1057.09,129.709 1056.5,129.5C 1055.5,130.833 1054.5,132.167 1053.5,133.5C 1053.17,133.333 1052.83,133.167 1052.5,133C 1049.96,127.423 1047.29,121.923 1044.5,116.5C 1044.18,120.734 1044.18,125.067 1044.5,129.5C 1043.5,129.5 1042.5,129.5 1041.5,129.5C 1041.59,125.775 1041.76,122.109 1042,118.5C 1041.3,120.584 1040.14,122.251 1038.5,123.5C 1037.98,125.219 1036.98,126.552 1035.5,127.5C 1034.69,121.505 1031.36,117.338 1025.5,115C 1018.04,114.863 1010.71,113.863 1003.5,112C 987.034,107.2 977.201,96.3671 974,79.5C 973.333,65.1667 973.333,50.8333 974,36.5C 974.873,30.7523 976.873,25.419 980,20.5C 990.042,7.56319 1003.21,0.563194 1019.5,-0.5 Z"/></g>
<g><path style="opacity:1" fill="#fdfdfd" d="M 2.5,1.5 C 14.1714,1.33347 25.8381,1.50014 37.5,2C 38,2.5 38.5,3 39,3.5C 39.3333,14.5 39.6667,25.5 40,36.5C 45.9119,24.4019 52.7452,12.9019 60.5,2C 74.4083,1.1774 88.2417,1.34406 102,2.5C 102.706,4.97123 102.373,7.30457 101,9.5C 92.1972,24.9485 83.0305,40.1151 73.5,55C 84.1258,72.4171 94.6258,89.9171 105,107.5C 105.667,109.167 105.667,110.833 105,112.5C 99.0587,121.051 94.7254,130.385 92,140.5C 90.647,141.685 89.4803,143.019 88.5,144.5C 91.1326,145.884 91.1326,147.218 88.5,148.5C 87.7022,146.922 87.2022,145.256 87,143.5C 85.7316,145.717 84.2316,147.717 82.5,149.5C 79.7637,145.704 77.2637,141.704 75,137.5C 73.4164,130.246 71.0831,123.246 68,116.5C 66.6439,115.62 65.1439,115.286 63.5,115.5C 63.6663,122.508 63.4996,129.508 63,136.5C 62.8642,128.438 62.1975,120.438 61,112.5C 54,100.5 47,88.5 40,76.5C 39.6667,88.1667 39.3333,99.8333 39,111.5C 37.9385,114.831 36.7718,118.164 35.5,121.5C 34.5896,119.345 33.4229,117.345 32,115.5C 31.3333,116.167 30.6667,116.833 30,117.5C 27.829,123.683 26.1624,130.016 25,136.5C 24.0929,140.573 22.4262,144.239 20,147.5C 20.9451,154.073 21.4451,160.74 21.5,167.5C 19.8762,167.64 18.7096,166.973 18,165.5C 17.2797,159.639 17.4463,153.806 18.5,148C 14.9849,136.459 10.4849,125.292 5,114.5C 3.48779,113.743 2.15445,112.743 1,111.5C 0.333333,75.5 0.333333,39.5 1,3.5C 1.71719,2.9558 2.21719,2.28913 2.5,1.5 Z"/></g>
<g><path style="opacity:1" fill="#fdfdfd" d="M 154.5,33.5 C 154.44,32.9569 154.107,32.6236 153.5,32.5C 152.197,35.6447 152.197,38.6447 153.5,41.5C 168.328,42.3313 183.328,42.8313 198.5,43C 199.416,43.3742 200.25,43.8742 201,44.5C 201.667,53.1667 201.667,61.8333 201,70.5C 190.112,77.3487 178.279,79.8487 165.5,78C 162.381,75.1071 158.714,73.2738 154.5,72.5C 153.513,75.7683 153.18,79.1016 153.5,82.5C 170.503,82.3334 187.503,82.5001 204.5,83C 205,83.5 205.5,84 206,84.5C 206.667,93.5 206.667,102.5 206,111.5C 201.454,116.377 197.287,121.544 193.5,127C 190.986,128.252 188.32,128.752 185.5,128.5C 184.999,155.158 184.165,155.158 183,128.5C 180.412,124.326 178.079,119.993 176,115.5C 173.393,118.823 170.726,122.823 168,127.5C 167.506,129.134 167.34,130.801 167.5,132.5C 166.717,130.924 165.55,129.591 164,128.5C 163.617,129.056 163.117,129.389 162.5,129.5C 162.631,128.624 162.298,127.957 161.5,127.5C 160.108,128.605 158.941,129.939 158,131.5C 158.132,137.14 158.299,142.807 158.5,148.5C 157.178,148.67 156.011,148.337 155,147.5C 154.7,141.814 154.7,136.147 155,130.5C 153.607,126.714 151.941,123.048 150,119.5C 144.493,116.341 141.66,118.007 141.5,124.5C 141.167,124.5 140.833,124.5 140.5,124.5C 140.071,120.976 138.571,117.976 136,115.5C 134.887,114.289 133.72,114.289 132.5,115.5C 130.895,121.456 129.395,127.456 128,133.5C 127.585,129.152 127.751,124.819 128.5,120.5C 126.379,120.675 124.379,120.341 122.5,119.5C 121.655,117.238 120.322,116.571 118.5,117.5C 118.114,115.063 116.947,113.063 115,111.5C 114.333,75.5 114.333,39.5 115,3.5C 115.5,3 116,2.5 116.5,2C 145.5,1.33333 174.5,1.33333 203.5,2C 204,2.5 204.5,3 205,3.5C 205.667,12.5 205.667,21.5 205,30.5C 204.167,31.3333 203.333,32.1667 202.5,33C 196.409,32.8335 190.742,34.1669 185.5,37C 180.842,37.4712 176.342,38.3045 172,39.5C 170.167,39.3333 168.333,39.1667 166.5,39C 162.867,36.35 158.867,34.5167 154.5,33.5 Z"/></g>
<g><path style="opacity:1" fill="#fdfdfd" d="M 288.5,38.5 C 288.217,37.7109 287.717,37.0442 287,36.5C 286.5,61.1644 286.333,85.8311 286.5,110.5C 285.188,112.479 283.521,114.145 281.5,115.5C 278.477,113.839 276.143,114.505 274.5,117.5C 273.264,116.754 271.93,116.421 270.5,116.5C 269.987,120.229 269.154,123.896 268,127.5C 267.667,124.167 267.333,120.833 267,117.5C 265.981,116.313 264.814,115.313 263.5,114.5C 260.435,116.979 258.102,119.979 256.5,123.5C 256.167,123.5 255.833,123.5 255.5,123.5C 254.261,120.411 252.761,117.411 251,114.5C 248.585,113.589 247.085,111.922 246.5,109.5C 246.833,85.1575 246.5,60.8242 245.5,36.5C 244.702,36.9569 244.369,37.6236 244.5,38.5C 242.579,42.4226 240.246,46.0893 237.5,49.5C 237.005,46.5297 235.505,44.1963 233,42.5C 231.863,43.364 230.53,44.364 229,45.5C 228.506,47.1341 228.34,48.8008 228.5,50.5C 227.5,50.5 226.5,50.5 225.5,50.5C 225.662,48.4727 225.495,46.4727 225,44.5C 221.282,41.3844 218.282,37.7177 216,33.5C 215.333,23.5 215.333,13.5 216,3.5C 216.5,3 217,2.5 217.5,2C 250.167,1.33333 282.833,1.33333 315.5,2C 316,2.5 316.5,3 317,3.5C 317.667,13.8333 317.667,24.1667 317,34.5C 316,35.5 315,36.5 314,37.5C 310.66,44.2019 307.327,50.8685 304,57.5C 303.035,59.2603 301.868,59.5937 300.5,58.5C 296.871,51.554 292.871,44.8873 288.5,38.5 Z"/></g>
<g><path style="opacity:1" fill="#fdfdfd" d="M 524.5,117.5 C 523.833,117.833 523.167,118.167 522.5,118.5C 520.883,117.962 519.216,117.629 517.5,117.5C 517.5,118.5 517.5,119.5 517.5,120.5C 516.698,119.048 516.198,117.382 516,115.5C 515.768,116.737 515.268,117.737 514.5,118.5C 514.736,115.774 513.903,113.441 512,111.5C 511.667,99.1667 511.333,86.8333 511,74.5C 506.667,80.1667 502.333,85.8333 498,91.5C 497.667,94.5 497.333,97.5 497,100.5C 496.667,97.1667 496.333,93.8333 496,90.5C 493.223,87.282 491.223,83.6153 490,79.5C 488.667,78.1667 487.333,76.8333 486,75.5C 485.667,87.5 485.333,99.5 485,111.5C 483.207,114.468 480.707,116.468 477.5,117.5C 476.359,116.661 475.026,115.994 473.5,115.5C 472.438,116.425 472.438,117.425 473.5,118.5C 472.069,118.119 471.236,117.119 471,115.5C 468.626,117.539 466.626,119.872 465,122.5C 464.808,120.423 464.308,118.423 463.5,116.5C 461.755,116.476 459.921,116.81 458,117.5C 456.739,117.241 455.739,116.574 455,115.5C 454.798,117.256 454.298,118.922 453.5,120.5C 451.932,116.681 449.432,113.681 446,111.5C 445.333,75.5 445.333,39.5 446,3.5C 446.5,3 447,2.5 447.5,2C 459.5,1.33333 471.5,1.33333 483.5,2C 484,2.5 484.5,3 485,3.5C 485.333,15.1667 485.667,26.8333 486,38.5C 494.415,39.4832 502.915,39.8166 511.5,39.5C 511.333,27.4954 511.5,15.4954 512,3.5C 512.5,3 513,2.5 513.5,2C 525.167,1.33333 536.833,1.33333 548.5,2C 549.416,2.37424 550.25,2.87424 551,3.5C 551.667,39.5 551.667,75.5 551,111.5C 549.426,112.984 548.093,114.651 547,116.5C 546.832,125.518 546.332,134.518 545.5,143.5C 544.502,135.193 544.169,126.86 544.5,118.5C 542.876,118.64 541.71,117.973 541,116.5C 538.998,118.503 537.498,120.836 536.5,123.5C 535.376,118.279 534.542,118.279 534,123.5C 532.955,120.846 531.455,118.512 529.5,116.5C 528.167,125.833 526.833,125.833 525.5,116.5C 524.893,116.624 524.56,116.957 524.5,117.5 Z"/></g>
<g><path style="opacity:1" fill="#fcfcfc" d="M 805.5,103.5 C 805.027,102.094 804.027,101.427 802.5,101.5C 800.738,102.262 799.738,103.596 799.5,105.5C 798.833,105.167 798.167,104.833 797.5,104.5C 797.288,102.616 796.288,101.283 794.5,100.5C 792.643,105.232 790.309,109.732 787.5,114C 784.874,122.799 782.374,131.632 780,140.5C 777.125,143.542 775.792,147.209 776,151.5C 775.667,149.167 775.333,146.833 775,144.5C 768.657,137.174 763.991,128.84 761,119.5C 758.799,114.514 757.132,114.514 756,119.5C 755.667,119.167 755.333,118.833 755,118.5C 754.871,115.997 753.871,113.997 752,112.5C 751.333,110.167 751.333,107.833 752,105.5C 761.798,79.4381 770.798,53.1048 779,26.5C 782.184,19.2922 785.184,11.9589 788,4.5C 788.833,3.66667 789.667,2.83333 790.5,2C 804.167,1.33333 817.833,1.33333 831.5,2C 833.286,2.78451 834.786,3.95118 836,5.5C 838.797,14.4183 842.13,23.0849 846,31.5C 854.222,57.8333 863.056,83.9999 872.5,110C 870.799,111.86 869.799,114.027 869.5,116.5C 867.408,116.561 865.908,117.561 865,119.5C 861.063,126.374 857.397,133.374 854,140.5C 853.743,136.623 852.743,132.957 851,129.5C 849.964,126.706 848.464,126.206 846.5,128C 848.902,129.471 848.736,130.971 846,132.5C 845.832,127.499 844.499,122.832 842,118.5C 840.644,117.62 839.144,117.286 837.5,117.5C 837.649,118.552 837.483,119.552 837,120.5C 836.667,118.5 836.333,116.5 836,114.5C 833.032,109.779 830.532,104.779 828.5,99.5C 823.637,109.225 818.804,118.892 814,128.5C 813.055,128.095 812.388,127.428 812,126.5C 809.362,118.944 807.195,111.277 805.5,103.5 Z M 810.5,48.5 C 809.167,54.1667 807.833,59.8333 806.5,65.5C 810.182,65.6653 813.848,65.4986 817.5,65C 815.53,60.1252 813.863,55.1252 812.5,50C 812.164,48.9701 811.497,48.4701 810.5,48.5 Z"/></g>
<g><path style="opacity:1" fill="#fcfcfc" d="M 905.5,121.5 C 904.833,121.833 904.167,122.167 903.5,122.5C 902.114,117.733 899.28,114.066 895,111.5C 894.667,86.5 894.333,61.5 894,36.5C 891.779,41.2238 888.945,45.5571 885.5,49.5C 884.866,47.4332 883.866,45.5998 882.5,44C 878.152,43.1479 875.818,45.3145 875.5,50.5C 874.833,48.5 874.167,46.5 873.5,44.5C 870.146,40.9809 866.98,37.3142 864,33.5C 863.333,23.5 863.333,13.5 864,3.5C 864.5,3 865,2.5 865.5,2C 898.167,1.33333 930.833,1.33333 963.5,2C 964.416,2.37424 965.25,2.87424 966,3.5C 966.667,13.1667 966.667,22.8333 966,32.5C 961.173,40.149 956.839,48.149 953,56.5C 951.494,59.474 949.828,59.8073 948,57.5C 944.503,50.5018 940.503,43.8352 936,37.5C 935.824,62.2093 935.324,86.8759 934.5,111.5C 932.831,112.671 931.331,114.004 930,115.5C 928.463,114.965 926.963,114.632 925.5,114.5C 924.281,115.263 923.281,116.263 922.5,117.5C 921.549,116.674 920.549,116.508 919.5,117C 918.18,120.377 917.18,123.877 916.5,127.5C 915.99,123.154 914.99,118.988 913.5,115C 912.5,114.333 911.5,114.333 910.5,115C 908.946,117.287 907.279,119.454 905.5,121.5 Z"/></g>
<g><path style="opacity:1" fill="#fdfdfd" d="M 1172.5,124.5 C 1171.83,122.833 1171.17,121.167 1170.5,119.5C 1169.22,118.069 1167.55,117.402 1165.5,117.5C 1165.66,120.518 1165.5,123.518 1165,126.5C 1164.67,123.833 1164.33,121.167 1164,118.5C 1163.67,118.833 1163.33,119.167 1163,119.5C 1163.05,116.367 1162.05,113.7 1160,111.5C 1159.67,99.1667 1159.33,86.8333 1159,74.5C 1155,79.8333 1151,85.1667 1147,90.5C 1145.24,103.62 1144.24,103.286 1144,89.5C 1141.14,85.1016 1138.31,80.7683 1135.5,76.5C 1135.22,75.7109 1134.72,75.0442 1134,74.5C 1133.5,86.4954 1133.33,98.4954 1133.5,110.5C 1131.82,112.54 1130.16,114.54 1128.5,116.5C 1124.97,115.988 1121.63,115.988 1118.5,116.5C 1116.55,117.716 1115.05,119.382 1114,121.5C 1113.8,119.744 1113.3,118.078 1112.5,116.5C 1111.17,119.167 1109.83,119.167 1108.5,116.5C 1106.5,117.61 1104.67,117.276 1103,115.5C 1102.56,121.8 1101.22,121.8 1099,115.5C 1097.33,114.167 1095.67,112.833 1094,111.5C 1093.33,75.5 1093.33,39.5 1094,3.5C 1094.5,3 1095,2.5 1095.5,2C 1107.88,1.18692 1120.21,1.35359 1132.5,2.5C 1133.33,14.4861 1133.83,26.4861 1134,38.5C 1142.41,39.4832 1150.91,39.8166 1159.5,39.5C 1159.33,27.4954 1159.5,15.4954 1160,3.5C 1160.5,3 1161,2.5 1161.5,2C 1173.5,1.33333 1185.5,1.33333 1197.5,2C 1198,2.5 1198.5,3 1199,3.5C 1199.67,39.5 1199.67,75.5 1199,111.5C 1197.17,113.156 1195.84,115.156 1195,117.5C 1194.21,125.37 1194.38,133.203 1195.5,141C 1195.37,142.059 1194.87,142.892 1194,143.5C 1193.67,134.167 1193.33,124.833 1193,115.5C 1192.75,116.624 1192.25,117.624 1191.5,118.5C 1190.55,117.674 1189.55,117.508 1188.5,118C 1187.21,119.41 1186.05,120.91 1185,122.5C 1183.58,119.999 1182.58,120.332 1182,123.5C 1178.82,114.72 1177.32,114.72 1177.5,123.5C 1176.5,123.5 1175.5,123.5 1174.5,123.5C 1174.81,121.076 1174.47,118.743 1173.5,116.5C 1172.52,119.086 1172.19,121.753 1172.5,124.5 Z"/></g>
<g><path style="opacity:1" fill="#868686" d="M 154.5,33.5 C 153.527,35.9479 153.194,38.6146 153.5,41.5C 152.197,38.6447 152.197,35.6447 153.5,32.5C 154.107,32.6236 154.44,32.9569 154.5,33.5 Z"/></g>
<g><path style="opacity:1" fill="#808080" d="M 375.5,35.5 C 375.56,34.9569 375.893,34.6236 376.5,34.5C 377.17,36.2914 377.837,37.9581 378.5,39.5C 378.44,40.0431 378.107,40.3764 377.5,40.5C 376.83,38.7086 376.163,37.0419 375.5,35.5 Z"/></g>
<g><path style="opacity:1" fill="#616161" d="M 246.5,109.5 C 245.833,85.8333 245.167,62.1667 244.5,38.5C 244.369,37.6236 244.702,36.9569 245.5,36.5C 246.5,60.8242 246.833,85.1575 246.5,109.5 Z"/></g>
<g><path style="opacity:1" fill="#5f5f5f" d="M 288.5,38.5 C 287.833,62.5 287.167,86.5 286.5,110.5C 286.333,85.8311 286.5,61.1644 287,36.5C 287.717,37.0442 288.217,37.7109 288.5,38.5 Z"/></g>
<g><path style="opacity:0.801" fill="#131313" d="M 810.5,39.5 C 811.497,39.4701 812.164,39.9701 812.5,41C 815.245,49.4823 817.912,57.9823 820.5,66.5C 814.872,67.4954 809.206,67.8288 803.5,67.5C 805.52,58.0885 807.853,48.7552 810.5,39.5 Z M 810.5,48.5 C 809.167,54.1667 807.833,59.8333 806.5,65.5C 810.182,65.6653 813.848,65.4986 817.5,65C 815.53,60.1252 813.863,55.1252 812.5,50C 812.164,48.9701 811.497,48.4701 810.5,48.5 Z"/></g>
<g><path style="opacity:0.814" fill="#090909" d="M 568.5,47.5 C 588.169,47.3334 607.836,47.5 627.5,48C 628.333,48.8333 629.167,49.6667 630,50.5C 630.667,60.5 630.667,70.5 630,80.5C 622.633,87.8278 617.966,96.4944 616,106.5C 613.546,108.013 611.879,107.346 611,104.5C 610.501,108.514 610.667,112.514 611.5,116.5C 611.286,123.916 608.453,125.249 603,120.5C 602.198,115.581 602.365,110.748 603.5,106C 602.062,105.781 600.729,105.281 599.5,104.5C 598.311,100.05 596.811,95.7163 595,91.5C 594.51,92.7932 594.343,94.1266 594.5,95.5C 591.194,96.6817 587.86,97.515 584.5,98C 580.923,95.5907 578.257,92.424 576.5,88.5C 573.133,85.6982 569.633,83.0315 566,80.5C 565.803,72.4515 565.303,64.4515 564.5,56.5C 564.854,52.9873 566.187,49.9873 568.5,47.5 Z"/></g>
<g><path style="opacity:1" fill="#fafafa" d="M 627.5,80.5 C 623.622,84.5455 619.955,88.8788 616.5,93.5C 615.847,97.2348 615.014,100.901 614,104.5C 613.03,101.556 612.196,98.5564 611.5,95.5C 610.333,97.1667 609.167,98.8333 608,100.5C 608.274,107.131 608.441,113.797 608.5,120.5C 606.876,120.64 605.71,119.973 605,118.5C 604.88,111.827 604.88,105.161 605,98.5C 604.333,97.8333 603.667,97.1667 603,96.5C 602.667,98.5 602.333,100.5 602,102.5C 600.112,99.2606 598.445,94.5939 597,88.5C 596.028,86.6951 594.861,85.0284 593.5,83.5C 592.516,86.4281 592.183,89.4281 592.5,92.5C 590.328,93.8011 587.995,94.8011 585.5,95.5C 585.915,91.6249 585.415,87.9582 584,84.5C 583.517,85.448 583.351,86.448 583.5,87.5C 582.698,88.9516 582.198,90.6183 582,92.5C 580.581,90.6641 579.414,88.6641 578.5,86.5C 574.84,84.0021 571.34,81.3354 568,78.5C 567.333,69.5 567.333,60.5 568,51.5C 568.75,50.8742 569.584,50.3742 570.5,50C 589.167,49.3333 607.833,49.3333 626.5,50C 627.126,50.7504 627.626,51.5838 628,52.5C 628.78,61.8807 628.613,71.214 627.5,80.5 Z"/></g>
<g><path style="opacity:1" fill="#474747" d="M 1135.5,76.5 C 1134.83,87.8333 1134.17,99.1667 1133.5,110.5C 1133.33,98.4954 1133.5,86.4954 1134,74.5C 1134.72,75.0442 1135.22,75.7109 1135.5,76.5 Z"/></g>
<g><path style="opacity:1" fill="#929292" d="M 585.5,95.5 C 584.833,92.8333 584.167,90.1667 583.5,87.5C 583.351,86.448 583.517,85.448 584,84.5C 585.415,87.9582 585.915,91.6249 585.5,95.5 Z"/></g>
<g><path style="opacity:1" fill="#8b8b8b" d="M 802.5,101.5 C 804.027,101.427 805.027,102.094 805.5,103.5C 803.883,104.589 803.05,106.256 803,108.5C 801.482,106.187 801.316,103.854 802.5,101.5 Z"/></g>
<g><path style="opacity:1" fill="#919191" d="M 797.5,104.5 C 798.167,104.833 798.833,105.167 799.5,105.5C 799.799,107.604 799.466,109.604 798.5,111.5C 797.526,109.257 797.192,106.924 797.5,104.5 Z"/></g>
<g><path style="opacity:1" fill="#8d8d8d" d="M 1118.5,116.5 C 1121.63,115.988 1124.97,115.988 1128.5,116.5C 1126.36,117.404 1124.03,118.071 1121.5,118.5C 1120.26,118.058 1119.26,117.391 1118.5,116.5 Z"/></g>
<g><path style="opacity:1" fill="#737373" d="M 477.5,117.5 C 476.25,117.577 475.417,118.244 475,119.5C 474.617,118.944 474.117,118.611 473.5,118.5C 472.438,117.425 472.438,116.425 473.5,115.5C 475.026,115.994 476.359,116.661 477.5,117.5 Z"/></g>
<g><path style="opacity:1" fill="#868686" d="M 517.5,120.5 C 517.662,122.527 517.495,124.527 517,126.5C 515.976,123.865 515.143,121.198 514.5,118.5C 515.268,117.737 515.768,116.737 516,115.5C 516.198,117.382 516.698,119.048 517.5,120.5 Z"/></g>
<g><path style="opacity:1" fill="#cccccc" d="M 122.5,119.5 C 121.676,123.312 121.176,127.312 121,131.5C 120.085,130.672 119.419,129.672 119,128.5C 118.501,124.848 118.335,121.182 118.5,117.5C 120.322,116.571 121.655,117.238 122.5,119.5 Z"/></g>
<g><path style="opacity:1" fill="#a7a7a7" d="M 524.5,117.5 C 524.699,120.941 524.199,124.274 523,127.5C 522.502,124.518 522.335,121.518 522.5,118.5C 523.167,118.167 523.833,117.833 524.5,117.5 Z"/></g>
<g><path style="opacity:1" fill="#676767" d="M 1170.5,119.5 C 1171.17,121.167 1171.83,122.833 1172.5,124.5C 1172.65,125.552 1172.48,126.552 1172,127.5C 1170.63,125.063 1170.13,122.397 1170.5,119.5 Z"/></g>
<g><path style="opacity:1" fill="#8a8a8a" d="M 140.5,124.5 C 140.833,124.5 141.167,124.5 141.5,124.5C 141.955,131.014 141.455,137.347 140,143.5C 139.406,137.144 139.573,130.811 140.5,124.5 Z"/></g>
<g><path style="opacity:1" fill="#8d8d8d" d="M 1038.5,123.5 C 1038.66,125.527 1038.5,127.527 1038,129.5C 1037.01,128.934 1036.17,128.267 1035.5,127.5C 1036.98,126.552 1037.98,125.219 1038.5,123.5 Z"/></g>
<g><path style="opacity:1" fill="#848484" d="M 167.5,132.5 C 167.688,134.103 167.188,135.437 166,136.5C 163.978,134.607 162.812,132.273 162.5,129.5C 163.117,129.389 163.617,129.056 164,128.5C 165.55,129.591 166.717,130.924 167.5,132.5 Z"/></g>
<g><path style="opacity:1" fill="#777777" d="M 905.5,121.5 C 905.831,129.86 905.498,138.193 904.5,146.5C 903.502,138.528 903.169,130.528 903.5,122.5C 904.167,122.167 904.833,121.833 905.5,121.5 Z"/></g>
<g><path style="opacity:1" fill="#c0c0c0" d="M 255.5,123.5 C 255.833,123.5 256.167,123.5 256.5,123.5C 256.666,130.841 256.5,138.174 256,145.5C 254.954,144.228 254.454,142.728 254.5,141C 255.331,135.196 255.665,129.362 255.5,123.5 Z"/></g>
</svg>
