<svg width="161" height="85" viewBox="0 0 161 85" fill="none" xmlns="http://www.w3.org/2000/svg">
<path d="M3 20C3.21863 18.396 7.9461 16.4 9.22549 15.5046C14.1023 12.0915 18.7511 8.6189 24.0784 5.79445C25.7539 4.90615 28.0234 3.37527 29.9608 3.05224C35.8812 2.06506 45.0142 15.3602 48 18.3816" stroke="black" stroke-width="5" stroke-linecap="round"/>
<path d="M158 21C157.781 19.396 153.054 17.4 151.775 16.5046C146.898 13.0915 142.249 9.6189 136.922 6.79445C135.246 5.90615 132.977 4.37527 131.039 4.05224C125.119 3.06506 115.986 16.3602 113 19.3816" stroke="black" stroke-width="5" stroke-linecap="round"/>
<g filter="url(#filter0_i_143_622)">
<ellipse cx="27" cy="53" rx="24" ry="29" fill="black"/>
</g>
<g filter="url(#filter1_i_143_622)">
<ellipse cx="135" cy="56" rx="24" ry="29" fill="black"/>
</g>
<defs>
<filter id="filter0_i_143_622" x="3" y="24" width="48" height="62" filterUnits="userSpaceOnUse" color-interpolation-filters="sRGB">
<feFlood flood-opacity="0" result="BackgroundImageFix"/>
<feBlend mode="normal" in="SourceGraphic" in2="BackgroundImageFix" result="shape"/>
<feColorMatrix in="SourceAlpha" type="matrix" values="0 0 0 0 0 0 0 0 0 0 0 0 0 0 0 0 0 0 127 0" result="hardAlpha"/>
<feOffset dy="4"/>
<feGaussianBlur stdDeviation="2"/>
<feComposite in2="hardAlpha" operator="arithmetic" k2="-1" k3="1"/>
<feColorMatrix type="matrix" values="0 0 0 0 0 0 0 0 0 0 0 0 0 0 0 0 0 0 0.25 0"/>
<feBlend mode="normal" in2="shape" result="effect1_innerShadow_143_622"/>
</filter>
<filter id="filter1_i_143_622" x="111" y="27" width="48" height="62" filterUnits="userSpaceOnUse" color-interpolation-filters="sRGB">
<feFlood flood-opacity="0" result="BackgroundImageFix"/>
<feBlend mode="normal" in="SourceGraphic" in2="BackgroundImageFix" result="shape"/>
<feColorMatrix in="SourceAlpha" type="matrix" values="0 0 0 0 0 0 0 0 0 0 0 0 0 0 0 0 0 0 127 0" result="hardAlpha"/>
<feOffset dy="4"/>
<feGaussianBlur stdDeviation="2"/>
<feComposite in2="hardAlpha" operator="arithmetic" k2="-1" k3="1"/>
<feColorMatrix type="matrix" values="0 0 0 0 0 0 0 0 0 0 0 0 0 0 0 0 0 0 0.25 0"/>
<feBlend mode="normal" in2="shape" result="effect1_innerShadow_143_622"/>
</filter>
</defs>
</svg>
