<svg xmlns="http://www.w3.org/2000/svg" version="1.1" width="543px" height="130px" style="shape-rendering:geometricPrecision; text-rendering:geometricPrecision; image-rendering:optimizeQuality; fill-rule:evenodd; clip-rule:evenodd" xmlns:xlink="http://www.w3.org/1999/xlink">
<g><path style="opacity:0.998" fill="#ff9686" d="M 53.5,-0.5 C 191.5,-0.5 329.5,-0.5 467.5,-0.5C 477.31,2.11282 485.477,7.44616 492,15.5C 505.959,32.4614 520.293,49.1281 535,65.5C 538.397,70.8881 540.897,76.5547 542.5,82.5C 542.5,87.1667 542.5,91.8333 542.5,96.5C 538.036,112.966 527.702,123.966 511.5,129.5C 351.5,129.5 191.5,129.5 31.5,129.5C 12.9595,123.961 2.29283,111.627 -0.5,92.5C -0.5,90.5 -0.5,88.5 -0.5,86.5C 7.64225,62.2688 17.4756,38.6022 29,15.5C 35.523,7.44616 43.6897,2.11282 53.5,-0.5 Z"/></g>
</svg>
