<svg xmlns="http://www.w3.org/2000/svg" version="1.1" width="568px" height="130px" style="shape-rendering:geometricPrecision; text-rendering:geometricPrecision; image-rendering:optimizeQuality; fill-rule:evenodd; clip-rule:evenodd" xmlns:xlink="http://www.w3.org/1999/xlink">
<g><path style="opacity:0.998" fill="#ff9685" d="M 30.5,-0.5 C 199.167,-0.5 367.833,-0.5 536.5,-0.5C 552.5,4.16667 562.833,14.5 567.5,30.5C 567.5,36.5 567.5,42.5 567.5,48.5C 558.186,70.7996 548.02,92.7996 537,114.5C 530.769,122.188 522.935,127.188 513.5,129.5C 367.833,129.5 222.167,129.5 76.5,129.5C 65.3389,126.314 56.1723,119.981 49,110.5C 35.3708,94.5355 21.3708,78.8688 7,63.5C 3.64258,58.4576 1.14258,53.1243 -0.5,47.5C -0.5,42.1667 -0.5,36.8333 -0.5,31.5C 3.76052,14.9067 14.0939,4.24007 30.5,-0.5 Z"/></g>
</svg>
